<svg xmlns="http://www.w3.org/2000/svg" xmlns:xlink="http://www.w3.org/1999/xlink" width="816" zoomAndPan="magnify" viewBox="0 0 612 611.999999" height="816" preserveAspectRatio="xMidYMid meet" version="1.0"><defs><clipPath id="e12007f376"><path d="M 17 187.480469 L 596 187.480469 L 596 388 L 17 388 Z M 17 187.480469 " clip-rule="nonzero"/></clipPath><clipPath id="88879bcf2c"><path d="M 74 341 L 158 341 L 158 424.480469 L 74 424.480469 Z M 74 341 " clip-rule="nonzero"/></clipPath><clipPath id="19e8e273ca"><path d="M 469 341 L 553 341 L 553 424.480469 L 469 424.480469 Z M 469 341 " clip-rule="nonzero"/></clipPath></defs><g clip-path="url(#e12007f376)"><path fill="#000000" d="M 22.746094 377.316406 L 58.421875 377.316406 C 58.226562 379.25 58.125 381.210938 58.125 383.195312 L 58.125 387.976562 L 67.695312 387.976562 L 67.695312 383.195312 C 67.695312 356.472656 89.453125 334.734375 116.191406 334.734375 C 142.933594 334.734375 164.6875 356.472656 164.6875 383.195312 L 164.6875 387.976562 L 174.257812 387.976562 L 174.257812 383.195312 C 174.257812 381.210938 174.15625 379.25 173.960938 377.316406 L 453.089844 377.316406 C 452.894531 379.25 452.792969 381.210938 452.792969 383.195312 L 452.792969 387.976562 L 462.363281 387.976562 L 462.363281 383.195312 C 462.363281 356.472656 484.117188 334.734375 510.859375 334.734375 C 537.601562 334.734375 559.355469 356.472656 559.355469 383.195312 L 559.355469 387.976562 L 568.925781 387.976562 L 568.925781 383.195312 C 568.925781 381.210938 568.824219 379.25 568.628906 377.316406 L 589.699219 377.316406 C 597.152344 377.316406 597.152344 350.234375 589.699219 350.234375 L 581.148438 350.234375 L 581.148438 302.144531 C 581.148438 290.335938 572.5625 280.277344 560.894531 278.414062 L 487.355469 266.660156 C 444.84375 236.941406 434.070312 209.984375 420.261719 200.984375 C 399.636719 187.542969 322.789062 187.433594 292.238281 187.945312 C 285.28125 188.0625 279.714844 193.730469 279.714844 200.683594 L 279.714844 265.328125 L 42.925781 265.328125 C 35.582031 265.328125 29.628906 271.277344 29.628906 278.613281 L 29.628906 350.234375 L 22.746094 350.234375 C 15.292969 350.234375 15.292969 377.316406 22.746094 377.316406 Z M 321.617188 200.683594 C 321.617188 198.964844 323.039062 197.535156 324.757812 197.503906 C 330.714844 197.40625 335.390625 197.363281 339.910156 197.363281 C 354.074219 197.363281 397.1875 197.363281 415.03125 208.992188 C 418.914062 211.523438 423.277344 216.921875 428.796875 223.757812 C 434.890625 231.300781 442.265625 240.433594 452.636719 250.492188 L 448.179688 256.460938 C 445.988281 259.398438 442.535156 261.128906 438.867188 261.128906 L 328.6875 261.101562 C 324.785156 261.097656 321.621094 257.9375 321.621094 254.035156 L 321.621094 200.683594 Z M 320.90625 276.933594 L 354.019531 276.933594 L 354.019531 283.109375 L 320.90625 283.109375 Z M 320.90625 276.933594 " fill-opacity="1" fill-rule="nonzero"/></g><g clip-path="url(#88879bcf2c)"><path fill="#000000" d="M 116.195312 341.953125 C 94.683594 341.953125 77.027344 358.390625 75.101562 379.378906 C 74.984375 380.632812 74.914062 381.90625 74.914062 383.199219 C 74.914062 405.976562 93.394531 424.441406 116.195312 424.441406 C 138.988281 424.441406 157.464844 405.976562 157.464844 383.199219 C 157.464844 381.910156 157.398438 380.632812 157.285156 379.378906 C 155.351562 358.386719 137.699219 341.953125 116.195312 341.953125 Z M 116.195312 409.972656 C 101.417969 409.972656 89.394531 397.960938 89.394531 383.199219 C 89.394531 382.414062 89.433594 381.601562 89.515625 380.707031 C 90.789062 366.859375 102.257812 356.417969 116.195312 356.417969 C 130.125 356.417969 141.59375 366.859375 142.867188 380.703125 C 142.945312 381.574219 142.984375 382.394531 142.984375 383.199219 C 142.984375 397.960938 130.96875 409.972656 116.195312 409.972656 Z M 116.195312 409.972656 " fill-opacity="1" fill-rule="nonzero"/></g><path fill="#000000" d="M 116.195312 370.886719 C 109.789062 370.886719 104.519531 375.675781 103.933594 382.046875 C 103.890625 382.484375 103.871094 382.859375 103.871094 383.199219 C 103.871094 389.984375 109.398438 395.507812 116.195312 395.507812 C 122.984375 395.507812 128.507812 389.984375 128.507812 383.199219 C 128.507812 382.839844 128.488281 382.449219 128.449219 382.027344 C 127.867188 375.675781 122.59375 370.886719 116.195312 370.886719 Z M 116.195312 370.886719 " fill-opacity="1" fill-rule="nonzero"/><g clip-path="url(#19e8e273ca)"><path fill="#000000" d="M 510.859375 341.953125 C 489.351562 341.953125 471.695312 358.390625 469.765625 379.378906 C 469.652344 380.632812 469.582031 381.90625 469.582031 383.199219 C 469.582031 405.976562 488.0625 424.441406 510.859375 424.441406 C 533.652344 424.441406 552.128906 405.976562 552.128906 383.199219 C 552.128906 381.910156 552.066406 380.632812 551.949219 379.378906 C 550.019531 358.386719 532.363281 341.953125 510.859375 341.953125 Z M 510.859375 409.972656 C 496.082031 409.972656 484.0625 397.960938 484.0625 383.199219 C 484.0625 382.414062 484.101562 381.601562 484.183594 380.707031 C 485.457031 366.859375 496.925781 356.417969 510.859375 356.417969 C 524.792969 356.417969 536.257812 366.859375 537.53125 380.703125 C 537.613281 381.574219 537.652344 382.394531 537.652344 383.199219 C 537.652344 397.960938 525.632812 409.972656 510.859375 409.972656 Z M 510.859375 409.972656 " fill-opacity="1" fill-rule="nonzero"/></g><path fill="#000000" d="M 510.859375 370.886719 C 504.457031 370.886719 499.1875 375.675781 498.597656 382.046875 C 498.558594 382.484375 498.539062 382.859375 498.539062 383.199219 C 498.539062 389.984375 504.066406 395.507812 510.859375 395.507812 C 517.648438 395.507812 523.171875 389.984375 523.171875 383.199219 C 523.171875 382.839844 523.152344 382.449219 523.117188 382.027344 C 522.53125 375.675781 517.261719 370.886719 510.859375 370.886719 Z M 510.859375 370.886719 " fill-opacity="1" fill-rule="nonzero"/></svg>