<svg xmlns="http://www.w3.org/2000/svg" xmlns:xlink="http://www.w3.org/1999/xlink" width="816" zoomAndPan="magnify" viewBox="0 0 612 611.999999" height="816" preserveAspectRatio="xMidYMid meet" version="1.0"><defs><clipPath id="8e800128de"><path d="M 32.296875 544 L 579.796875 544 L 579.796875 583.878906 L 32.296875 583.878906 Z M 32.296875 544 " clip-rule="nonzero"/></clipPath><clipPath id="eb7ec21512"><path d="M 90 28.128906 L 247 28.128906 L 247 545 L 90 545 Z M 90 28.128906 " clip-rule="nonzero"/></clipPath><clipPath id="7623c57a53"><path d="M 246 28.128906 L 400 28.128906 L 400 545 L 246 545 Z M 246 28.128906 " clip-rule="nonzero"/></clipPath></defs><g clip-path="url(#8e800128de)"><path fill="#6c0633" d="M 579.5625 544.445312 L 521.789062 544.445312 L 521.789062 544.503906 L 308.269531 544.503906 L 308.269531 544.445312 L 32.445312 544.445312 L 32.445312 583.890625 L 579.5625 583.890625 L 579.5625 544.445312 " fill-opacity="1" fill-rule="nonzero"/></g><g clip-path="url(#eb7ec21512)"><path fill="#6c0633" d="M 228.230469 102.332031 L 101.425781 165.4375 L 101.425781 137.84375 L 228.230469 74.738281 Z M 228.230469 156.71875 L 101.425781 209.472656 L 101.425781 182.363281 L 228.230469 125.050781 Z M 228.230469 209.472656 L 101.425781 255.878906 L 101.425781 229.277344 L 228.230469 178.574219 Z M 228.230469 259.984375 L 101.425781 299.894531 L 101.425781 273.757812 L 228.230469 229.980469 Z M 228.230469 310.261719 L 101.425781 341.855469 L 101.425781 316.261719 L 228.230469 278.671875 Z M 228.230469 364.765625 L 101.425781 384.214844 L 101.425781 358.042969 L 228.230469 329.800781 Z M 228.230469 415.746094 L 101.425781 426.550781 L 101.425781 399.59375 L 228.230469 384.214844 Z M 228.230469 465.960938 L 101.425781 470.753906 L 101.425781 444.152344 L 228.230469 434.882812 Z M 228.230469 513.5 L 101.425781 515.238281 L 101.425781 490.53125 L 228.230469 486.558594 Z M 90.214844 116.648438 L 90.214844 544.433594 L 246.578125 544.433594 L 246.578125 28.144531 L 90.214844 116.648438 " fill-opacity="1" fill-rule="nonzero"/></g><g clip-path="url(#7623c57a53)"><path fill="#54565b" d="M 261.988281 124.105469 L 387.972656 167.488281 L 387.972656 193.613281 L 261.988281 150.230469 Z M 261.988281 72.285156 L 387.972656 122.855469 L 387.972656 149.472656 L 261.988281 98.898438 Z M 261.988281 515.390625 L 261.988281 490.6875 L 308.273438 490.6875 L 308.273438 462.769531 L 261.988281 460.914062 L 261.988281 436.191406 L 308.273438 438.046875 L 308.273438 414.867188 L 261.988281 411.160156 L 261.988281 386.375 L 308.273438 390.085938 L 308.273438 364.292969 L 261.988281 358.199219 L 261.988281 333.28125 L 308.273438 339.378906 L 308.273438 313.410156 L 261.988281 303.894531 L 261.988281 278.671875 L 308.273438 288.191406 L 308.273438 265.59375 L 261.988281 253.644531 L 261.988281 228.128906 L 319.875 243.078125 L 348.21875 227.035156 L 261.988281 201.488281 L 261.988281 175.722656 L 378.089844 210.125 L 399.988281 197.730469 L 399.988281 100.421875 L 246.578125 28.144531 L 246.578125 544.433594 L 308.273438 544.433594 L 308.273438 515.390625 L 261.988281 515.390625 " fill-opacity="1" fill-rule="nonzero"/></g><path fill="#6c0633" d="M 317.167969 506.671875 L 402.230469 503.9375 L 402.230469 522.496094 L 317.167969 523.691406 Z M 317.167969 474.726562 L 402.230469 470.40625 L 402.230469 489.75 L 317.167969 493.050781 Z M 402.230469 433.441406 L 402.230469 455.160156 L 317.167969 462.597656 L 317.167969 445.46875 Z M 402.230469 399.59375 L 402.230469 419.214844 L 317.167969 434.882812 L 317.167969 417.515625 Z M 317.167969 386.632812 L 402.230469 360.738281 L 402.230469 382.5 L 317.167969 404.257812 Z M 317.167969 357.355469 L 402.230469 327.199219 L 402.230469 347.867188 L 317.167969 375.355469 Z M 317.167969 326.71875 L 402.230469 291.789062 L 402.230469 313.074219 L 317.167969 345.039062 Z M 402.230469 254.917969 L 402.230469 273.597656 L 317.167969 313.074219 L 317.167969 294.402344 Z M 317.167969 263.734375 L 402.230469 220.265625 L 402.230469 239.273438 L 317.167969 282.738281 Z M 416.046875 544.503906 L 416.046875 188.640625 L 399.988281 197.730469 L 378.089844 210.125 L 348.214844 227.039062 L 319.875 243.078125 L 308.269531 249.644531 L 308.269531 544.503906 L 416.046875 544.503906 " fill-opacity="1" fill-rule="nonzero"/><path fill="#54565b" d="M 426.671875 507.457031 L 513.507812 507.457031 L 513.507812 524.484375 L 426.671875 524.484375 Z M 426.671875 469.894531 L 513.507812 473.371094 L 513.507812 490.414062 L 426.671875 489.027344 Z M 426.671875 435.558594 L 513.507812 442.519531 L 513.507812 459.601562 L 426.671875 454.445312 Z M 426.671875 397.496094 L 513.507812 410.398438 L 513.507812 427.570312 L 426.671875 417.855469 Z M 426.671875 361.324219 L 513.507812 379.179688 L 513.507812 396.5625 L 426.671875 381.574219 Z M 426.671875 326.484375 L 513.507812 348.902344 L 513.507812 366.488281 L 426.671875 344.070312 Z M 426.671875 290.359375 L 513.507812 316.089844 L 513.507812 333.847656 L 426.671875 308.117188 Z M 426.671875 254.78125 L 513.507812 284.683594 L 513.507812 302.691406 L 426.671875 272.789062 Z M 426.671875 219.0625 L 513.507812 253.921875 L 513.507812 272.269531 L 426.671875 237.410156 Z M 416.050781 544.503906 L 521.792969 544.503906 L 521.792969 238.460938 L 416.050781 188.640625 L 416.050781 544.503906 " fill-opacity="1" fill-rule="nonzero"/></svg>