<svg xmlns="http://www.w3.org/2000/svg" xmlns:xlink="http://www.w3.org/1999/xlink" width="816" zoomAndPan="magnify" viewBox="0 0 612 611.999999" height="816" preserveAspectRatio="xMidYMid meet" version="1.0"><defs><clipPath id="73b4052a59"><path d="M 8 70.46875 L 604 70.46875 L 604 494 L 8 494 Z M 8 70.46875 " clip-rule="nonzero"/></clipPath><clipPath id="b5c3ecb221"><path d="M 32 452 L 122 452 L 122 541.46875 L 32 541.46875 Z M 32 452 " clip-rule="nonzero"/></clipPath><clipPath id="3653ddfd02"><path d="M 271 452 L 361 452 L 361 541.46875 L 271 541.46875 Z M 271 452 " clip-rule="nonzero"/></clipPath></defs><g clip-path="url(#73b4052a59)"><path fill="#000000" d="M 76.769531 439.738281 C 107.199219 439.738281 132.070312 463.542969 133.789062 493.539062 L 259.023438 493.539062 C 260.742188 463.546875 285.609375 439.738281 316.042969 439.738281 C 346.472656 439.738281 371.339844 463.542969 373.058594 493.539062 L 402.445312 493.539062 L 402.445312 474.503906 L 413.207031 474.503906 L 413.207031 460.210938 L 603.636719 447.84375 L 603.636719 435.425781 L 422.726562 435.425781 L 422.726562 353.652344 L 413.207031 353.652344 L 413.207031 104.484375 L 385.886719 104.484375 L 385.886719 424.003906 L 361.65625 424.003906 L 361.65625 320.535156 L 275.785156 83.578125 L 208.910156 83.578125 L 208.910156 70.46875 L 92.359375 70.46875 L 92.359375 83.578125 L 78.546875 83.578125 L 78.546875 327.980469 L 31.574219 327.980469 L 31.574219 352.566406 L 159.890625 352.566406 L 159.890625 361.824219 L 31.574219 361.824219 L 31.574219 372.691406 L 8.394531 372.691406 L 8.394531 479.472656 L 22.351562 479.472656 C 29.710938 456.433594 51.289062 439.738281 76.769531 439.738281 Z M 103.378906 306.804688 L 103.378906 108.410156 L 258.367188 108.410156 L 321.738281 283.285156 L 299.992188 283.285156 L 270.003906 254.21875 L 288.914062 234.710938 L 280.820312 226.867188 L 235.828125 273.28125 L 243.921875 281.125 L 262.15625 262.3125 L 296.476562 295.582031 L 296.476562 359.449219 L 287.402344 359.449219 L 257.246094 306.8125 L 103.378906 306.8125 Z M 103.378906 306.804688 " fill-opacity="1" fill-rule="nonzero"/></g><g clip-path="url(#b5c3ecb221)"><path fill="#000000" d="M 76.773438 452.15625 C 52.121094 452.15625 32.066406 472.210938 32.066406 496.855469 C 32.066406 521.503906 52.117188 541.5625 76.773438 541.5625 C 101.417969 541.5625 121.472656 521.507812 121.472656 496.855469 C 121.472656 472.210938 101.417969 452.15625 76.773438 452.15625 Z M 101.601562 496.855469 C 101.601562 510.554688 90.460938 521.691406 76.769531 521.691406 C 63.074219 521.691406 51.933594 510.554688 51.933594 496.855469 C 51.933594 483.160156 63.074219 472.019531 76.769531 472.019531 C 90.464844 472.019531 101.601562 483.160156 101.601562 496.855469 Z M 101.601562 496.855469 " fill-opacity="1" fill-rule="nonzero"/></g><path fill="#000000" d="M 85.253906 496.855469 C 85.253906 497.410156 85.199219 497.964844 85.089844 498.511719 C 84.980469 499.054688 84.820312 499.585938 84.609375 500.101562 C 84.394531 500.617188 84.132812 501.105469 83.824219 501.566406 C 83.515625 502.03125 83.164062 502.460938 82.769531 502.851562 C 82.375 503.246094 81.945312 503.597656 81.484375 503.90625 C 81.019531 504.21875 80.53125 504.480469 80.015625 504.691406 C 79.5 504.90625 78.972656 505.066406 78.425781 505.175781 C 77.878906 505.285156 77.328125 505.335938 76.769531 505.335938 C 76.210938 505.335938 75.660156 505.285156 75.113281 505.175781 C 74.570312 505.066406 74.039062 504.90625 73.523438 504.691406 C 73.007812 504.480469 72.519531 504.21875 72.058594 503.90625 C 71.59375 503.597656 71.164062 503.246094 70.769531 502.851562 C 70.378906 502.460938 70.027344 502.03125 69.714844 501.566406 C 69.40625 501.105469 69.144531 500.617188 68.933594 500.101562 C 68.71875 499.585938 68.558594 499.054688 68.449219 498.511719 C 68.339844 497.964844 68.285156 497.410156 68.285156 496.855469 C 68.285156 496.296875 68.339844 495.746094 68.449219 495.199219 C 68.558594 494.652344 68.71875 494.125 68.933594 493.609375 C 69.144531 493.09375 69.40625 492.605469 69.714844 492.140625 C 70.027344 491.679688 70.378906 491.25 70.769531 490.855469 C 71.164062 490.460938 71.59375 490.109375 72.058594 489.800781 C 72.519531 489.492188 73.007812 489.230469 73.523438 489.019531 C 74.039062 488.804688 74.570312 488.644531 75.113281 488.535156 C 75.660156 488.425781 76.210938 488.371094 76.769531 488.371094 C 77.328125 488.371094 77.878906 488.425781 78.425781 488.535156 C 78.972656 488.644531 79.5 488.804688 80.015625 489.019531 C 80.53125 489.230469 81.019531 489.492188 81.484375 489.800781 C 81.945312 490.109375 82.375 490.460938 82.769531 490.855469 C 83.164062 491.25 83.515625 491.679688 83.824219 492.140625 C 84.132812 492.605469 84.394531 493.09375 84.609375 493.609375 C 84.820312 494.125 84.980469 494.652344 85.089844 495.199219 C 85.199219 495.746094 85.253906 496.296875 85.253906 496.855469 Z M 85.253906 496.855469 " fill-opacity="1" fill-rule="nonzero"/><g clip-path="url(#3653ddfd02)"><path fill="#000000" d="M 316.046875 452.15625 C 291.394531 452.15625 271.339844 472.210938 271.339844 496.855469 C 271.339844 521.503906 291.390625 541.5625 316.046875 541.5625 C 340.691406 541.5625 360.746094 521.507812 360.746094 496.855469 C 360.746094 472.210938 340.691406 452.15625 316.046875 452.15625 Z M 340.875 496.855469 C 340.875 510.554688 329.734375 521.691406 316.042969 521.691406 C 302.347656 521.691406 291.207031 510.554688 291.207031 496.855469 C 291.207031 483.160156 302.347656 472.019531 316.042969 472.019531 C 329.734375 472.019531 340.875 483.160156 340.875 496.855469 Z M 340.875 496.855469 " fill-opacity="1" fill-rule="nonzero"/></g><path fill="#000000" d="M 324.523438 496.855469 C 324.523438 497.410156 324.46875 497.964844 324.363281 498.511719 C 324.253906 499.054688 324.09375 499.585938 323.878906 500.101562 C 323.664062 500.617188 323.40625 501.105469 323.09375 501.566406 C 322.785156 502.03125 322.433594 502.460938 322.039062 502.851562 C 321.644531 503.246094 321.21875 503.597656 320.753906 503.90625 C 320.292969 504.21875 319.800781 504.480469 319.289062 504.691406 C 318.773438 504.90625 318.242188 505.066406 317.695312 505.175781 C 317.148438 505.285156 316.597656 505.335938 316.042969 505.335938 C 315.484375 505.335938 314.933594 505.285156 314.386719 505.175781 C 313.839844 505.066406 313.308594 504.90625 312.792969 504.691406 C 312.28125 504.480469 311.789062 504.21875 311.328125 503.90625 C 310.863281 503.597656 310.4375 503.246094 310.042969 502.851562 C 309.648438 502.460938 309.296875 502.03125 308.988281 501.566406 C 308.675781 501.105469 308.417969 500.617188 308.203125 500.101562 C 307.988281 499.585938 307.828125 499.054688 307.71875 498.511719 C 307.613281 497.964844 307.558594 497.410156 307.558594 496.855469 C 307.558594 496.296875 307.613281 495.746094 307.71875 495.199219 C 307.828125 494.652344 307.988281 494.125 308.203125 493.609375 C 308.417969 493.09375 308.675781 492.605469 308.988281 492.140625 C 309.296875 491.679688 309.648438 491.25 310.042969 490.855469 C 310.4375 490.460938 310.863281 490.109375 311.328125 489.800781 C 311.789062 489.492188 312.28125 489.230469 312.792969 489.019531 C 313.308594 488.804688 313.839844 488.644531 314.386719 488.535156 C 314.933594 488.425781 315.484375 488.371094 316.042969 488.371094 C 316.597656 488.371094 317.148438 488.425781 317.695312 488.535156 C 318.242188 488.644531 318.773438 488.804688 319.289062 489.019531 C 319.800781 489.230469 320.292969 489.492188 320.753906 489.800781 C 321.21875 490.109375 321.644531 490.460938 322.039062 490.855469 C 322.433594 491.25 322.785156 491.679688 323.09375 492.140625 C 323.40625 492.605469 323.664062 493.09375 323.878906 493.609375 C 324.09375 494.125 324.253906 494.652344 324.363281 495.199219 C 324.46875 495.746094 324.523438 496.296875 324.523438 496.855469 Z M 324.523438 496.855469 " fill-opacity="1" fill-rule="nonzero"/></svg>