<svg xmlns="http://www.w3.org/2000/svg" xmlns:xlink="http://www.w3.org/1999/xlink" width="816" zoomAndPan="magnify" viewBox="0 0 612 611.999999" height="816" preserveAspectRatio="xMidYMid meet" version="1.0"><defs><clipPath id="2ff81afdea"><path d="M 8 70.46875 L 604 70.46875 L 604 494 L 8 494 Z M 8 70.46875 " clip-rule="nonzero"/></clipPath><clipPath id="1fc74bc8b1"><path d="M 32 452 L 122 452 L 122 541.46875 L 32 541.46875 Z M 32 452 " clip-rule="nonzero"/></clipPath><clipPath id="aebff65c50"><path d="M 271 452 L 361 452 L 361 541.46875 L 271 541.46875 Z M 271 452 " clip-rule="nonzero"/></clipPath></defs><g clip-path="url(#2ff81afdea)"><path fill="#ffffff" d="M 76.773438 439.785156 C 107.203125 439.785156 132.074219 463.59375 133.792969 493.59375 L 259.03125 493.59375 C 260.75 463.59375 285.621094 439.785156 316.054688 439.785156 C 346.484375 439.785156 371.355469 463.59375 373.074219 493.59375 L 402.460938 493.59375 L 402.460938 474.554688 L 413.222656 474.554688 L 413.222656 460.257812 L 603.660156 447.890625 L 603.660156 435.472656 L 422.742188 435.472656 L 422.742188 353.6875 L 413.222656 353.6875 L 413.222656 104.488281 L 385.902344 104.488281 L 385.902344 424.046875 L 361.667969 424.046875 L 361.667969 320.566406 L 275.792969 83.582031 L 208.917969 83.582031 L 208.917969 70.46875 L 92.363281 70.46875 L 92.363281 83.582031 L 78.550781 83.582031 L 78.550781 328.015625 L 31.574219 328.015625 L 31.574219 352.601562 L 159.894531 352.601562 L 159.894531 361.859375 L 31.574219 361.859375 L 31.574219 372.726562 L 8.394531 372.726562 L 8.394531 479.523438 L 22.351562 479.523438 C 29.710938 456.480469 51.289062 439.785156 76.773438 439.785156 Z M 103.382812 306.835938 L 103.382812 108.414062 L 258.375 108.414062 L 321.753906 283.308594 L 300.003906 283.308594 L 270.015625 254.242188 L 288.925781 234.730469 L 280.832031 226.886719 L 235.835938 273.308594 L 243.933594 281.152344 L 262.167969 262.339844 L 296.488281 295.609375 L 296.488281 359.484375 L 287.414062 359.484375 L 257.253906 306.839844 L 103.382812 306.839844 Z M 103.382812 306.835938 " fill-opacity="1" fill-rule="nonzero"/></g><g clip-path="url(#1fc74bc8b1)"><path fill="#ffffff" d="M 76.773438 452.203125 C 52.121094 452.203125 32.066406 472.261719 32.066406 496.90625 C 32.066406 521.558594 52.121094 541.621094 76.773438 541.621094 C 101.421875 541.621094 121.476562 521.5625 121.476562 496.90625 C 121.476562 472.261719 101.421875 452.203125 76.773438 452.203125 Z M 101.605469 496.90625 C 101.605469 510.609375 90.464844 521.746094 76.773438 521.746094 C 63.074219 521.746094 51.933594 510.609375 51.933594 496.90625 C 51.933594 483.210938 63.074219 472.070312 76.773438 472.070312 C 90.46875 472.070312 101.605469 483.210938 101.605469 496.90625 Z M 101.605469 496.90625 " fill-opacity="1" fill-rule="nonzero"/></g><path fill="#ffffff" d="M 85.257812 496.90625 C 85.257812 497.464844 85.203125 498.015625 85.09375 498.5625 C 84.984375 499.109375 84.824219 499.640625 84.609375 500.15625 C 84.398438 500.667969 84.136719 501.15625 83.828125 501.621094 C 83.515625 502.085938 83.164062 502.511719 82.773438 502.90625 C 82.378906 503.300781 81.949219 503.652344 81.484375 503.960938 C 81.023438 504.273438 80.535156 504.53125 80.019531 504.746094 C 79.503906 504.960938 78.972656 505.121094 78.429688 505.230469 C 77.882812 505.335938 77.328125 505.390625 76.773438 505.390625 C 76.214844 505.390625 75.664062 505.335938 75.117188 505.230469 C 74.570312 505.121094 74.039062 504.960938 73.527344 504.746094 C 73.011719 504.53125 72.523438 504.273438 72.058594 503.960938 C 71.597656 503.652344 71.167969 503.300781 70.773438 502.90625 C 70.378906 502.511719 70.027344 502.085938 69.71875 501.621094 C 69.410156 501.15625 69.148438 500.667969 68.933594 500.15625 C 68.722656 499.640625 68.558594 499.109375 68.453125 498.5625 C 68.34375 498.015625 68.289062 497.464844 68.289062 496.90625 C 68.289062 496.351562 68.34375 495.800781 68.453125 495.253906 C 68.558594 494.707031 68.722656 494.175781 68.933594 493.660156 C 69.148438 493.148438 69.410156 492.65625 69.71875 492.195312 C 70.027344 491.730469 70.378906 491.300781 70.773438 490.910156 C 71.167969 490.515625 71.597656 490.164062 72.058594 489.855469 C 72.523438 489.542969 73.011719 489.28125 73.527344 489.070312 C 74.039062 488.855469 74.570312 488.695312 75.117188 488.585938 C 75.664062 488.476562 76.214844 488.425781 76.773438 488.425781 C 77.328125 488.425781 77.882812 488.476562 78.429688 488.585938 C 78.972656 488.695312 79.503906 488.855469 80.019531 489.070312 C 80.535156 489.28125 81.023438 489.542969 81.484375 489.855469 C 81.949219 490.164062 82.378906 490.515625 82.773438 490.910156 C 83.164062 491.300781 83.515625 491.730469 83.828125 492.195312 C 84.136719 492.65625 84.398438 493.148438 84.609375 493.660156 C 84.824219 494.175781 84.984375 494.707031 85.09375 495.253906 C 85.203125 495.800781 85.257812 496.351562 85.257812 496.90625 Z M 85.257812 496.90625 " fill-opacity="1" fill-rule="nonzero"/><g clip-path="url(#aebff65c50)"><path fill="#ffffff" d="M 316.058594 452.203125 C 291.40625 452.203125 271.347656 472.261719 271.347656 496.90625 C 271.347656 521.558594 291.402344 541.621094 316.058594 541.621094 C 340.707031 541.621094 360.757812 521.5625 360.757812 496.90625 C 360.757812 472.261719 340.707031 452.203125 316.058594 452.203125 Z M 340.890625 496.90625 C 340.890625 510.609375 329.75 521.746094 316.054688 521.746094 C 302.359375 521.746094 291.21875 510.609375 291.21875 496.90625 C 291.21875 483.210938 302.359375 472.070312 316.054688 472.070312 C 329.75 472.070312 340.890625 483.210938 340.890625 496.90625 Z M 340.890625 496.90625 " fill-opacity="1" fill-rule="nonzero"/></g><path fill="#ffffff" d="M 324.539062 496.90625 C 324.539062 497.464844 324.484375 498.015625 324.375 498.5625 C 324.265625 499.109375 324.105469 499.640625 323.890625 500.15625 C 323.679688 500.667969 323.417969 501.15625 323.105469 501.621094 C 322.796875 502.085938 322.445312 502.511719 322.050781 502.90625 C 321.660156 503.300781 321.230469 503.652344 320.765625 503.960938 C 320.304688 504.273438 319.816406 504.53125 319.300781 504.746094 C 318.785156 504.960938 318.253906 505.121094 317.707031 505.230469 C 317.160156 505.335938 316.609375 505.390625 316.054688 505.390625 C 315.496094 505.390625 314.945312 505.335938 314.398438 505.230469 C 313.851562 505.121094 313.320312 504.960938 312.804688 504.746094 C 312.292969 504.53125 311.804688 504.273438 311.339844 503.960938 C 310.875 503.652344 310.449219 503.300781 310.054688 502.90625 C 309.660156 502.511719 309.308594 502.085938 309 501.621094 C 308.691406 501.15625 308.429688 500.667969 308.214844 500.15625 C 308 499.640625 307.839844 499.109375 307.730469 498.5625 C 307.625 498.015625 307.570312 497.464844 307.570312 496.90625 C 307.570312 496.351562 307.625 495.800781 307.730469 495.253906 C 307.839844 494.707031 308 494.175781 308.214844 493.660156 C 308.429688 493.148438 308.691406 492.65625 309 492.195312 C 309.308594 491.730469 309.660156 491.300781 310.054688 490.910156 C 310.449219 490.515625 310.875 490.164062 311.339844 489.855469 C 311.804688 489.542969 312.292969 489.28125 312.804688 489.070312 C 313.320312 488.855469 313.851562 488.695312 314.398438 488.585938 C 314.945312 488.476562 315.496094 488.425781 316.054688 488.425781 C 316.609375 488.425781 317.160156 488.476562 317.707031 488.585938 C 318.253906 488.695312 318.785156 488.855469 319.300781 489.070312 C 319.816406 489.28125 320.304688 489.542969 320.765625 489.855469 C 321.230469 490.164062 321.660156 490.515625 322.050781 490.910156 C 322.445312 491.300781 322.796875 491.730469 323.105469 492.195312 C 323.417969 492.65625 323.679688 493.148438 323.890625 493.660156 C 324.105469 494.175781 324.265625 494.707031 324.375 495.253906 C 324.484375 495.800781 324.539062 496.351562 324.539062 496.90625 Z M 324.539062 496.90625 " fill-opacity="1" fill-rule="nonzero"/></svg>