<svg xmlns="http://www.w3.org/2000/svg" xmlns:xlink="http://www.w3.org/1999/xlink" width="816" zoomAndPan="magnify" viewBox="0 0 612 611.999999" height="816" preserveAspectRatio="xMidYMid meet" version="1.0"><defs><clipPath id="b2cdf7f093"><path d="M 277 361 L 602.265625 361 L 602.265625 479 L 277 479 Z M 277 361 " clip-rule="nonzero"/></clipPath><clipPath id="d430223535"><path d="M 311 447 L 365 447 L 365 499.714844 L 311 499.714844 Z M 311 447 " clip-rule="nonzero"/></clipPath><clipPath id="2a5d79a409"><path d="M 519 447 L 573 447 L 573 499.714844 L 519 499.714844 Z M 519 447 " clip-rule="nonzero"/></clipPath><clipPath id="f4a39064df"><path d="M 9.765625 460 L 252 460 L 252 467 L 9.765625 467 Z M 9.765625 460 " clip-rule="nonzero"/></clipPath></defs><path fill="#000000" d="M 55.339844 229.265625 L 69.144531 222.441406 L 69.144531 392.941406 L 18.042969 392.941406 L 18.042969 405.773438 L 268.25 405.773438 L 268.25 346.921875 L 255.90625 346.921875 L 255.90625 379.046875 L 247.578125 379.046875 L 247.578125 341.003906 L 207.101562 341.003906 L 207.101562 344.121094 L 229.625 344.121094 L 229.625 346.921875 L 207.101562 346.921875 L 207.101562 379.046875 L 198.773438 379.046875 L 198.773438 341.003906 L 158.296875 341.003906 L 158.296875 344.121094 L 180.820312 344.121094 L 180.820312 346.921875 L 158.296875 346.921875 L 158.296875 379.046875 L 149.972656 379.046875 L 149.972656 341.003906 L 109.492188 341.003906 L 109.492188 344.121094 L 132.015625 344.121094 L 132.015625 346.921875 L 109.492188 346.921875 L 109.492188 379.046875 L 84.207031 379.046875 L 84.207031 214.996094 L 228.835938 143.5 L 370.472656 212.347656 L 370.472656 310.042969 L 385.535156 310.042969 L 385.535156 219.671875 L 399.421875 226.421875 L 411.777344 201.046875 L 228.730469 112.070312 L 42.816406 203.972656 Z M 55.339844 229.265625 " fill-opacity="1" fill-rule="nonzero"/><path fill="#000000" d="M 255.90625 341.003906 L 268.25 341.003906 L 268.25 344.121094 L 255.90625 344.121094 Z M 255.90625 341.003906 " fill-opacity="1" fill-rule="nonzero"/><path fill="#000000" d="M 158.296875 295.894531 L 180.820312 295.894531 L 180.820312 298.695312 L 158.296875 298.695312 L 158.296875 333.21875 L 198.773438 333.21875 L 198.773438 292.777344 L 158.296875 292.777344 Z M 158.296875 295.894531 " fill-opacity="1" fill-rule="nonzero"/><path fill="#000000" d="M 109.492188 295.894531 L 132.015625 295.894531 L 132.015625 298.695312 L 109.492188 298.695312 L 109.492188 333.21875 L 149.972656 333.21875 L 149.972656 292.777344 L 109.492188 292.777344 Z M 109.492188 295.894531 " fill-opacity="1" fill-rule="nonzero"/><path fill="#000000" d="M 207.101562 295.894531 L 229.625 295.894531 L 229.625 298.695312 L 207.101562 298.695312 L 207.101562 333.21875 L 247.578125 333.21875 L 247.578125 292.777344 L 207.101562 292.777344 Z M 207.101562 295.894531 " fill-opacity="1" fill-rule="nonzero"/><path fill="#000000" d="M 255.90625 292.777344 L 255.90625 295.894531 L 278.429688 295.894531 L 278.429688 298.695312 L 255.90625 298.695312 L 255.90625 333.21875 L 268.25 333.21875 L 268.25 310.042969 L 296.382812 310.042969 L 296.382812 292.777344 Z M 255.90625 292.777344 " fill-opacity="1" fill-rule="nonzero"/><path fill="#000000" d="M 304.710938 292.777344 L 304.710938 295.894531 L 327.234375 295.894531 L 327.234375 298.695312 L 304.710938 298.695312 L 304.710938 310.042969 L 345.1875 310.042969 L 345.1875 292.777344 Z M 304.710938 292.777344 " fill-opacity="1" fill-rule="nonzero"/><path fill="#000000" d="M 223.175781 196.324219 L 182.699219 196.324219 L 182.699219 199.445312 L 205.222656 199.445312 L 205.222656 202.242188 L 182.699219 202.242188 L 182.699219 236.769531 L 223.175781 236.769531 Z M 223.175781 196.324219 " fill-opacity="1" fill-rule="nonzero"/><path fill="#000000" d="M 271.980469 196.324219 L 231.503906 196.324219 L 231.503906 199.445312 L 254.027344 199.445312 L 254.027344 202.242188 L 231.503906 202.242188 L 231.503906 236.769531 L 271.980469 236.769531 Z M 271.980469 196.324219 " fill-opacity="1" fill-rule="nonzero"/><path fill="#000000" d="M 158.296875 247.671875 L 180.820312 247.671875 L 180.820312 250.46875 L 158.296875 250.46875 L 158.296875 284.996094 L 198.773438 284.996094 L 198.773438 244.550781 L 158.296875 244.550781 Z M 158.296875 247.671875 " fill-opacity="1" fill-rule="nonzero"/><path fill="#000000" d="M 109.492188 247.671875 L 132.015625 247.671875 L 132.015625 250.46875 L 109.492188 250.46875 L 109.492188 284.996094 L 149.972656 284.996094 L 149.972656 244.550781 L 109.492188 244.550781 Z M 109.492188 247.671875 " fill-opacity="1" fill-rule="nonzero"/><path fill="#000000" d="M 207.101562 247.671875 L 229.625 247.671875 L 229.625 250.46875 L 207.101562 250.46875 L 207.101562 284.996094 L 247.578125 284.996094 L 247.578125 244.550781 L 207.101562 244.550781 Z M 207.101562 247.671875 " fill-opacity="1" fill-rule="nonzero"/><path fill="#000000" d="M 255.90625 247.671875 L 278.429688 247.671875 L 278.429688 250.46875 L 255.90625 250.46875 L 255.90625 284.996094 L 296.382812 284.996094 L 296.382812 244.550781 L 255.90625 244.550781 Z M 255.90625 247.671875 " fill-opacity="1" fill-rule="nonzero"/><path fill="#000000" d="M 345.1875 244.550781 L 304.710938 244.550781 L 304.710938 247.671875 L 327.234375 247.671875 L 327.234375 250.46875 L 304.710938 250.46875 L 304.710938 284.996094 L 345.1875 284.996094 Z M 345.1875 244.550781 " fill-opacity="1" fill-rule="nonzero"/><path fill="#000000" d="M 277.664062 319.449219 L 487.15625 319.449219 L 487.15625 426.25 L 277.664062 426.25 Z M 277.664062 319.449219 " fill-opacity="1" fill-rule="nonzero"/><g clip-path="url(#b2cdf7f093)"><path fill="#000000" d="M 494.308594 432.886719 L 286.664062 432.886719 L 286.664062 444.230469 L 277.664062 444.230469 L 277.664062 465.8125 L 286.664062 465.8125 L 286.664062 472.136719 L 299.28125 472.136719 L 299.28125 478.679688 L 306.773438 478.679688 C 306.492188 476.984375 306.308594 475.253906 306.308594 473.476562 C 306.308594 455.953125 320.578125 441.695312 338.117188 441.695312 C 355.660156 441.695312 369.929688 455.953125 369.929688 473.476562 C 369.929688 475.253906 369.75 476.980469 369.46875 478.679688 L 376.957031 478.679688 L 376.957031 472.136719 L 507.023438 472.136719 L 507.023438 478.679688 L 514.515625 478.679688 C 514.234375 476.984375 514.050781 475.253906 514.050781 473.476562 C 514.050781 455.953125 528.320312 441.695312 545.863281 441.695312 C 563.402344 441.695312 577.675781 455.953125 577.675781 473.476562 C 577.675781 475.253906 577.492188 476.980469 577.210938 478.679688 L 584.703125 478.679688 L 584.703125 472.136719 L 588.105469 472.136719 C 592.011719 472.136719 595.296875 469.433594 596.246094 465.8125 L 602.21875 465.8125 L 602.21875 444.230469 L 596.550781 444.230469 L 596.550781 428.214844 C 596.550781 423.578125 594.777344 416.421875 592.609375 412.316406 L 569.753906 369.0625 C 567.585938 364.957031 562.011719 361.597656 557.367188 361.597656 L 502.753906 361.597656 C 500.308594 361.597656 498.117188 362.667969 496.570312 364.34375 C 495.179688 365.847656 494.308594 367.839844 494.308594 370.035156 Z M 527.453125 429.433594 L 508.339844 429.433594 L 508.339844 424.933594 L 527.453125 424.933594 Z M 562.285156 373 L 581.996094 410.308594 L 525.984375 410.308594 L 525.984375 370.035156 L 557.367188 370.035156 C 558.871094 370.035156 561.582031 371.671875 562.285156 373 Z M 521.476562 370.035156 L 521.476562 410.308594 L 502.753906 410.308594 L 502.753906 370.035156 Z M 521.476562 370.035156 " fill-opacity="1" fill-rule="nonzero"/></g><g clip-path="url(#d430223535)"><path fill="#000000" d="M 338.121094 499.636719 C 352.582031 499.636719 364.300781 487.925781 364.300781 473.480469 C 364.300781 459.035156 352.582031 447.324219 338.121094 447.324219 C 323.660156 447.324219 311.9375 459.035156 311.9375 473.480469 C 311.9375 487.925781 323.660156 499.636719 338.121094 499.636719 Z M 323.199219 473.476562 C 323.199219 465.257812 329.890625 458.574219 338.117188 458.574219 C 346.347656 458.574219 353.039062 465.257812 353.039062 473.476562 C 353.039062 481.699219 346.347656 488.386719 338.117188 488.386719 C 329.890625 488.386719 323.199219 481.699219 323.199219 473.476562 Z M 323.199219 473.476562 " fill-opacity="1" fill-rule="nonzero"/></g><path fill="#000000" d="M 343.519531 473.480469 C 343.519531 470.5 341.101562 468.085938 338.121094 468.085938 C 335.136719 468.085938 332.71875 470.5 332.71875 473.480469 C 332.71875 476.460938 335.136719 478.875 338.121094 478.875 C 341.101562 478.875 343.519531 476.460938 343.519531 473.480469 Z M 343.519531 473.480469 " fill-opacity="1" fill-rule="nonzero"/><g clip-path="url(#2a5d79a409)"><path fill="#000000" d="M 545.863281 499.636719 C 560.324219 499.636719 572.042969 487.925781 572.042969 473.480469 C 572.042969 459.035156 560.324219 447.324219 545.863281 447.324219 C 531.40625 447.324219 519.683594 459.035156 519.683594 473.480469 C 519.683594 487.925781 531.40625 499.636719 545.863281 499.636719 Z M 530.941406 473.476562 C 530.941406 465.257812 537.636719 458.574219 545.859375 458.574219 C 554.089844 458.574219 560.78125 465.257812 560.78125 473.476562 C 560.78125 481.699219 554.089844 488.386719 545.859375 488.386719 C 537.636719 488.386719 530.941406 481.699219 530.941406 473.476562 Z M 530.941406 473.476562 " fill-opacity="1" fill-rule="nonzero"/></g><path fill="#000000" d="M 551.261719 473.480469 C 551.261719 470.5 548.84375 468.085938 545.863281 468.085938 C 542.878906 468.085938 540.464844 470.5 540.464844 473.480469 C 540.464844 476.460938 542.878906 478.875 545.863281 478.875 C 548.84375 478.875 551.261719 476.460938 551.261719 473.480469 Z M 551.261719 473.480469 " fill-opacity="1" fill-rule="nonzero"/><g clip-path="url(#f4a39064df)"><path fill="#000000" d="M 9.765625 460.902344 L 251.644531 460.902344 L 251.644531 466.605469 L 9.765625 466.605469 Z M 9.765625 460.902344 " fill-opacity="1" fill-rule="nonzero"/></g><path fill="#000000" d="M 36.164062 447.117188 L 251.644531 447.117188 L 251.644531 452.824219 L 36.164062 452.824219 Z M 36.164062 447.117188 " fill-opacity="1" fill-rule="nonzero"/></svg>