<svg xmlns="http://www.w3.org/2000/svg" xmlns:xlink="http://www.w3.org/1999/xlink" width="816" zoomAndPan="magnify" viewBox="0 0 612 611.999999" height="816" preserveAspectRatio="xMidYMid meet" version="1.0"><defs><clipPath id="7638307e2b"><path d="M 17 187.480469 L 595 187.480469 L 595 389 L 17 389 Z M 17 187.480469 " clip-rule="nonzero"/></clipPath><clipPath id="9680354ce7"><path d="M 74 341 L 158 341 L 158 424.480469 L 74 424.480469 Z M 74 341 " clip-rule="nonzero"/></clipPath><clipPath id="5ba3f3c2db"><path d="M 469 341 L 552 341 L 552 424.480469 L 469 424.480469 Z M 469 341 " clip-rule="nonzero"/></clipPath></defs><g clip-path="url(#7638307e2b)"><path fill="#ffffff" d="M 22.742188 377.34375 L 58.398438 377.34375 C 58.203125 379.277344 58.101562 381.242188 58.101562 383.226562 L 58.101562 388.007812 L 67.667969 388.007812 L 67.667969 383.226562 C 67.667969 356.496094 89.410156 334.753906 116.136719 334.753906 C 142.863281 334.753906 164.605469 356.5 164.605469 383.226562 L 164.605469 388.007812 L 174.171875 388.007812 L 174.171875 383.226562 C 174.171875 381.238281 174.070312 379.277344 173.875 377.34375 L 452.851562 377.34375 C 452.65625 379.277344 452.554688 381.242188 452.554688 383.226562 L 452.554688 388.007812 L 462.121094 388.007812 L 462.121094 383.226562 C 462.121094 356.496094 483.863281 334.753906 510.589844 334.753906 C 537.316406 334.753906 559.058594 356.5 559.058594 383.226562 L 559.058594 388.007812 L 568.625 388.007812 L 568.625 383.226562 C 568.625 381.238281 568.523438 379.277344 568.328125 377.34375 L 589.386719 377.34375 C 596.835938 377.34375 596.835938 350.257812 589.386719 350.257812 L 580.839844 350.257812 L 580.839844 302.160156 C 580.839844 290.351562 572.261719 280.289062 560.601562 278.425781 L 487.097656 266.671875 C 444.613281 236.945312 433.839844 209.988281 420.042969 200.984375 C 399.425781 187.542969 322.621094 187.433594 292.085938 187.945312 C 285.136719 188.0625 279.570312 193.730469 279.570312 200.683594 L 279.570312 265.339844 L 42.910156 265.339844 C 35.570312 265.339844 29.621094 271.289062 29.621094 278.628906 L 29.621094 350.257812 L 22.742188 350.257812 C 15.292969 350.257812 15.292969 377.34375 22.742188 377.34375 Z M 321.453125 200.683594 C 321.453125 198.964844 322.871094 197.535156 324.589844 197.507812 C 330.542969 197.410156 335.214844 197.363281 339.734375 197.363281 C 353.890625 197.363281 396.980469 197.363281 414.816406 208.996094 C 418.695312 211.527344 423.054688 216.925781 428.574219 223.765625 C 434.660156 231.308594 442.035156 240.441406 452.398438 250.5 L 447.945312 256.472656 C 445.753906 259.410156 442.300781 261.136719 438.636719 261.136719 L 328.515625 261.109375 C 324.617188 261.109375 321.453125 257.949219 321.453125 254.046875 Z M 320.742188 276.949219 L 353.835938 276.949219 L 353.835938 283.125 L 320.742188 283.125 Z M 320.742188 276.949219 " fill-opacity="1" fill-rule="nonzero"/></g><g clip-path="url(#9680354ce7)"><path fill="#ffffff" d="M 116.140625 341.972656 C 94.640625 341.972656 76.996094 358.414062 75.066406 379.40625 C 74.953125 380.664062 74.882812 381.9375 74.882812 383.226562 C 74.882812 406.007812 93.351562 424.476562 116.140625 424.476562 C 138.917969 424.476562 157.386719 406.007812 157.386719 383.226562 C 157.386719 381.9375 157.320312 380.664062 157.207031 379.40625 C 155.277344 358.414062 137.632812 341.972656 116.140625 341.972656 Z M 116.140625 410.007812 C 101.371094 410.007812 89.355469 397.992188 89.355469 383.226562 C 89.355469 382.445312 89.394531 381.628906 89.476562 380.734375 C 90.75 366.886719 102.210938 356.445312 116.140625 356.445312 C 130.0625 356.445312 141.523438 366.886719 142.796875 380.730469 C 142.875 381.605469 142.914062 382.421875 142.914062 383.226562 C 142.914062 397.992188 130.90625 410.007812 116.140625 410.007812 Z M 116.140625 410.007812 " fill-opacity="1" fill-rule="nonzero"/></g><path fill="#ffffff" d="M 116.140625 370.914062 C 109.738281 370.914062 104.46875 375.703125 103.882812 382.074219 C 103.84375 382.515625 103.824219 382.890625 103.824219 383.226562 C 103.824219 390.015625 109.347656 395.539062 116.140625 395.539062 C 122.925781 395.539062 128.445312 390.015625 128.445312 383.226562 C 128.445312 382.871094 128.425781 382.480469 128.386719 382.054688 C 127.804688 375.703125 122.539062 370.914062 116.140625 370.914062 Z M 116.140625 370.914062 " fill-opacity="1" fill-rule="nonzero"/><g clip-path="url(#5ba3f3c2db)"><path fill="#ffffff" d="M 510.589844 341.972656 C 489.09375 341.972656 471.449219 358.414062 469.519531 379.40625 C 469.402344 380.664062 469.335938 381.9375 469.335938 383.226562 C 469.335938 406.007812 487.804688 424.476562 510.589844 424.476562 C 533.371094 424.476562 551.839844 406.007812 551.839844 383.226562 C 551.839844 381.9375 551.773438 380.664062 551.660156 379.40625 C 549.726562 358.414062 532.082031 341.972656 510.589844 341.972656 Z M 510.589844 410.007812 C 495.820312 410.007812 483.804688 397.992188 483.804688 383.226562 C 483.804688 382.445312 483.847656 381.628906 483.929688 380.734375 C 485.199219 366.886719 496.664062 356.445312 510.589844 356.445312 C 524.515625 356.445312 535.976562 366.886719 537.25 380.730469 C 537.328125 381.605469 537.367188 382.421875 537.367188 383.226562 C 537.367188 397.992188 525.355469 410.007812 510.589844 410.007812 Z M 510.589844 410.007812 " fill-opacity="1" fill-rule="nonzero"/></g><path fill="#ffffff" d="M 510.589844 370.914062 C 504.1875 370.914062 498.921875 375.703125 498.335938 382.074219 C 498.292969 382.515625 498.277344 382.890625 498.277344 383.226562 C 498.277344 390.015625 503.800781 395.539062 510.589844 395.539062 C 517.378906 395.539062 522.898438 390.015625 522.898438 383.226562 C 522.898438 382.871094 522.878906 382.480469 522.839844 382.054688 C 522.257812 375.703125 516.988281 370.914062 510.589844 370.914062 Z M 510.589844 370.914062 " fill-opacity="1" fill-rule="nonzero"/></svg>