<svg xmlns="http://www.w3.org/2000/svg" xmlns:xlink="http://www.w3.org/1999/xlink" width="816" zoomAndPan="magnify" viewBox="0 0 612 611.999999" height="816" preserveAspectRatio="xMidYMid meet" version="1.0"><defs><clipPath id="6b15fb46b4"><path d="M 277 361 L 602.265625 361 L 602.265625 479 L 277 479 Z M 277 361 " clip-rule="nonzero"/></clipPath><clipPath id="1d049a86a2"><path d="M 311 447 L 365 447 L 365 499.714844 L 311 499.714844 Z M 311 447 " clip-rule="nonzero"/></clipPath><clipPath id="8e75081fc5"><path d="M 519 447 L 573 447 L 573 499.714844 L 519 499.714844 Z M 519 447 " clip-rule="nonzero"/></clipPath><clipPath id="27e7a117e8"><path d="M 9.765625 461 L 252 461 L 252 467 L 9.765625 467 Z M 9.765625 461 " clip-rule="nonzero"/></clipPath></defs><path fill="#54565b" d="M 55.339844 229.359375 L 69.140625 222.53125 L 69.140625 393.167969 L 18.042969 393.167969 L 18.042969 406.011719 L 268.234375 406.011719 L 268.234375 347.113281 L 255.890625 347.113281 L 255.890625 379.265625 L 247.566406 379.265625 L 247.566406 341.191406 L 207.089844 341.191406 L 207.089844 344.3125 L 229.613281 344.3125 L 229.613281 347.113281 L 207.089844 347.113281 L 207.089844 379.265625 L 198.765625 379.265625 L 198.765625 341.191406 L 158.289062 341.191406 L 158.289062 344.3125 L 180.8125 344.3125 L 180.8125 347.113281 L 158.289062 347.113281 L 158.289062 379.265625 L 149.960938 379.265625 L 149.960938 341.191406 L 109.484375 341.191406 L 109.484375 344.3125 L 132.007812 344.3125 L 132.007812 347.113281 L 109.484375 347.113281 L 109.484375 379.265625 L 84.203125 379.265625 L 84.203125 215.078125 L 228.820312 143.527344 L 370.453125 212.429688 L 370.453125 310.203125 L 385.515625 310.203125 L 385.515625 219.757812 L 399.398438 226.515625 L 411.753906 201.117188 L 228.71875 112.070312 L 42.8125 204.046875 Z M 55.339844 229.359375 " fill-opacity="1" fill-rule="nonzero"/><path fill="#54565b" d="M 255.890625 341.191406 L 268.234375 341.191406 L 268.234375 344.3125 L 255.890625 344.3125 Z M 255.890625 341.191406 " fill-opacity="1" fill-rule="nonzero"/><path fill="#54565b" d="M 158.289062 296.046875 L 180.8125 296.046875 L 180.8125 298.847656 L 158.289062 298.847656 L 158.289062 333.402344 L 198.765625 333.402344 L 198.765625 292.925781 L 158.289062 292.925781 Z M 158.289062 296.046875 " fill-opacity="1" fill-rule="nonzero"/><path fill="#54565b" d="M 109.484375 296.046875 L 132.007812 296.046875 L 132.007812 298.847656 L 109.484375 298.847656 L 109.484375 333.402344 L 149.960938 333.402344 L 149.960938 292.925781 L 109.484375 292.925781 Z M 109.484375 296.046875 " fill-opacity="1" fill-rule="nonzero"/><path fill="#54565b" d="M 207.089844 296.046875 L 229.613281 296.046875 L 229.613281 298.847656 L 207.089844 298.847656 L 207.089844 333.402344 L 247.566406 333.402344 L 247.566406 292.925781 L 207.089844 292.925781 Z M 207.089844 296.046875 " fill-opacity="1" fill-rule="nonzero"/><path fill="#54565b" d="M 255.890625 292.925781 L 255.890625 296.046875 L 278.414062 296.046875 L 278.414062 298.847656 L 255.890625 298.847656 L 255.890625 333.402344 L 268.234375 333.402344 L 268.234375 310.203125 L 296.367188 310.203125 L 296.367188 292.925781 Z M 255.890625 292.925781 " fill-opacity="1" fill-rule="nonzero"/><path fill="#54565b" d="M 304.691406 292.925781 L 304.691406 296.046875 L 327.214844 296.046875 L 327.214844 298.847656 L 304.691406 298.847656 L 304.691406 310.203125 L 345.167969 310.203125 L 345.167969 292.925781 Z M 304.691406 292.925781 " fill-opacity="1" fill-rule="nonzero"/><path fill="#54565b" d="M 223.164062 196.394531 L 182.6875 196.394531 L 182.6875 199.515625 L 205.210938 199.515625 L 205.210938 202.316406 L 182.6875 202.316406 L 182.6875 236.871094 L 223.164062 236.871094 Z M 223.164062 196.394531 " fill-opacity="1" fill-rule="nonzero"/><path fill="#54565b" d="M 271.964844 196.394531 L 231.488281 196.394531 L 231.488281 199.515625 L 254.011719 199.515625 L 254.011719 202.316406 L 231.488281 202.316406 L 231.488281 236.871094 L 271.964844 236.871094 Z M 271.964844 196.394531 " fill-opacity="1" fill-rule="nonzero"/><path fill="#54565b" d="M 158.289062 247.78125 L 180.8125 247.78125 L 180.8125 250.582031 L 158.289062 250.582031 L 158.289062 285.136719 L 198.765625 285.136719 L 198.765625 244.660156 L 158.289062 244.660156 Z M 158.289062 247.78125 " fill-opacity="1" fill-rule="nonzero"/><path fill="#54565b" d="M 109.484375 247.78125 L 132.007812 247.78125 L 132.007812 250.582031 L 109.484375 250.582031 L 109.484375 285.136719 L 149.960938 285.136719 L 149.960938 244.660156 L 109.484375 244.660156 Z M 109.484375 247.78125 " fill-opacity="1" fill-rule="nonzero"/><path fill="#54565b" d="M 207.089844 247.78125 L 229.613281 247.78125 L 229.613281 250.582031 L 207.089844 250.582031 L 207.089844 285.136719 L 247.566406 285.136719 L 247.566406 244.660156 L 207.089844 244.660156 Z M 207.089844 247.78125 " fill-opacity="1" fill-rule="nonzero"/><path fill="#54565b" d="M 255.890625 247.78125 L 278.414062 247.78125 L 278.414062 250.582031 L 255.890625 250.582031 L 255.890625 285.136719 L 296.367188 285.136719 L 296.367188 244.660156 L 255.890625 244.660156 Z M 255.890625 247.78125 " fill-opacity="1" fill-rule="nonzero"/><path fill="#54565b" d="M 345.167969 244.660156 L 304.691406 244.660156 L 304.691406 247.78125 L 327.214844 247.78125 L 327.214844 250.582031 L 304.691406 250.582031 L 304.691406 285.136719 L 345.167969 285.136719 Z M 345.167969 244.660156 " fill-opacity="1" fill-rule="nonzero"/><path fill="#54565b" d="M 277.648438 319.621094 L 487.128906 319.621094 L 487.128906 426.503906 L 277.648438 426.503906 Z M 277.648438 319.621094 " fill-opacity="1" fill-rule="nonzero"/><g clip-path="url(#6b15fb46b4)"><path fill="#54565b" d="M 494.28125 433.148438 L 286.644531 433.148438 L 286.644531 444.503906 L 277.648438 444.503906 L 277.648438 466.101562 L 286.644531 466.101562 L 286.644531 472.429688 L 299.265625 472.429688 L 299.265625 478.976562 L 306.753906 478.976562 C 306.472656 477.28125 306.289062 475.550781 306.289062 473.773438 C 306.289062 456.234375 320.558594 441.964844 338.097656 441.964844 C 355.636719 441.964844 369.910156 456.234375 369.910156 473.773438 C 369.910156 475.550781 369.726562 477.28125 369.445312 478.976562 L 376.9375 478.976562 L 376.9375 472.429688 L 506.996094 472.429688 L 506.996094 478.976562 L 514.484375 478.976562 C 514.203125 477.28125 514.023438 475.550781 514.023438 473.773438 C 514.023438 456.234375 528.289062 441.964844 545.828125 441.964844 C 563.371094 441.964844 577.640625 456.234375 577.640625 473.773438 C 577.640625 475.550781 577.457031 477.28125 577.175781 478.976562 L 584.667969 478.976562 L 584.667969 472.429688 L 588.070312 472.429688 C 591.980469 472.429688 595.261719 469.722656 596.210938 466.101562 L 602.183594 466.101562 L 602.183594 444.503906 L 596.515625 444.503906 L 596.515625 428.472656 C 596.515625 423.832031 594.742188 416.667969 592.574219 412.5625 L 569.71875 369.269531 C 567.550781 365.164062 561.980469 361.800781 557.332031 361.800781 L 502.722656 361.800781 C 500.277344 361.800781 498.085938 362.871094 496.542969 364.546875 C 495.152344 366.054688 494.28125 368.046875 494.28125 370.246094 Z M 527.421875 429.695312 L 508.308594 429.695312 L 508.308594 425.191406 L 527.421875 425.191406 Z M 562.25 373.210938 L 581.964844 410.550781 L 525.953125 410.550781 L 525.953125 370.246094 L 557.332031 370.246094 C 558.839844 370.246094 561.550781 371.886719 562.25 373.210938 Z M 521.449219 370.246094 L 521.449219 410.550781 L 502.722656 410.550781 L 502.722656 370.246094 Z M 521.449219 370.246094 " fill-opacity="1" fill-rule="nonzero"/></g><g clip-path="url(#1d049a86a2)"><path fill="#54565b" d="M 338.101562 499.953125 C 352.558594 499.953125 364.28125 488.230469 364.28125 473.773438 C 364.28125 459.316406 352.558594 447.597656 338.101562 447.597656 C 323.644531 447.597656 311.921875 459.316406 311.921875 473.773438 C 311.921875 488.230469 323.644531 499.953125 338.101562 499.953125 Z M 323.179688 473.773438 C 323.179688 465.546875 329.875 458.855469 338.097656 458.855469 C 346.328125 458.855469 353.019531 465.546875 353.019531 473.773438 C 353.019531 482 346.328125 488.695312 338.097656 488.695312 C 329.875 488.695312 323.179688 482 323.179688 473.773438 Z M 323.179688 473.773438 " fill-opacity="1" fill-rule="nonzero"/></g><path fill="#54565b" d="M 343.5 473.773438 C 343.5 470.792969 341.082031 468.375 338.101562 468.375 C 335.117188 468.375 332.699219 470.792969 332.699219 473.773438 C 332.699219 476.757812 335.117188 479.175781 338.101562 479.175781 C 341.082031 479.175781 343.5 476.757812 343.5 473.773438 Z M 343.5 473.773438 " fill-opacity="1" fill-rule="nonzero"/><g clip-path="url(#8e75081fc5)"><path fill="#54565b" d="M 545.832031 499.953125 C 560.289062 499.953125 572.011719 488.230469 572.011719 473.773438 C 572.011719 459.316406 560.289062 447.597656 545.832031 447.597656 C 531.375 447.597656 519.652344 459.316406 519.652344 473.773438 C 519.652344 488.230469 531.375 499.953125 545.832031 499.953125 Z M 530.914062 473.773438 C 530.914062 465.546875 537.605469 458.855469 545.828125 458.855469 C 554.058594 458.855469 560.75 465.546875 560.75 473.773438 C 560.75 482 554.058594 488.695312 545.828125 488.695312 C 537.605469 488.695312 530.914062 482 530.914062 473.773438 Z M 530.914062 473.773438 " fill-opacity="1" fill-rule="nonzero"/></g><path fill="#54565b" d="M 551.230469 473.773438 C 551.230469 470.792969 548.8125 468.375 545.832031 468.375 C 542.847656 468.375 540.429688 470.792969 540.429688 473.773438 C 540.429688 476.757812 542.847656 479.175781 545.832031 479.175781 C 548.8125 479.175781 551.230469 476.757812 551.230469 473.773438 Z M 551.230469 473.773438 " fill-opacity="1" fill-rule="nonzero"/><g clip-path="url(#27e7a117e8)"><path fill="#54565b" d="M 9.765625 461.1875 L 251.628906 461.1875 L 251.628906 466.894531 L 9.765625 466.894531 Z M 9.765625 461.1875 " fill-opacity="1" fill-rule="nonzero"/></g><path fill="#54565b" d="M 36.160156 447.394531 L 251.628906 447.394531 L 251.628906 453.101562 L 36.160156 453.101562 Z M 36.160156 447.394531 " fill-opacity="1" fill-rule="nonzero"/></svg>