<svg xmlns="http://www.w3.org/2000/svg" xmlns:xlink="http://www.w3.org/1999/xlink" width="816" zoomAndPan="magnify" viewBox="0 0 612 611.999999" height="816" preserveAspectRatio="xMidYMid meet" version="1.0"><defs><clipPath id="b33e54d263"><path d="M 25 84.503906 L 587 84.503906 L 587 198 L 25 198 Z M 25 84.503906 " clip-rule="nonzero"/></clipPath><clipPath id="74fedfca5e"><path d="M 11.164062 219 L 600.664062 219 L 600.664062 527.753906 L 11.164062 527.753906 Z M 11.164062 219 " clip-rule="nonzero"/></clipPath></defs><g clip-path="url(#b33e54d263)"><path fill="#000000" d="M 199.089844 159.117188 C 199.089844 149.203125 192.179688 140.636719 182.5 138.542969 L 152.207031 131.992188 C 143.792969 130.171875 135.285156 128.941406 126.742188 128.285156 L 126.742188 117.71875 L 291.445312 117.71875 L 291.445312 128.285156 C 282.90625 128.941406 274.394531 130.171875 265.980469 131.992188 L 235.6875 138.542969 C 226.007812 140.636719 219.097656 149.203125 219.097656 159.117188 L 219.097656 197.378906 L 392.734375 197.378906 L 392.734375 159.117188 C 392.734375 149.203125 385.824219 140.636719 376.140625 138.542969 L 345.847656 131.992188 C 337.433594 130.171875 328.925781 128.941406 320.386719 128.285156 L 320.386719 117.71875 L 485.089844 117.71875 L 485.089844 128.285156 C 476.546875 128.941406 468.039062 130.171875 459.625 131.992188 L 429.332031 138.542969 C 419.652344 140.636719 412.742188 149.203125 412.742188 159.117188 L 412.742188 197.378906 L 586.375 197.378906 L 586.375 159.117188 C 586.375 149.203125 579.46875 140.636719 569.785156 138.542969 L 539.492188 131.992188 C 531.078125 130.171875 522.570312 128.941406 514.027344 128.285156 L 514.027344 117.71875 L 535.976562 117.71875 L 535.976562 111.828125 L 529.183594 111.828125 L 529.183594 99.480469 L 535.976562 99.480469 L 535.976562 93.59375 L 514.027344 93.59375 L 514.027344 84.523438 L 485.089844 84.523438 L 485.089844 93.59375 L 320.386719 93.59375 L 320.386719 84.523438 L 291.445312 84.523438 L 291.445312 93.59375 L 126.742188 93.59375 L 126.742188 84.523438 L 97.800781 84.523438 L 97.800781 93.59375 L 75.851562 93.59375 L 75.851562 99.480469 L 82.648438 99.480469 L 82.648438 111.828125 L 75.851562 111.828125 L 75.851562 117.71875 L 97.800781 117.71875 L 97.800781 128.285156 C 89.261719 128.941406 80.753906 130.171875 72.339844 131.992188 L 42.046875 138.542969 C 32.363281 140.632812 25.453125 149.203125 25.453125 159.117188 L 25.453125 197.375 L 199.089844 197.375 Z M 242.886719 111.828125 L 208.707031 111.828125 L 208.707031 99.480469 L 242.886719 99.480469 Z M 248.769531 99.480469 L 282.945312 99.480469 L 282.945312 111.828125 L 248.769531 111.828125 Z M 202.824219 111.828125 L 168.648438 111.828125 L 168.648438 99.480469 L 202.824219 99.480469 Z M 162.765625 111.828125 L 128.589844 111.828125 L 128.589844 99.480469 L 162.765625 99.480469 Z M 483.242188 111.828125 L 449.066406 111.828125 L 449.066406 99.480469 L 483.242188 99.480469 Z M 443.183594 111.828125 L 409.007812 111.828125 L 409.007812 99.480469 L 443.183594 99.480469 Z M 403.125 111.828125 L 368.945312 111.828125 L 368.945312 99.480469 L 403.125 99.480469 Z M 363.0625 111.828125 L 328.886719 111.828125 L 328.886719 99.480469 L 363.0625 99.480469 Z M 523.300781 99.480469 L 523.300781 111.828125 L 514.027344 111.828125 L 514.027344 99.480469 Z M 323.003906 99.480469 L 323.003906 111.828125 L 320.386719 111.828125 L 320.386719 99.480469 Z M 291.445312 111.828125 L 288.828125 111.828125 L 288.828125 99.480469 L 291.445312 99.480469 Z M 88.53125 111.828125 L 88.53125 99.480469 L 97.800781 99.480469 L 97.800781 111.828125 Z M 88.53125 111.828125 " fill-opacity="1" fill-rule="nonzero"/></g><g clip-path="url(#74fedfca5e)"><path fill="#000000" d="M 582 435.679688 C 584.820312 431.613281 586.375 426.765625 586.375 421.746094 L 586.375 219.90625 L 412.742188 219.90625 L 412.742188 421.746094 C 412.742188 426.765625 414.296875 431.613281 417.117188 435.679688 L 417.117188 517.066406 L 388.355469 517.066406 L 388.355469 435.679688 C 391.175781 431.613281 392.734375 426.765625 392.734375 421.746094 L 392.734375 219.90625 L 219.097656 219.90625 L 219.097656 421.746094 C 219.097656 426.765625 220.65625 431.613281 223.472656 435.679688 L 223.472656 517.066406 L 194.714844 517.066406 L 194.714844 435.679688 C 197.53125 431.613281 199.089844 426.765625 199.089844 421.746094 L 199.089844 219.90625 L 25.453125 219.90625 L 25.453125 421.746094 C 25.453125 426.765625 27.011719 431.613281 29.832031 435.679688 L 29.832031 517.066406 L 11.164062 517.066406 L 11.164062 527.792969 L 600.667969 527.792969 L 600.667969 517.066406 L 582 517.066406 Z M 571.996094 497.164062 L 559.300781 484.457031 L 571.996094 471.75 Z M 571.996094 466.1875 L 556.523438 481.675781 L 546.808594 471.953125 L 571.996094 446.378906 Z M 544.050781 474.753906 L 553.742188 484.457031 L 536.984375 501.230469 L 536.984375 481.929688 Z M 536.984375 506.792969 L 556.523438 487.238281 L 571.996094 502.726562 L 571.996094 517.066406 L 536.984375 517.066406 Z M 516.964844 502.25 L 526.980469 492.085938 L 526.980469 517.066406 L 472.136719 517.066406 L 472.136719 492.085938 L 482.152344 502.25 C 491.726562 511.972656 507.394531 511.972656 516.964844 502.25 Z M 427.121094 471.75 L 439.816406 484.457031 L 427.121094 497.164062 Z M 427.121094 466.1875 L 427.121094 446.378906 L 452.308594 471.953125 L 442.597656 481.675781 Z M 455.070312 474.753906 L 462.132812 481.929688 L 462.132812 501.230469 L 445.375 484.457031 Z M 427.121094 502.726562 L 442.597656 487.238281 L 462.132812 506.792969 L 462.132812 517.066406 L 427.121094 517.066406 Z M 378.351562 497.164062 L 365.65625 484.457031 L 378.351562 471.75 Z M 378.351562 466.1875 L 362.878906 481.675781 L 353.164062 471.953125 L 378.351562 446.378906 Z M 350.40625 474.753906 L 360.101562 484.457031 L 343.339844 501.230469 L 343.339844 481.929688 Z M 343.339844 506.792969 L 362.878906 487.238281 L 378.351562 502.726562 L 378.351562 517.066406 L 343.339844 517.066406 Z M 323.324219 502.25 L 333.335938 492.085938 L 333.335938 517.066406 L 278.496094 517.066406 L 278.496094 492.085938 L 288.507812 502.25 C 298.082031 511.972656 313.75 511.972656 323.324219 502.25 Z M 233.476562 471.75 L 246.171875 484.457031 L 233.476562 497.164062 Z M 233.476562 466.1875 L 233.476562 446.378906 L 258.667969 471.953125 L 248.953125 481.675781 Z M 261.425781 474.753906 L 268.492188 481.929688 L 268.492188 501.230469 L 251.730469 484.457031 Z M 233.476562 502.726562 L 248.953125 487.238281 L 268.492188 506.792969 L 268.492188 517.066406 L 233.476562 517.066406 Z M 184.710938 497.164062 L 172.015625 484.457031 L 184.710938 471.75 Z M 184.710938 466.1875 L 169.234375 481.675781 L 159.523438 471.953125 L 184.710938 446.378906 Z M 156.761719 474.753906 L 166.457031 484.457031 L 149.695312 501.230469 L 149.695312 481.929688 Z M 149.695312 506.792969 L 169.234375 487.238281 L 184.710938 502.726562 L 184.710938 517.066406 L 149.695312 517.066406 Z M 129.679688 502.25 L 139.691406 492.085938 L 139.691406 517.066406 L 84.851562 517.066406 L 84.851562 492.085938 L 94.863281 502.25 C 104.4375 511.972656 120.105469 511.972656 129.679688 502.25 Z M 39.835938 471.75 L 52.53125 484.457031 L 39.835938 497.164062 Z M 39.835938 466.1875 L 39.835938 446.378906 L 65.023438 471.953125 L 55.308594 481.675781 Z M 67.78125 474.753906 L 74.847656 481.929688 L 74.847656 501.230469 L 58.089844 484.457031 Z M 39.835938 502.726562 L 55.308594 487.238281 L 74.847656 506.792969 L 74.847656 517.066406 L 39.835938 517.066406 Z M 39.835938 502.726562 " fill-opacity="1" fill-rule="nonzero"/></g></svg>