<svg xmlns="http://www.w3.org/2000/svg" xmlns:xlink="http://www.w3.org/1999/xlink" width="816" zoomAndPan="magnify" viewBox="0 0 612 611.999999" height="816" preserveAspectRatio="xMidYMid meet" version="1.0"><defs><clipPath id="b374728d52"><path d="M 25 84.503906 L 587 84.503906 L 587 198 L 25 198 Z M 25 84.503906 " clip-rule="nonzero"/></clipPath><clipPath id="040899bb8d"><path d="M 11.164062 219 L 600.664062 219 L 600.664062 527.753906 L 11.164062 527.753906 Z M 11.164062 219 " clip-rule="nonzero"/></clipPath></defs><g clip-path="url(#b374728d52)"><path fill="#6c0633" d="M 199.144531 159.074219 C 199.144531 149.164062 192.230469 140.601562 182.546875 138.507812 L 152.246094 131.960938 C 143.828125 130.144531 135.316406 128.914062 126.773438 128.257812 L 126.773438 117.699219 L 291.523438 117.699219 L 291.523438 128.257812 C 282.980469 128.914062 274.46875 130.144531 266.050781 131.960938 L 235.75 138.507812 C 226.066406 140.601562 219.15625 149.164062 219.15625 159.074219 L 219.15625 197.308594 L 392.839844 197.308594 L 392.839844 159.074219 C 392.839844 149.164062 385.929688 140.601562 376.242188 138.507812 L 345.941406 131.960938 C 337.527344 130.144531 329.015625 128.914062 320.472656 128.257812 L 320.472656 117.699219 L 485.222656 117.699219 L 485.222656 128.257812 C 476.675781 128.914062 468.167969 130.144531 459.75 131.960938 L 429.449219 138.507812 C 419.765625 140.601562 412.851562 149.164062 412.851562 159.074219 L 412.851562 197.308594 L 586.535156 197.308594 L 586.535156 159.074219 C 586.535156 149.164062 579.625 140.601562 569.941406 138.507812 L 539.640625 131.960938 C 531.222656 130.144531 522.710938 128.914062 514.167969 128.257812 L 514.167969 117.699219 L 536.125 117.699219 L 536.125 111.8125 L 529.328125 111.8125 L 529.328125 99.472656 L 536.125 99.472656 L 536.125 93.585938 L 514.167969 93.585938 L 514.167969 84.523438 L 485.222656 84.523438 L 485.222656 93.585938 L 320.472656 93.585938 L 320.472656 84.523438 L 291.523438 84.523438 L 291.523438 93.585938 L 126.773438 93.585938 L 126.773438 84.523438 L 97.828125 84.523438 L 97.828125 93.585938 L 75.871094 93.585938 L 75.871094 99.472656 L 82.667969 99.472656 L 82.667969 111.8125 L 75.871094 111.8125 L 75.871094 117.695312 L 97.828125 117.695312 L 97.828125 128.257812 C 89.28125 128.914062 80.773438 130.144531 72.355469 131.960938 L 42.054688 138.507812 C 32.371094 140.601562 25.457031 149.164062 25.457031 159.074219 L 25.457031 197.308594 L 199.140625 197.308594 L 199.140625 159.074219 Z M 242.949219 111.8125 L 208.761719 111.8125 L 208.761719 99.472656 L 242.949219 99.472656 Z M 248.835938 99.472656 L 283.019531 99.472656 L 283.019531 111.8125 L 248.835938 111.8125 Z M 202.878906 111.8125 L 168.691406 111.8125 L 168.691406 99.472656 L 202.878906 99.472656 Z M 162.808594 111.8125 L 128.621094 111.8125 L 128.621094 99.472656 L 162.808594 99.472656 Z M 483.375 111.8125 L 449.1875 111.8125 L 449.1875 99.472656 L 483.375 99.472656 Z M 443.304688 111.8125 L 409.117188 111.8125 L 409.117188 99.472656 L 443.304688 99.472656 Z M 403.230469 111.8125 L 369.046875 111.8125 L 369.046875 99.472656 L 403.230469 99.472656 Z M 363.160156 111.8125 L 328.976562 111.8125 L 328.976562 99.472656 L 363.160156 99.472656 Z M 523.445312 99.472656 L 523.445312 111.8125 L 514.167969 111.8125 L 514.167969 99.472656 Z M 323.089844 99.472656 L 323.089844 111.8125 L 320.472656 111.8125 L 320.472656 99.472656 Z M 291.523438 111.8125 L 288.90625 111.8125 L 288.90625 99.472656 L 291.523438 99.472656 Z M 88.550781 111.8125 L 88.550781 99.472656 L 97.828125 99.472656 L 97.828125 111.8125 Z M 88.550781 111.8125 " fill-opacity="1" fill-rule="nonzero"/></g><g clip-path="url(#040899bb8d)"><path fill="#6c0633" d="M 582.160156 435.464844 C 584.980469 431.402344 586.535156 426.554688 586.535156 421.542969 L 586.535156 219.824219 L 412.851562 219.824219 L 412.851562 421.542969 C 412.851562 426.554688 414.410156 431.402344 417.230469 435.464844 L 417.230469 516.800781 L 388.460938 516.800781 L 388.460938 435.464844 C 391.28125 431.402344 392.839844 426.554688 392.839844 421.542969 L 392.839844 219.824219 L 219.15625 219.824219 L 219.15625 421.542969 C 219.15625 426.554688 220.714844 431.402344 223.535156 435.464844 L 223.535156 516.800781 L 194.765625 516.800781 L 194.765625 435.464844 C 197.585938 431.402344 199.144531 426.554688 199.144531 421.542969 L 199.144531 219.824219 L 25.457031 219.824219 L 25.457031 421.542969 C 25.457031 426.554688 27.015625 431.402344 29.835938 435.464844 L 29.835938 516.800781 L 11.164062 516.800781 L 11.164062 527.523438 L 600.832031 527.523438 L 600.832031 516.800781 L 582.160156 516.800781 Z M 572.152344 496.914062 L 559.453125 484.214844 L 572.152344 471.515625 Z M 572.152344 465.953125 L 556.675781 481.433594 L 546.957031 471.71875 L 572.152344 446.160156 Z M 544.199219 474.515625 L 553.894531 484.214844 L 537.128906 500.976562 L 537.128906 481.6875 Z M 537.128906 506.539062 L 556.675781 486.992188 L 572.152344 502.472656 L 572.152344 516.800781 L 537.128906 516.800781 Z M 517.105469 501.996094 L 527.125 491.835938 L 527.125 516.800781 L 472.265625 516.800781 L 472.265625 491.835938 L 482.28125 501.996094 C 491.859375 511.710938 507.53125 511.710938 517.105469 501.996094 Z M 427.238281 471.515625 L 439.9375 484.214844 L 427.238281 496.914062 Z M 427.238281 465.953125 L 427.238281 446.160156 L 452.433594 471.71875 L 442.714844 481.433594 Z M 455.191406 474.515625 L 462.261719 481.6875 L 462.261719 500.976562 L 445.496094 484.214844 Z M 427.238281 502.472656 L 442.714844 486.992188 L 462.261719 506.539062 L 462.261719 516.800781 L 427.238281 516.800781 Z M 378.457031 496.914062 L 365.757812 484.214844 L 378.457031 471.515625 Z M 378.457031 465.953125 L 362.976562 481.433594 L 353.261719 471.71875 L 378.457031 446.160156 Z M 350.5 474.515625 L 360.195312 484.214844 L 343.433594 500.976562 L 343.433594 481.6875 Z M 343.433594 506.539062 L 362.976562 486.992188 L 378.457031 502.472656 L 378.457031 516.800781 L 343.433594 516.800781 Z M 323.410156 501.996094 L 333.425781 491.835938 L 333.425781 516.800781 L 278.570312 516.800781 L 278.570312 491.835938 L 288.585938 501.996094 C 298.160156 511.710938 313.835938 511.710938 323.410156 501.996094 Z M 233.539062 471.515625 L 246.238281 484.214844 L 233.539062 496.914062 Z M 233.539062 465.953125 L 233.539062 446.160156 L 258.734375 471.71875 L 249.019531 481.433594 Z M 261.496094 474.515625 L 268.5625 481.6875 L 268.5625 500.976562 L 251.796875 484.214844 Z M 233.539062 502.472656 L 249.019531 486.992188 L 268.5625 506.539062 L 268.5625 516.800781 L 233.539062 516.800781 Z M 184.757812 496.914062 L 172.058594 484.214844 L 184.757812 471.515625 Z M 184.757812 465.953125 L 169.28125 481.433594 L 159.5625 471.71875 L 184.757812 446.160156 Z M 156.804688 474.515625 L 166.5 484.214844 L 149.734375 500.976562 L 149.734375 481.6875 Z M 149.734375 506.539062 L 169.28125 486.992188 L 184.757812 502.472656 L 184.757812 516.800781 L 149.734375 516.800781 Z M 129.714844 501.996094 L 139.730469 491.835938 L 139.730469 516.800781 L 84.871094 516.800781 L 84.871094 491.835938 L 94.886719 501.996094 C 104.464844 511.710938 120.136719 511.710938 129.714844 501.996094 Z M 39.84375 471.515625 L 52.542969 484.214844 L 39.84375 496.914062 Z M 39.84375 465.953125 L 39.84375 446.160156 L 65.039062 471.71875 L 55.320312 481.433594 Z M 67.796875 474.515625 L 74.867188 481.6875 L 74.867188 500.976562 L 58.101562 484.214844 Z M 39.84375 502.472656 L 55.320312 486.992188 L 74.867188 506.539062 L 74.867188 516.800781 L 39.84375 516.800781 Z M 39.84375 502.472656 " fill-opacity="1" fill-rule="nonzero"/></g></svg>