<svg xmlns="http://www.w3.org/2000/svg" xmlns:xlink="http://www.w3.org/1999/xlink" width="816" zoomAndPan="magnify" viewBox="0 0 612 611.999999" height="816" preserveAspectRatio="xMidYMid meet" version="1.0"><defs><clipPath id="9078bda96c"><path d="M 16.144531 61.199219 L 595.488281 61.199219 L 595.488281 548.699219 L 16.144531 548.699219 Z M 16.144531 61.199219 " clip-rule="nonzero"/></clipPath></defs><g clip-path="url(#9078bda96c)"><path fill="#000000" d="M 582.171875 488.539062 L 582.171875 513.890625 L 510.378906 513.890625 L 510.378906 488.539062 Z M 582.171875 414.804688 L 582.171875 440.15625 L 510.378906 440.15625 L 510.378906 414.804688 Z M 582.171875 341.074219 L 582.171875 366.425781 L 510.378906 366.425781 L 510.378906 341.074219 Z M 485.726562 536.21875 L 485.726562 316.117188 L 585.355469 316.117188 L 585.355469 330.945312 L 505.320312 330.945312 C 502.527344 330.945312 500.261719 333.207031 500.261719 336.007812 L 500.261719 371.492188 C 500.261719 374.289062 502.527344 376.554688 505.320312 376.554688 L 585.355469 376.554688 L 585.355469 404.675781 L 505.320312 404.675781 C 502.527344 404.675781 500.261719 406.9375 500.261719 409.738281 L 500.261719 445.222656 C 500.261719 448.023438 502.527344 450.292969 505.320312 450.292969 L 585.355469 450.292969 L 585.355469 478.402344 L 505.320312 478.402344 C 502.527344 478.402344 500.261719 480.671875 500.261719 483.472656 L 500.261719 518.957031 C 500.261719 521.757812 502.527344 524.019531 505.320312 524.019531 L 585.355469 524.019531 L 585.355469 536.21875 Z M 475.40625 536.585938 L 317.433594 536.585938 L 317.433594 202.039062 L 475.40625 202.039062 Z M 224.640625 466.421875 L 248.1875 536.839844 L 224.640625 536.839844 Z M 145.339844 503.207031 L 145.339844 455.53125 C 146.515625 454.601562 147.277344 453.160156 147.277344 451.542969 C 147.277344 449.933594 146.515625 448.492188 145.339844 447.5625 L 145.339844 394.546875 L 210.984375 428.558594 Z M 54.585938 468.210938 L 78.136719 538.632812 L 54.585938 538.632812 Z M 150.257812 73.230469 L 135.257812 117.917969 L 52.515625 120.246094 L 29.417969 75.167969 Z M 320.304688 71.441406 L 305.3125 116.128906 L 222.570312 118.441406 L 199.472656 73.375 Z M 278.613281 456.238281 L 278.945312 454.824219 L 305.269531 454.824219 L 305.269531 524.398438 Z M 260.015625 534.433594 L 274.5 473.519531 L 299.265625 536.839844 L 258.671875 536.839844 C 259.3125 536.195312 259.792969 535.378906 260.015625 534.433594 Z M 267.1875 454.824219 L 268.035156 456.972656 L 253.117188 519.675781 L 231.4375 454.828125 Z M 214.523438 317.878906 L 214.523438 418.976562 L 149.222656 385.148438 Z M 89.960938 536.226562 L 104.453125 475.324219 L 129.210938 538.632812 L 88.617188 538.632812 C 89.261719 537.988281 89.738281 537.175781 89.960938 536.226562 Z M 97.132812 456.621094 L 97.980469 458.777344 L 83.070312 521.472656 L 61.382812 456.621094 Z M 145.339844 248.257812 L 145.339844 136.722656 L 210.820312 178.726562 Z M 224.863281 169.226562 C 224.875 169.226562 224.894531 169.226562 224.90625 169.226562 L 305.269531 168.535156 L 305.269531 198.382812 C 305.042969 198.363281 304.820312 198.34375 304.582031 198.34375 C 304.558594 198.34375 304.535156 198.34375 304.507812 198.34375 L 224.640625 199.039062 L 224.640625 179.910156 C 224.925781 178.953125 224.914062 177.949219 224.640625 177.027344 L 224.640625 169.214844 C 224.714844 169.222656 224.789062 169.226562 224.863281 169.226562 Z M 145.339844 261.21875 C 146.050781 261.152344 146.753906 260.921875 147.390625 260.550781 L 210.132812 307.859375 L 145.339844 374.601562 Z M 54.585938 218.566406 L 134.609375 217.875 C 134.8125 217.875 135.019531 217.859375 135.214844 217.839844 L 135.214844 281.304688 L 55.476562 281.992188 C 55.171875 281.992188 54.875 282.023438 54.585938 282.078125 Z M 54.808594 171.019531 C 54.828125 171.019531 54.839844 171.019531 54.851562 171.019531 L 135.214844 170.332031 L 135.214844 200.179688 C 134.992188 200.160156 134.765625 200.140625 134.535156 200.140625 C 134.503906 200.140625 134.480469 200.140625 134.453125 200.140625 L 54.585938 200.828125 L 54.585938 171.007812 C 54.660156 171.011719 54.734375 171.019531 54.808594 171.019531 Z M 135.214844 160.195312 L 54.765625 160.890625 C 54.710938 160.890625 54.648438 160.898438 54.585938 160.898438 L 54.585938 130.480469 L 135.214844 130.480469 Z M 135.214844 321.242188 C 135.199219 321.242188 135.183594 321.242188 135.160156 321.242188 L 54.585938 321.9375 L 54.585938 292.035156 C 54.890625 292.089844 55.199219 292.121094 55.519531 292.121094 C 55.53125 292.121094 55.546875 292.121094 55.5625 292.121094 L 135.214844 291.4375 Z M 214.523438 205.84375 C 214.355469 206.539062 214.261719 207.253906 214.269531 207.988281 C 214.273438 208.683594 214.359375 209.351562 214.523438 209.992188 L 214.523438 298.476562 L 154.542969 253.253906 L 214.523438 189.566406 Z M 305.269531 279.511719 L 225.53125 280.195312 C 225.222656 280.199219 224.929688 280.230469 224.640625 280.289062 L 224.640625 216.765625 L 304.65625 216.078125 C 304.867188 216.078125 305.066406 216.0625 305.269531 216.042969 Z M 224.640625 311.007812 C 225.222656 309.6875 225.210938 308.199219 224.640625 306.910156 L 224.640625 290.238281 C 224.941406 290.292969 225.253906 290.328125 225.570312 290.328125 C 225.585938 290.328125 225.601562 290.328125 225.617188 290.328125 L 305.269531 289.640625 L 305.269531 319.453125 C 305.25 319.453125 305.234375 319.453125 305.214844 319.453125 L 224.640625 320.144531 Z M 305.269531 158.398438 L 224.820312 159.09375 C 224.757812 159.09375 224.703125 159.105469 224.640625 159.105469 L 224.640625 128.6875 L 305.269531 128.6875 Z M 57.742188 446.492188 C 56.976562 445.445312 55.84375 444.738281 54.585938 444.507812 L 54.585938 339.671875 L 135.214844 338.976562 L 135.214844 446.480469 Z M 227.796875 444.695312 C 227.03125 443.652344 225.890625 442.945312 224.640625 442.710938 L 224.640625 432.03125 C 225.109375 431.621094 225.519531 431.125 225.824219 430.535156 C 226.925781 428.414062 226.367188 425.878906 224.640625 424.378906 L 224.640625 337.875 L 305.269531 337.1875 L 305.269531 444.6875 Z M 135.214844 526.203125 L 108.558594 458.039062 L 108.898438 456.621094 L 135.214844 456.613281 Z M 429.910156 155.15625 C 429.976562 155.15625 430.039062 155.152344 430.109375 155.144531 L 469.527344 191.699219 L 315.394531 191.699219 L 315.394531 155.15625 Z M 579.84375 305.988281 L 495.363281 305.988281 L 546.640625 264.945312 Z M 594.367188 307.878906 C 594.265625 307.722656 594.15625 307.574219 594.039062 307.425781 L 551.292969 254.59375 C 549.535156 252.417969 546.351562 252.082031 544.175781 253.84375 C 543.878906 254.085938 543.625 254.351562 543.398438 254.628906 C 543.207031 254.746094 543.011719 254.871094 542.832031 255.019531 L 485.726562 300.71875 L 485.726562 198.910156 C 487.175781 196.863281 486.921875 194.015625 485.039062 192.269531 L 436.175781 146.960938 C 435.085938 145.957031 433.679688 145.523438 432.320312 145.636719 C 431.601562 145.246094 430.78125 145.019531 429.910156 145.019531 L 315.394531 145.019531 L 315.394531 123.617188 C 315.394531 122.527344 315.046875 121.519531 314.460938 120.691406 L 332.183594 67.871094 C 332.703125 66.3125 332.4375 64.597656 331.46875 63.269531 C 330.5 61.945312 328.929688 61.175781 327.304688 61.195312 L 191.175781 63.371094 C 189.429688 63.402344 187.820312 64.332031 186.917969 65.832031 C 186.019531 67.332031 185.957031 69.191406 186.753906 70.753906 L 214.523438 124.929688 L 214.523438 169.0625 L 145.277344 124.644531 C 145.15625 123.851562 144.851562 123.113281 144.40625 122.488281 L 162.128906 69.667969 C 162.65625 68.105469 162.386719 66.386719 161.414062 65.0625 C 160.449219 63.734375 158.894531 62.941406 157.25 62.984375 L 21.121094 65.167969 C 19.375 65.191406 17.765625 66.121094 16.863281 67.628906 C 15.964844 69.128906 15.902344 70.988281 16.699219 72.542969 L 44.46875 126.730469 L 44.46875 207.640625 C 44.300781 208.332031 44.207031 209.042969 44.214844 209.789062 C 44.21875 210.476562 44.3125 211.144531 44.46875 211.789062 L 44.46875 543.695312 C 44.46875 546.5 46.734375 548.761719 49.527344 548.761719 L 140.28125 548.761719 C 143.074219 548.761719 145.339844 546.5 145.339844 543.695312 L 145.339844 516.800781 C 146.457031 516.621094 147.515625 516.066406 148.3125 515.15625 L 214.523438 439.878906 L 214.523438 541.90625 C 214.523438 544.699219 216.78125 546.96875 219.582031 546.96875 L 310.328125 546.96875 C 310.707031 546.96875 311.074219 546.925781 311.425781 546.851562 C 311.699219 546.894531 311.984375 546.925781 312.273438 546.925781 L 480.570312 546.925781 C 481.417969 546.925781 482.21875 546.714844 482.921875 546.355469 L 590.421875 546.355469 C 593.214844 546.355469 595.480469 544.085938 595.480469 541.285156 L 595.480469 311.050781 C 595.480469 309.851562 595.058594 308.746094 594.367188 307.878906 " fill-opacity="1" fill-rule="nonzero"/></g><path fill="#000000" d="M 352.578125 223.082031 L 446.921875 223.082031 L 446.921875 242.144531 L 352.578125 242.144531 Z M 347.515625 252.28125 L 451.980469 252.28125 C 454.777344 252.28125 457.046875 250.011719 457.046875 247.210938 L 457.046875 218.019531 C 457.046875 215.21875 454.777344 212.953125 451.980469 212.953125 L 347.515625 212.953125 C 344.722656 212.953125 342.457031 215.21875 342.457031 218.019531 L 342.457031 247.210938 C 342.457031 250.011719 344.722656 252.28125 347.515625 252.28125 " fill-opacity="1" fill-rule="nonzero"/><path fill="#000000" d="M 350.726562 290.503906 L 448.773438 290.503906 L 448.773438 330.796875 L 350.726562 330.796875 Z M 345.664062 340.929688 L 453.832031 340.929688 C 456.628906 340.929688 458.894531 338.664062 458.894531 335.859375 L 458.894531 285.433594 C 458.894531 282.636719 456.628906 280.367188 453.832031 280.367188 L 345.664062 280.367188 C 342.871094 280.367188 340.605469 282.636719 340.605469 285.433594 L 340.605469 335.859375 C 340.605469 338.664062 342.871094 340.929688 345.664062 340.929688 " fill-opacity="1" fill-rule="nonzero"/><path fill="#000000" d="M 446.652344 501.71875 L 352.847656 501.71875 L 352.847656 367.46875 L 446.652344 367.46875 Z M 451.714844 357.332031 L 347.785156 357.332031 C 344.988281 357.332031 342.722656 359.601562 342.722656 362.402344 L 342.722656 506.78125 C 342.722656 509.582031 344.988281 511.851562 347.785156 511.851562 L 451.714844 511.851562 C 454.507812 511.851562 456.773438 509.582031 456.773438 506.78125 L 456.773438 362.402344 C 456.773438 359.601562 454.507812 357.332031 451.714844 357.332031 " fill-opacity="1" fill-rule="nonzero"/></svg>