<svg xmlns="http://www.w3.org/2000/svg" xmlns:xlink="http://www.w3.org/1999/xlink" width="816" zoomAndPan="magnify" viewBox="0 0 612 611.999999" height="816" preserveAspectRatio="xMidYMid meet" version="1.0"><defs><clipPath id="67b753b8b8"><path d="M 16.144531 61.199219 L 595.722656 61.199219 L 595.722656 548.503906 L 16.144531 548.503906 Z M 16.144531 61.199219 " clip-rule="nonzero"/></clipPath></defs><g clip-path="url(#67b753b8b8)"><path fill="#ffffff" d="M 582.472656 488.3125 L 582.472656 513.652344 L 510.640625 513.652344 L 510.640625 488.3125 Z M 582.472656 414.617188 L 582.472656 439.957031 L 510.640625 439.957031 L 510.640625 414.617188 Z M 582.472656 340.925781 L 582.472656 366.265625 L 510.640625 366.265625 L 510.640625 340.925781 Z M 485.976562 535.96875 L 485.976562 315.980469 L 585.65625 315.980469 L 585.65625 330.800781 L 505.578125 330.800781 C 502.785156 330.800781 500.515625 333.0625 500.515625 335.863281 L 500.515625 371.328125 C 500.515625 374.121094 502.785156 376.390625 505.578125 376.390625 L 585.65625 376.390625 L 585.65625 404.492188 L 505.578125 404.492188 C 502.785156 404.492188 500.515625 406.753906 500.515625 409.554688 L 500.515625 445.019531 C 500.515625 447.816406 502.785156 450.085938 505.578125 450.085938 L 585.65625 450.085938 L 585.65625 478.183594 L 505.578125 478.183594 C 502.785156 478.183594 500.515625 480.449219 500.515625 483.25 L 500.515625 518.714844 C 500.515625 521.515625 502.785156 523.777344 505.578125 523.777344 L 585.65625 523.777344 L 585.65625 535.96875 Z M 475.648438 536.335938 L 317.589844 536.335938 L 317.589844 201.964844 L 475.648438 201.964844 Z M 224.75 466.207031 L 248.3125 536.589844 L 224.75 536.589844 Z M 145.410156 502.972656 L 145.410156 455.320312 C 146.585938 454.390625 147.347656 452.953125 147.347656 451.335938 C 147.347656 449.726562 146.585938 448.289062 145.410156 447.359375 L 145.410156 394.367188 L 211.089844 428.363281 Z M 54.605469 467.996094 L 78.167969 538.378906 L 54.605469 538.378906 Z M 150.328125 73.226562 L 135.320312 117.890625 L 52.535156 120.214844 L 29.425781 75.160156 Z M 320.464844 71.433594 L 305.464844 116.097656 L 222.679688 118.410156 L 199.570312 73.367188 Z M 278.75 456.027344 L 279.085938 454.613281 L 305.421875 454.613281 L 305.421875 524.152344 Z M 260.144531 534.183594 L 274.636719 473.300781 L 299.414062 536.589844 L 258.800781 536.589844 C 259.4375 535.945312 259.921875 535.125 260.144531 534.183594 Z M 267.320312 454.613281 L 268.167969 456.765625 L 253.242188 519.433594 L 231.550781 454.621094 Z M 214.625 317.742188 L 214.625 418.785156 L 149.292969 384.976562 Z M 90 535.976562 L 104.5 475.105469 L 129.269531 538.378906 L 88.65625 538.378906 C 89.300781 537.734375 89.777344 536.921875 90 535.976562 Z M 97.175781 456.410156 L 98.023438 458.566406 L 83.105469 521.230469 L 61.410156 456.410156 Z M 145.410156 248.160156 L 145.410156 136.679688 L 210.921875 178.664062 Z M 224.972656 169.171875 C 224.984375 169.171875 225.003906 169.171875 225.015625 169.171875 L 305.421875 168.476562 L 305.421875 198.308594 C 305.191406 198.289062 304.96875 198.273438 304.734375 198.273438 C 304.710938 198.273438 304.683594 198.273438 304.660156 198.273438 L 224.75 198.964844 L 224.75 179.847656 C 225.035156 178.890625 225.023438 177.886719 224.75 176.964844 L 224.75 169.160156 C 224.824219 169.164062 224.898438 169.171875 224.972656 169.171875 Z M 145.410156 261.113281 C 146.121094 261.046875 146.820312 260.816406 147.460938 260.445312 L 210.234375 307.730469 L 145.410156 374.4375 Z M 54.605469 218.480469 L 134.671875 217.792969 C 134.875 217.792969 135.082031 217.773438 135.277344 217.757812 L 135.277344 281.1875 L 55.496094 281.875 C 55.195312 281.875 54.898438 281.90625 54.605469 281.960938 Z M 54.828125 170.960938 C 54.847656 170.960938 54.859375 170.960938 54.871094 170.960938 L 135.277344 170.273438 L 135.277344 200.105469 C 135.054688 200.085938 134.828125 200.066406 134.597656 200.066406 C 134.566406 200.066406 134.542969 200.066406 134.515625 200.066406 L 54.605469 200.757812 L 54.605469 170.949219 C 54.679688 170.957031 54.753906 170.960938 54.828125 170.960938 Z M 135.277344 160.144531 L 54.785156 160.835938 C 54.730469 160.835938 54.667969 160.84375 54.605469 160.84375 L 54.605469 130.441406 L 135.277344 130.441406 Z M 135.277344 321.105469 C 135.261719 321.105469 135.246094 321.105469 135.222656 321.105469 L 54.605469 321.800781 L 54.605469 291.910156 C 54.910156 291.96875 55.21875 292 55.542969 292 C 55.554688 292 55.566406 292 55.585938 292 L 135.277344 291.316406 Z M 214.625 205.769531 C 214.457031 206.460938 214.367188 207.175781 214.371094 207.910156 C 214.378906 208.605469 214.464844 209.273438 214.625 209.914062 L 214.625 298.347656 L 154.617188 253.152344 L 214.625 189.5 Z M 305.421875 279.398438 L 225.640625 280.078125 C 225.332031 280.085938 225.039062 280.117188 224.75 280.171875 L 224.75 216.683594 L 304.808594 215.996094 C 305.019531 215.996094 305.21875 215.980469 305.421875 215.960938 Z M 224.75 310.875 C 225.332031 309.558594 225.320312 308.070312 224.75 306.78125 L 224.75 290.113281 C 225.054688 290.171875 225.363281 290.207031 225.679688 290.207031 C 225.699219 290.207031 225.710938 290.207031 225.726562 290.207031 L 305.421875 289.519531 L 305.421875 319.316406 C 305.402344 319.316406 305.386719 319.316406 305.367188 319.316406 L 224.75 320.007812 Z M 305.421875 158.347656 L 224.929688 159.039062 C 224.867188 159.039062 224.8125 159.054688 224.75 159.054688 L 224.75 128.652344 L 305.421875 128.652344 Z M 57.765625 446.289062 C 56.996094 445.242188 55.863281 444.535156 54.605469 444.304688 L 54.605469 339.523438 L 135.277344 338.832031 L 135.277344 446.277344 Z M 227.910156 444.492188 C 227.140625 443.449219 226 442.742188 224.75 442.507812 L 224.75 431.832031 C 225.21875 431.425781 225.628906 430.929688 225.933594 430.339844 C 227.035156 428.222656 226.476562 425.6875 224.75 424.1875 L 224.75 337.726562 L 305.421875 337.039062 L 305.421875 444.484375 Z M 135.277344 525.957031 L 108.605469 457.832031 L 108.949219 456.410156 L 135.277344 456.40625 Z M 430.128906 155.105469 C 430.195312 155.105469 430.257812 155.101562 430.324219 155.09375 L 469.765625 191.628906 L 315.550781 191.628906 L 315.550781 155.105469 Z M 580.140625 305.859375 L 495.613281 305.859375 L 546.921875 264.835938 Z M 594.671875 307.746094 C 594.570312 307.59375 594.460938 307.445312 594.34375 307.296875 L 551.574219 254.492188 C 549.8125 252.316406 546.628906 251.980469 544.457031 253.742188 C 544.15625 253.984375 543.902344 254.25 543.675781 254.527344 C 543.480469 254.644531 543.289062 254.769531 543.109375 254.917969 L 485.976562 300.59375 L 485.976562 198.835938 C 487.425781 196.789062 487.171875 193.945312 485.285156 192.199219 L 436.398438 146.917969 C 435.308594 145.914062 433.902344 145.480469 432.539062 145.589844 C 431.820312 145.199219 431 144.976562 430.128906 144.976562 L 315.550781 144.976562 L 315.550781 123.582031 C 315.550781 122.492188 315.207031 121.488281 314.617188 120.660156 L 332.347656 67.867188 C 332.867188 66.3125 332.601562 64.59375 331.636719 63.269531 C 330.664062 61.945312 329.097656 61.175781 327.464844 61.195312 L 191.269531 63.367188 C 189.519531 63.398438 187.910156 64.328125 187.007812 65.828125 C 186.109375 67.328125 186.046875 69.1875 186.84375 70.746094 L 214.625 124.898438 L 214.625 169.003906 L 145.347656 124.613281 C 145.222656 123.820312 144.917969 123.082031 144.472656 122.457031 L 162.203125 69.664062 C 162.730469 68.101562 162.464844 66.386719 161.492188 65.058594 C 160.527344 63.734375 158.972656 62.941406 157.324219 62.984375 L 21.125 65.164062 C 19.378906 65.191406 17.765625 66.121094 16.863281 67.625 C 15.964844 69.125 15.902344 70.984375 16.699219 72.539062 L 44.480469 126.695312 L 44.480469 207.566406 C 44.316406 208.253906 44.222656 208.964844 44.226562 209.707031 C 44.234375 210.394531 44.328125 211.066406 44.480469 211.710938 L 44.480469 543.441406 C 44.480469 546.242188 46.75 548.503906 49.542969 548.503906 L 140.347656 548.503906 C 143.140625 548.503906 145.410156 546.242188 145.410156 543.441406 L 145.410156 516.558594 C 146.523438 516.378906 147.582031 515.828125 148.382812 514.917969 L 214.625 439.675781 L 214.625 541.652344 C 214.625 544.445312 216.886719 546.710938 219.6875 546.710938 L 310.484375 546.710938 C 310.863281 546.710938 311.226562 546.667969 311.582031 546.59375 C 311.851562 546.636719 312.136719 546.667969 312.429688 546.667969 L 480.8125 546.667969 C 481.664062 546.667969 482.460938 546.457031 483.167969 546.097656 L 590.722656 546.097656 C 593.519531 546.097656 595.785156 543.832031 595.785156 541.03125 L 595.785156 310.921875 C 595.785156 309.71875 595.363281 308.617188 594.671875 307.746094 " fill-opacity="1" fill-rule="nonzero"/></g><path fill="#ffffff" d="M 352.757812 223 L 447.148438 223 L 447.148438 242.050781 L 352.757812 242.050781 Z M 347.6875 252.179688 L 452.207031 252.179688 C 455.007812 252.179688 457.277344 249.910156 457.277344 247.113281 L 457.277344 217.9375 C 457.277344 215.136719 455.007812 212.875 452.207031 212.875 L 347.6875 212.875 C 344.894531 212.875 342.628906 215.136719 342.628906 217.9375 L 342.628906 247.113281 C 342.628906 249.910156 344.894531 252.179688 347.6875 252.179688 " fill-opacity="1" fill-rule="nonzero"/><path fill="#ffffff" d="M 350.90625 290.382812 L 449 290.382812 L 449 330.652344 L 350.90625 330.652344 Z M 345.835938 340.78125 L 454.0625 340.78125 C 456.863281 340.78125 459.128906 338.515625 459.128906 335.714844 L 459.128906 285.3125 C 459.128906 282.519531 456.863281 280.25 454.0625 280.25 L 345.835938 280.25 C 343.042969 280.25 340.773438 282.519531 340.773438 285.3125 L 340.773438 335.714844 C 340.773438 338.515625 343.042969 340.78125 345.835938 340.78125 " fill-opacity="1" fill-rule="nonzero"/><path fill="#ffffff" d="M 446.878906 501.484375 L 353.023438 501.484375 L 353.023438 367.304688 L 446.878906 367.304688 Z M 451.941406 357.175781 L 347.960938 357.175781 C 345.160156 357.175781 342.894531 359.445312 342.894531 362.246094 L 342.894531 506.546875 C 342.894531 509.347656 345.160156 511.613281 347.960938 511.613281 L 451.941406 511.613281 C 454.738281 511.613281 457.003906 509.347656 457.003906 506.546875 L 457.003906 362.246094 C 457.003906 359.445312 454.738281 357.175781 451.941406 357.175781 " fill-opacity="1" fill-rule="nonzero"/></svg>