<svg xmlns="http://www.w3.org/2000/svg" xmlns:xlink="http://www.w3.org/1999/xlink" width="816" zoomAndPan="magnify" viewBox="0 0 612 611.999999" height="816" preserveAspectRatio="xMidYMid meet" version="1.0"><path fill="#333333" d="M 218.664062 53.515625 C 173.738281 40.484375 135.1875 29.300781 96.460938 40.558594 C 139.464844 173.695312 126.644531 235.472656 110.457031 313.351562 C 97.585938 375.324219 82.542969 447.777344 93.15625 577.007812 C 214.699219 546.378906 293.371094 558.300781 369.480469 569.832031 C 417.375 577.085938 464.242188 584.195312 519.910156 580.050781 C 529.257812 500.574219 515.808594 439.226562 502.371094 377.949219 C 482.578125 287.660156 462.828125 197.496094 512.8125 50.476562 C 379.316406 100.121094 291.101562 74.539062 218.664062 53.515625 Z M 82.6875 26.035156 C 129.519531 8.792969 172.757812 21.339844 223.703125 36.121094 C 296.726562 57.304688 386.371094 83.324219 524.539062 26.429688 L 524.523438 26.40625 C 529.167969 24.496094 534.480469 26.707031 536.390625 31.347656 C 537.351562 33.691406 537.265625 36.195312 536.355469 38.359375 C 480.070312 191.394531 500.078125 282.679688 520.125 374.109375 C 534.289062 438.710938 548.464844 503.382812 536.964844 589.644531 L 527.984375 588.472656 L 536.996094 589.675781 C 536.386719 594.242188 532.476562 597.5625 527.984375 597.558594 C 467.058594 602.996094 417.484375 595.480469 366.78125 587.792969 C 290.320312 576.207031 211.214844 564.222656 87.390625 597.230469 L 87.398438 597.257812 C 82.546875 598.542969 77.566406 595.664062 76.273438 590.816406 C 76.0625 590.03125 75.964844 589.242188 75.964844 588.464844 C 63.492188 450.292969 79.269531 374.367188 92.707031 309.65625 C 108.683594 232.765625 121.28125 172.125 76.46875 37.671875 L 76.433594 37.6875 C 74.847656 32.921875 77.417969 27.773438 82.183594 26.191406 C 82.351562 26.132812 82.515625 26.078125 82.6875 26.035156 " fill-opacity="1" fill-rule="nonzero"/><path fill="#333333" d="M 516.332031 408.5625 C 521.355469 408.5625 525.425781 404.488281 525.425781 399.46875 C 525.425781 394.453125 521.355469 390.382812 516.332031 390.382812 L 90.203125 390.382812 C 85.1875 390.382812 81.109375 394.453125 81.109375 399.46875 C 81.109375 404.488281 85.1875 408.5625 90.203125 408.5625 Z M 120.4375 208.589844 C 115.421875 208.589844 111.351562 212.664062 111.351562 217.683594 C 111.351562 222.699219 115.421875 226.769531 120.4375 226.769531 L 490.511719 226.769531 C 495.535156 226.769531 499.605469 222.699219 499.605469 217.683594 C 499.605469 212.664062 495.535156 208.589844 490.511719 208.589844 L 120.4375 208.589844 " fill-opacity="1" fill-rule="nonzero"/><path fill="#333333" d="M 419.058594 275.644531 L 434.207031 275.644531 L 434.207031 354.679688 L 448.695312 354.679688 L 448.695312 275.644531 L 463.847656 275.644531 L 463.847656 262.472656 L 419.058594 262.472656 Z M 397.984375 354.679688 L 412.867188 354.679688 L 412.867188 262.472656 L 399.953125 262.472656 L 399.953125 317.664062 L 385.074219 262.472656 L 366.890625 262.472656 L 366.890625 354.679688 L 379.933594 354.679688 L 379.933594 287.894531 Z M 333.039062 275.644531 L 358.070312 275.644531 L 358.070312 262.472656 L 318.550781 262.472656 L 318.550781 354.679688 L 358.070312 354.679688 L 358.070312 341.507812 L 333.039062 341.507812 L 333.039062 314.503906 L 352.929688 314.503906 L 352.929688 301.332031 L 333.039062 301.332031 Z M 267.308594 262.472656 L 247.152344 262.472656 L 247.152344 354.679688 L 259.796875 354.679688 L 259.796875 289.476562 L 270.601562 354.679688 L 284.296875 354.679688 L 294.308594 288.550781 L 294.308594 354.679688 L 308.011719 354.679688 L 308.011719 262.472656 L 287.855469 262.472656 L 277.972656 327.941406 Z M 213.300781 275.644531 L 238.328125 275.644531 L 238.328125 262.472656 L 198.808594 262.472656 L 198.808594 354.679688 L 238.328125 354.679688 L 238.328125 341.507812 L 213.300781 341.507812 L 213.300781 314.503906 L 233.191406 314.503906 L 233.191406 301.332031 L 213.300781 301.332031 Z M 176.285156 320.296875 L 176.285156 333.46875 C 176.285156 335.671875 175.976562 337.402344 175.359375 338.722656 C 174.742188 340.035156 173.894531 340.984375 172.769531 341.574219 C 171.648438 342.167969 170.3125 342.449219 168.777344 342.433594 C 167.234375 342.449219 165.898438 342.167969 164.777344 341.574219 C 163.660156 340.984375 162.804688 340.035156 162.1875 338.722656 C 161.578125 337.402344 161.269531 335.671875 161.269531 333.46875 L 161.269531 283.683594 C 161.289062 280.410156 161.972656 278.078125 163.285156 276.65625 C 164.621094 275.25 166.445312 274.546875 168.777344 274.589844 C 171.101562 274.546875 172.925781 275.25 174.261719 276.65625 C 175.582031 278.078125 176.261719 280.410156 176.285156 283.683594 L 176.285156 293.558594 L 189.980469 293.558594 L 189.980469 284.601562 C 189.980469 279.664062 189.167969 275.472656 187.546875 272.019531 C 185.917969 268.574219 183.507812 265.960938 180.304688 264.140625 C 177.097656 262.34375 173.121094 261.441406 168.382812 261.417969 C 163.636719 261.441406 159.667969 262.34375 156.460938 264.140625 C 153.253906 265.960938 150.839844 268.574219 149.210938 272.019531 C 147.589844 275.472656 146.777344 279.664062 146.777344 284.601562 L 146.777344 332.550781 C 146.777344 337.488281 147.589844 341.660156 149.210938 345.109375 C 150.839844 348.558594 153.253906 351.191406 156.460938 353.011719 C 159.667969 354.808594 163.636719 355.710938 168.382812 355.734375 C 173.121094 355.710938 177.097656 354.808594 180.304688 353.011719 C 183.507812 351.191406 185.917969 348.558594 187.546875 345.109375 C 189.167969 341.660156 189.980469 337.488281 189.980469 332.550781 L 189.980469 320.296875 L 176.285156 320.296875 " fill-opacity="1" fill-rule="nonzero"/><path fill="#f3f3f3" d="M 125.53125 208.589844 L 481.617188 208.589844 C 483.289062 162.996094 492.007812 111.660156 512.8125 50.476562 C 379.316406 100.121094 291.101562 74.539062 218.664062 53.515625 C 173.738281 40.484375 135.1875 29.300781 96.460938 40.558594 C 119.859375 113 126.730469 164.316406 125.53125 208.589844 " fill-opacity="1" fill-rule="evenodd"/><path fill="#888b91" d="M 189.980469 320.296875 L 189.980469 332.550781 C 189.980469 337.488281 189.167969 341.660156 187.546875 345.109375 C 185.917969 348.558594 183.507812 351.191406 180.304688 353.011719 C 177.097656 354.808594 173.121094 355.710938 168.382812 355.734375 C 163.636719 355.710938 159.667969 354.808594 156.460938 353.011719 C 153.253906 351.191406 150.839844 348.558594 149.210938 345.109375 C 147.589844 341.660156 146.777344 337.488281 146.777344 332.550781 L 146.777344 284.601562 C 146.777344 279.664062 147.589844 275.472656 149.210938 272.019531 C 150.839844 268.574219 153.253906 265.960938 156.460938 264.140625 C 159.667969 262.34375 163.636719 261.441406 168.382812 261.417969 C 173.121094 261.441406 177.097656 262.34375 180.304688 264.140625 C 183.507812 265.960938 185.917969 268.574219 187.546875 272.019531 C 189.167969 275.472656 189.980469 279.664062 189.980469 284.601562 L 189.980469 293.558594 L 176.285156 293.558594 L 176.285156 283.683594 C 176.261719 280.410156 175.582031 278.078125 174.261719 276.65625 C 172.925781 275.25 171.101562 274.546875 168.777344 274.589844 C 166.445312 274.546875 164.621094 275.25 163.285156 276.65625 C 161.972656 278.078125 161.289062 280.410156 161.269531 283.683594 L 161.269531 333.46875 C 161.269531 335.671875 161.578125 337.402344 162.1875 338.722656 C 162.804688 340.035156 163.660156 340.984375 164.777344 341.574219 C 165.898438 342.167969 167.234375 342.449219 168.777344 342.433594 C 170.3125 342.449219 171.648438 342.167969 172.769531 341.574219 C 173.894531 340.984375 174.742188 340.035156 175.359375 338.722656 C 175.976562 337.402344 176.285156 335.671875 176.285156 333.46875 L 176.285156 320.296875 Z M 213.300781 314.503906 L 213.300781 341.507812 L 238.328125 341.507812 L 238.328125 354.679688 L 198.808594 354.679688 L 198.808594 262.472656 L 238.328125 262.472656 L 238.328125 275.644531 L 213.300781 275.644531 L 213.300781 301.332031 L 233.191406 301.332031 L 233.191406 314.503906 Z M 308.011719 262.472656 L 308.011719 354.679688 L 294.308594 354.679688 L 294.308594 288.550781 L 284.296875 354.679688 L 270.601562 354.679688 L 259.796875 289.476562 L 259.796875 354.679688 L 247.152344 354.679688 L 247.152344 262.472656 L 267.308594 262.472656 L 277.972656 327.941406 L 287.855469 262.472656 Z M 481.316406 226.769531 L 124.574219 226.769531 C 122.269531 256.503906 116.609375 283.769531 110.457031 313.351562 C 105.605469 336.710938 100.449219 361.558594 96.464844 390.382812 L 505.089844 390.382812 C 504.191406 386.234375 503.285156 382.09375 502.371094 377.949219 C 491.929688 330.308594 481.5 282.707031 481.316406 226.769531 Z M 358.070312 275.644531 L 333.039062 275.644531 L 333.039062 301.332031 L 352.929688 301.332031 L 352.929688 314.503906 L 333.039062 314.503906 L 333.039062 341.507812 L 358.070312 341.507812 L 358.070312 354.679688 L 318.550781 354.679688 L 318.550781 262.472656 L 358.070312 262.472656 Z M 412.867188 262.472656 L 412.867188 354.679688 L 397.984375 354.679688 L 379.933594 287.894531 L 379.933594 354.679688 L 366.890625 354.679688 L 366.890625 262.472656 L 385.074219 262.472656 L 399.953125 317.664062 L 399.953125 262.472656 Z M 448.695312 275.644531 L 448.695312 354.679688 L 434.207031 354.679688 L 434.207031 275.644531 L 419.058594 275.644531 L 419.058594 262.472656 L 463.847656 262.472656 L 463.847656 275.644531 L 448.695312 275.644531 " fill-opacity="1" fill-rule="evenodd"/><path fill="#f3f3f3" d="M 508.960938 408.5625 L 94.191406 408.5625 C 89.21875 452.808594 87.363281 506.441406 93.15625 577.007812 C 214.699219 546.378906 293.371094 558.300781 369.480469 569.832031 C 417.375 577.085938 464.242188 584.195312 519.910156 580.050781 C 527.707031 513.769531 519.644531 460.097656 508.960938 408.5625 " fill-opacity="1" fill-rule="evenodd"/></svg>