<svg xmlns="http://www.w3.org/2000/svg" xmlns:xlink="http://www.w3.org/1999/xlink" width="816" zoomAndPan="magnify" viewBox="0 0 612 611.999999" height="816" preserveAspectRatio="xMidYMid meet" version="1.0"><defs><clipPath id="a2ffbfb2c7"><path d="M 26.675781 41.996094 L 585.242188 41.996094 L 585.242188 569.996094 L 26.675781 569.996094 Z M 26.675781 41.996094 " clip-rule="nonzero"/></clipPath></defs><g clip-path="url(#a2ffbfb2c7)"><path fill="#000000" d="M 429.9375 299.734375 L 406.996094 274.828125 C 405.203125 272.878906 402.59375 272.082031 400.015625 272.648438 C 397.4375 273.214844 395.425781 275.074219 394.644531 277.589844 L 384.546875 309.9375 C 383.746094 312.457031 384.347656 315.125 386.140625 317.058594 C 386.554688 317.503906 387.015625 317.871094 387.492188 318.195312 C 387.644531 318.285156 387.800781 318.363281 387.953125 318.457031 C 388.304688 318.65625 388.675781 318.824219 389.058594 318.960938 C 389.242188 319.039062 389.410156 319.085938 389.59375 319.144531 C 390.007812 319.253906 390.421875 319.316406 390.851562 319.359375 C 391.007812 319.375 391.160156 319.390625 391.3125 319.40625 C 391.359375 319.40625 391.421875 319.421875 391.46875 319.421875 C 392.019531 319.421875 392.570312 319.359375 393.109375 319.238281 L 402.992188 317.027344 C 402.960938 317.628906 402.929688 318.242188 402.882812 318.839844 C 402.808594 319.945312 402.714844 321.050781 402.59375 322.140625 C 402.484375 323.273438 402.332031 324.394531 402.179688 325.515625 C 402.023438 326.605469 401.871094 327.710938 401.6875 328.785156 C 401.503906 329.902344 401.289062 331.007812 401.058594 332.113281 C 400.84375 333.1875 400.613281 334.261719 400.367188 335.335938 C 400.105469 336.425781 399.816406 337.515625 399.523438 338.589844 C 399.246094 339.648438 398.957031 340.707031 398.632812 341.765625 C 398.3125 342.839844 397.957031 343.898438 397.589844 344.957031 C 397.253906 345.988281 396.898438 347.03125 396.515625 348.058594 C 396.132812 349.101562 395.703125 350.144531 395.273438 351.1875 C 394.859375 352.1875 394.460938 353.199219 394.015625 354.195312 C 393.554688 355.226562 393.0625 356.238281 392.570312 357.25 C 392.113281 358.21875 391.636719 359.199219 391.144531 360.152344 C 390.621094 361.164062 390.054688 362.144531 389.503906 363.128906 C 388.980469 364.0625 388.460938 365 387.90625 365.921875 C 387.324219 366.902344 386.695312 367.855469 386.066406 368.820312 C 385.496094 369.710938 384.929688 370.617188 384.332031 371.492188 C 383.671875 372.441406 382.964844 373.363281 382.273438 374.300781 C 381.660156 375.144531 381.046875 375.988281 380.402344 376.816406 C 379.679688 377.738281 378.914062 378.640625 378.148438 379.546875 C 377.488281 380.332031 376.84375 381.128906 376.167969 381.910156 C 375.355469 382.800781 374.507812 383.660156 373.695312 384.535156 C 372.992188 385.273438 372.316406 386.007812 371.59375 386.730469 C 370.703125 387.605469 369.78125 388.433594 368.863281 389.277344 C 368.15625 389.9375 367.464844 390.628906 366.730469 391.257812 C 365.730469 392.132812 364.703125 392.945312 363.675781 393.773438 C 362.96875 394.339844 362.277344 394.941406 361.558594 395.492188 C 360.40625 396.398438 359.195312 397.226562 357.996094 398.070312 C 357.351562 398.515625 356.753906 398.976562 356.109375 399.40625 C 354.253906 400.664062 352.351562 401.84375 350.402344 402.980469 C 349.066406 403.75 348.113281 404.992188 347.714844 406.464844 C 347.332031 407.953125 347.53125 409.488281 348.296875 410.808594 C 349.328125 412.574219 351.214844 413.675781 353.269531 413.675781 C 354.285156 413.675781 355.28125 413.402344 356.125 412.910156 C 358.351562 411.621094 360.515625 410.269531 362.632812 408.84375 C 363.261719 408.429688 363.84375 407.953125 364.457031 407.523438 C 365.914062 406.511719 367.390625 405.484375 368.800781 404.410156 C 369.566406 403.808594 370.289062 403.179688 371.027344 402.566406 C 372.238281 401.585938 373.464844 400.617188 374.632812 399.589844 C 375.414062 398.898438 376.152344 398.164062 376.917969 397.457031 C 377.992188 396.460938 379.082031 395.476562 380.125 394.433594 C 380.878906 393.679688 381.585938 392.882812 382.304688 392.117188 C 383.304688 391.074219 384.316406 390.03125 385.265625 388.953125 C 385.988281 388.140625 386.648438 387.28125 387.339844 386.453125 C 388.246094 385.363281 389.164062 384.289062 390.023438 383.167969 C 390.699219 382.296875 391.328125 381.375 391.988281 380.484375 C 392.800781 379.347656 393.644531 378.242188 394.414062 377.09375 C 395.042969 376.171875 395.625 375.203125 396.222656 374.253906 C 396.960938 373.101562 397.710938 371.953125 398.402344 370.769531 C 398.988281 369.789062 399.507812 368.789062 400.046875 367.792969 C 400.707031 366.597656 401.378906 365.414062 401.996094 364.21875 C 402.5 363.1875 402.976562 362.128906 403.46875 361.085938 C 404.035156 359.875 404.617188 358.664062 405.15625 357.433594 C 405.617188 356.375 406.015625 355.285156 406.429688 354.210938 C 406.9375 352.96875 407.441406 351.710938 407.886719 350.453125 C 408.285156 349.363281 408.609375 348.257812 408.960938 347.152344 C 409.375 345.863281 409.804688 344.589844 410.171875 343.300781 C 410.496094 342.179688 410.773438 341.046875 411.046875 339.910156 C 411.386719 338.605469 411.722656 337.300781 412.015625 335.996094 C 412.261719 334.84375 412.460938 333.695312 412.675781 332.542969 C 412.921875 331.222656 413.179688 329.886719 413.382812 328.554688 C 413.550781 327.402344 413.671875 326.222656 413.8125 325.054688 C 413.980469 323.703125 414.148438 322.367188 414.253906 321.003906 C 414.347656 319.835938 414.410156 318.65625 414.46875 317.472656 C 414.515625 316.460938 414.625 315.433594 414.65625 314.40625 L 426.164062 311.828125 C 428.742188 311.242188 430.753906 309.386719 431.535156 306.871094 C 432.332031 304.351562 431.734375 301.683594 429.9375 299.734375 Z M 297.378906 205.449219 C 315.871094 205.449219 334.074219 210.28125 350.003906 219.429688 C 350.617188 219.78125 351.277344 219.964844 351.921875 220.074219 C 352.089844 220.089844 352.226562 220.117188 352.394531 220.117188 C 352.550781 220.132812 352.6875 220.179688 352.839844 220.179688 C 353.347656 220.179688 353.855469 220.117188 354.328125 219.980469 C 354.359375 219.980469 354.375 219.964844 354.40625 219.949219 C 355.019531 219.78125 355.574219 219.488281 356.09375 219.121094 C 356.234375 219.027344 356.355469 218.9375 356.476562 218.828125 C 357 218.414062 357.476562 217.925781 357.828125 217.308594 C 358.597656 215.992188 358.796875 214.441406 358.394531 212.96875 C 357.996094 211.496094 357.046875 210.25 355.710938 209.484375 C 338.046875 199.339844 317.867188 193.984375 297.378906 193.984375 C 294.925781 193.984375 292.453125 194.0625 290 194.230469 C 289.140625 194.277344 288.296875 194.382812 287.453125 194.460938 C 285.839844 194.597656 284.246094 194.722656 282.648438 194.921875 C 281.667969 195.058594 280.667969 195.242188 279.671875 195.394531 C 278.246094 195.609375 276.800781 195.8125 275.375 196.085938 C 274.332031 196.285156 273.289062 196.546875 272.242188 196.777344 C 270.894531 197.085938 269.527344 197.359375 268.191406 197.699219 C 267.117188 197.988281 266.058594 198.3125 264.984375 198.617188 C 263.695312 198.988281 262.40625 199.355469 261.117188 199.769531 C 260.042969 200.121094 258.984375 200.523438 257.925781 200.90625 C 256.667969 201.351562 255.425781 201.78125 254.183594 202.269531 C 253.121094 202.6875 252.078125 203.160156 251.019531 203.605469 C 249.824219 204.128906 248.609375 204.648438 247.414062 205.203125 C 246.371094 205.695312 245.34375 206.230469 244.3125 206.753906 C 243.453125 207.199219 242.59375 207.582031 241.734375 208.042969 L 234.890625 199.847656 C 233.203125 197.820312 230.65625 196.871094 228.046875 197.328125 C 225.4375 197.773438 223.335938 199.523438 222.429688 202.011719 L 210.753906 233.808594 C 209.847656 236.292969 210.308594 238.980469 212.011719 241.003906 C 213.421875 242.707031 215.433594 243.628906 217.582031 243.628906 C 218.011719 243.628906 218.425781 243.597656 218.871094 243.519531 L 252.234375 237.734375 C 254.839844 237.289062 256.945312 235.542969 257.847656 233.054688 C 258.753906 230.585938 258.292969 227.882812 256.605469 225.859375 L 249.285156 217.09375 C 249.839844 216.820312 250.390625 216.527344 250.960938 216.25 C 251.863281 215.804688 252.769531 215.375 253.675781 214.960938 C 254.734375 214.488281 255.808594 214.027344 256.882812 213.582031 C 257.789062 213.214844 258.695312 212.828125 259.613281 212.476562 C 260.71875 212.0625 261.824219 211.664062 262.945312 211.28125 C 263.863281 210.972656 264.769531 210.648438 265.691406 210.359375 C 266.84375 209.992188 267.992188 209.683594 269.144531 209.359375 C 270.066406 209.101562 270.96875 208.839844 271.890625 208.609375 C 273.089844 208.316406 274.285156 208.058594 275.496094 207.796875 C 276.386719 207.613281 277.277344 207.398438 278.167969 207.242188 C 279.441406 206.996094 280.714844 206.8125 281.988281 206.628906 C 282.847656 206.507812 283.675781 206.351562 284.535156 206.246094 C 285.949219 206.078125 287.375 205.953125 288.800781 205.847656 C 289.523438 205.785156 290.230469 205.695312 290.933594 205.648438 C 293.082031 205.523438 295.230469 205.449219 297.378906 205.449219 Z M 278.78125 420.980469 L 261.164062 392.054688 C 259.796875 389.785156 257.28125 388.296875 254.75 388.539062 C 252.125 388.601562 249.777344 390.015625 248.519531 392.347656 L 243.132812 402.199219 C 242.289062 401.675781 241.445312 401.15625 240.617188 400.632812 C 239.742188 400.066406 238.867188 399.527344 238.007812 398.945312 C 236.949219 398.222656 235.921875 397.457031 234.890625 396.703125 C 234.0625 396.089844 233.21875 395.492188 232.40625 394.863281 C 231.394531 394.082031 230.425781 393.25 229.460938 392.4375 C 228.675781 391.777344 227.863281 391.132812 227.097656 390.445312 C 226.160156 389.601562 225.253906 388.710938 224.332031 387.835938 C 223.597656 387.128906 222.84375 386.4375 222.125 385.71875 C 221.234375 384.8125 220.390625 383.859375 219.53125 382.925781 C 218.839844 382.1875 218.148438 381.449219 217.488281 380.683594 C 216.644531 379.71875 215.863281 378.71875 215.066406 377.738281 C 214.4375 376.953125 213.792969 376.1875 213.175781 375.390625 C 212.410156 374.359375 211.6875 373.316406 210.953125 372.257812 C 210.367188 371.460938 209.785156 370.664062 209.234375 369.835938 C 208.511719 368.746094 207.851562 367.625 207.175781 366.519531 C 206.671875 365.691406 206.132812 364.878906 205.65625 364.046875 C 204.996094 362.898438 204.382812 361.714844 203.769531 360.550781 C 203.339844 359.707031 202.863281 358.890625 202.449219 358.03125 C 201.851562 356.835938 201.316406 355.59375 200.777344 354.367188 C 200.394531 353.519531 199.980469 352.691406 199.625 351.832031 C 199.105469 350.558594 198.644531 349.253906 198.152344 347.964844 C 197.847656 347.121094 197.507812 346.292969 197.21875 345.449219 C 196.742188 344.097656 196.359375 342.71875 195.945312 341.335938 C 195.699219 340.523438 195.421875 339.726562 195.207031 338.910156 C 194.824219 337.484375 194.5 336.027344 194.179688 334.570312 C 193.996094 333.785156 193.78125 333.019531 193.609375 332.222656 C 193.304688 330.703125 193.074219 329.167969 192.828125 327.632812 C 192.722656 326.894531 192.566406 326.160156 192.460938 325.421875 C 192.230469 323.71875 192.09375 322 191.9375 320.28125 C 191.890625 319.699219 191.800781 319.117188 191.753906 318.515625 C 191.601562 316.199219 191.523438 313.882812 191.507812 311.535156 C 191.507812 308.390625 188.929688 305.8125 185.769531 305.8125 C 184.25 305.8125 182.808594 306.410156 181.71875 307.5 C 180.644531 308.574219 180.046875 310.015625 180.046875 311.550781 C 180.0625 314.144531 180.152344 316.722656 180.320312 319.300781 C 180.382812 320.207031 180.519531 321.109375 180.597656 322.015625 C 180.75 323.65625 180.890625 325.316406 181.105469 326.941406 C 181.242188 327.984375 181.457031 329.015625 181.625 330.042969 C 181.871094 331.53125 182.085938 333.019531 182.378906 334.492188 C 182.609375 335.582031 182.898438 336.640625 183.144531 337.714844 C 183.46875 339.113281 183.757812 340.523438 184.144531 341.90625 C 184.433594 342.992188 184.800781 344.066406 185.125 345.140625 C 185.539062 346.476562 185.921875 347.84375 186.367188 349.164062 C 186.734375 350.238281 187.164062 351.296875 187.566406 352.355469 C 188.054688 353.660156 188.53125 354.980469 189.054688 356.253906 C 189.5 357.296875 189.988281 358.308594 190.449219 359.335938 C 191.03125 360.609375 191.570312 361.898438 192.199219 363.144531 C 192.691406 364.171875 193.257812 365.152344 193.78125 366.167969 C 194.441406 367.378906 195.070312 368.621094 195.746094 369.820312 C 196.328125 370.816406 196.957031 371.78125 197.570312 372.78125 C 198.277344 373.929688 198.980469 375.113281 199.734375 376.25 C 200.378906 377.214844 201.085938 378.167969 201.761719 379.117188 C 202.542969 380.222656 203.292969 381.328125 204.109375 382.402344 C 204.828125 383.355469 205.613281 384.257812 206.363281 385.195312 C 207.191406 386.222656 208.019531 387.265625 208.894531 388.28125 C 209.695312 389.199219 210.539062 390.074219 211.367188 390.980469 C 212.257812 391.933594 213.117188 392.914062 214.035156 393.851562 C 214.910156 394.742188 215.847656 395.585938 216.753906 396.445312 C 217.671875 397.332031 218.59375 398.222656 219.5625 399.082031 C 220.511719 399.941406 221.527344 400.742188 222.507812 401.570312 C 223.472656 402.367188 224.425781 403.195312 225.421875 403.980469 C 226.46875 404.777344 227.554688 405.542969 228.617188 406.3125 C 229.628906 407.046875 230.609375 407.785156 231.636719 408.492188 C 232.773438 409.257812 233.941406 409.964844 235.089844 410.683594 C 235.933594 411.222656 236.75 411.789062 237.609375 412.296875 L 232.269531 422.054688 C 231.007812 424.390625 231.070312 427.121094 232.453125 429.375 C 233.785156 431.570312 236.105469 432.875 238.667969 432.875 C 238.726562 432.875 238.789062 432.875 238.851562 432.875 L 272.71875 432.09375 C 275.359375 432.015625 277.691406 430.605469 278.964844 428.285156 C 280.222656 425.96875 280.164062 423.238281 278.78125 420.980469 Z M 537.515625 114.15625 C 537.574219 115.074219 537.621094 115.996094 537.621094 116.933594 L 537.621094 500.214844 C 537.621094 538.746094 506.253906 570.113281 467.707031 570.113281 L 144.210938 570.113281 C 105.679688 570.113281 74.3125 538.746094 74.3125 500.214844 L 74.3125 116.933594 C 74.3125 116.027344 74.359375 115.136719 74.402344 114.15625 Z M 585.257812 55.027344 L 585.257812 96.109375 C 585.257812 103.304688 579.394531 109.167969 572.210938 109.167969 L 39.722656 109.167969 C 32.523438 109.167969 26.675781 103.304688 26.675781 96.109375 L 26.675781 55.027344 C 26.675781 47.828125 32.523438 41.984375 39.722656 41.984375 L 572.210938 41.984375 C 579.394531 41.984375 585.257812 47.828125 585.257812 55.027344 " fill-opacity="1" fill-rule="nonzero"/></g></svg>