<svg xmlns="http://www.w3.org/2000/svg" xmlns:xlink="http://www.w3.org/1999/xlink" width="816" zoomAndPan="magnify" viewBox="0 0 612 611.999999" height="816" preserveAspectRatio="xMidYMid meet" version="1.0"><defs><clipPath id="3663222e59"><path d="M 12.824219 59.460938 L 599.433594 59.460938 L 599.433594 552.058594 L 12.824219 552.058594 Z M 12.824219 59.460938 " clip-rule="nonzero"/></clipPath><clipPath id="85bc859abf"><path d="M 372 457 L 468 457 L 468 552.058594 L 372 552.058594 Z M 372 457 " clip-rule="nonzero"/></clipPath><clipPath id="cfebf16e0c"><path d="M 145 457 L 240 457 L 240 552.058594 L 145 552.058594 Z M 145 457 " clip-rule="nonzero"/></clipPath><clipPath id="b65967353d"><path d="M 258 457 L 354 457 L 354 552.058594 L 258 552.058594 Z M 258 457 " clip-rule="nonzero"/></clipPath></defs><g clip-path="url(#3663222e59)"><path fill="#100f0d" d="M 224.054688 171.933594 L 388.203125 171.933594 C 392.109375 171.933594 395.339844 175.105469 395.339844 179.0625 C 395.339844 183.015625 392.109375 186.1875 388.203125 186.1875 L 224.054688 186.1875 C 220.09375 186.1875 216.917969 183.015625 216.917969 179.0625 C 216.917969 175.105469 220.09375 171.933594 224.054688 171.933594 Z M 256.550781 137.390625 C 256.65625 137.390625 256.757812 137.390625 256.863281 137.390625 L 355.394531 137.390625 C 359.351562 137.445312 362.527344 140.667969 362.476562 144.621094 C 362.425781 148.472656 359.300781 151.644531 355.394531 151.644531 L 256.863281 151.644531 C 252.90625 151.699219 249.675781 148.523438 249.625 144.570312 C 249.625 140.722656 252.695312 137.496094 256.550781 137.390625 Z M 305.554688 59.410156 C 301.960938 59.515625 298.421875 60.296875 295.191406 61.75 L 12.824219 188.214844 L 12.824219 247.3125 L 50.789062 247.3125 L 50.789062 552.058594 L 106.410156 552.058594 L 106.410156 265.519531 L 505.796875 265.519531 L 505.796875 552.058594 L 561.519531 552.058594 L 561.519531 247.3125 L 599.433594 247.3125 L 599.433594 188.214844 L 317.066406 61.75 C 313.417969 60.140625 309.511719 59.359375 305.554688 59.460938 L 305.554688 59.410156 " fill-opacity="1" fill-rule="nonzero"/></g><g clip-path="url(#85bc859abf)"><path fill="#100f0d" d="M 379.558594 552.058594 L 460.125 552.058594 C 464.027344 552.058594 467.207031 548.933594 467.207031 545.035156 L 467.207031 464.242188 C 467.207031 460.34375 464.027344 457.222656 460.125 457.222656 L 379.558594 457.222656 C 375.652344 457.222656 372.476562 460.34375 372.476562 464.242188 L 372.476562 545.035156 C 372.476562 548.933594 375.652344 552.058594 379.558594 552.058594 " fill-opacity="1" fill-rule="nonzero"/></g><g clip-path="url(#cfebf16e0c)"><path fill="#100f0d" d="M 232.699219 552.058594 C 236.605469 552.058594 239.78125 548.933594 239.78125 545.035156 L 239.78125 464.242188 C 239.78125 460.34375 236.605469 457.222656 232.699219 457.222656 L 152.082031 457.222656 C 148.175781 457.222656 145.050781 460.34375 145.050781 464.242188 L 145.050781 545.035156 C 145.050781 548.933594 148.175781 552.058594 152.082031 552.058594 L 232.699219 552.058594 " fill-opacity="1" fill-rule="nonzero"/></g><g clip-path="url(#b65967353d)"><path fill="#100f0d" d="M 258.738281 464.242188 L 258.738281 545.035156 C 258.738281 548.933594 261.914062 552.058594 265.820312 552.058594 L 346.4375 552.058594 C 350.289062 552.058594 353.46875 548.933594 353.46875 545.035156 L 353.46875 464.242188 C 353.46875 460.34375 350.289062 457.222656 346.4375 457.222656 L 265.820312 457.222656 C 261.914062 457.222656 258.738281 460.34375 258.738281 464.242188 " fill-opacity="1" fill-rule="nonzero"/></g><path fill="#100f0d" d="M 289.566406 436.046875 C 293.421875 436.046875 296.597656 432.925781 296.597656 429.027344 L 296.597656 348.234375 C 296.597656 344.335938 293.421875 341.210938 289.566406 341.210938 L 208.949219 341.210938 C 205.046875 341.210938 201.867188 344.335938 201.867188 348.234375 L 201.867188 429.027344 C 201.867188 432.925781 205.046875 436.046875 208.949219 436.046875 L 289.566406 436.046875 " fill-opacity="1" fill-rule="nonzero"/><path fill="#100f0d" d="M 322.636719 436.046875 L 403.253906 436.046875 C 407.160156 436.046875 410.335938 432.925781 410.335938 429.027344 L 410.335938 348.234375 C 410.335938 344.335938 407.160156 341.210938 403.253906 341.210938 L 322.636719 341.210938 C 318.785156 341.210938 315.605469 344.335938 315.605469 348.234375 L 315.605469 429.027344 C 315.605469 432.925781 318.785156 436.046875 322.636719 436.046875 " fill-opacity="1" fill-rule="nonzero"/></svg>