<svg xmlns="http://www.w3.org/2000/svg" xmlns:xlink="http://www.w3.org/1999/xlink" width="816" zoomAndPan="magnify" viewBox="0 0 612 611.999999" height="816" preserveAspectRatio="xMidYMid meet" version="1.0"><defs><clipPath id="ce9d7a1e27"><path d="M 12.824219 59.464844 L 599.175781 59.464844 L 599.175781 552.214844 L 12.824219 552.214844 Z M 12.824219 59.464844 " clip-rule="nonzero"/></clipPath><clipPath id="6eb68c170c"><path d="M 372 457 L 468 457 L 468 552.214844 L 372 552.214844 Z M 372 457 " clip-rule="nonzero"/></clipPath><clipPath id="2d8b5f8467"><path d="M 144 457 L 240 457 L 240 552.214844 L 144 552.214844 Z M 144 457 " clip-rule="nonzero"/></clipPath><clipPath id="c294f9740c"><path d="M 258 457 L 354 457 L 354 552.214844 L 258 552.214844 Z M 258 457 " clip-rule="nonzero"/></clipPath></defs><g clip-path="url(#ce9d7a1e27)"><path fill="#54565b" d="M 223.960938 172.007812 L 388.039062 172.007812 C 391.941406 172.007812 395.171875 175.179688 395.171875 179.136719 C 395.171875 183.09375 391.941406 186.269531 388.039062 186.269531 L 223.960938 186.269531 C 220.003906 186.269531 216.828125 183.09375 216.828125 179.136719 C 216.828125 175.179688 220.003906 172.007812 223.960938 172.007812 Z M 256.441406 137.441406 C 256.546875 137.441406 256.652344 137.441406 256.753906 137.441406 L 355.242188 137.441406 C 359.199219 137.492188 362.375 140.722656 362.324219 144.675781 C 362.269531 148.53125 359.148438 151.703125 355.242188 151.703125 L 256.753906 151.703125 C 252.800781 151.757812 249.570312 148.582031 249.519531 144.625 C 249.519531 140.773438 252.589844 137.546875 256.441406 137.441406 Z M 305.425781 59.410156 C 301.835938 59.515625 298.296875 60.296875 295.066406 61.753906 L 12.824219 188.300781 L 12.824219 247.433594 L 50.773438 247.433594 L 50.773438 552.375 L 106.367188 552.375 L 106.367188 265.652344 L 505.578125 265.652344 L 505.578125 552.375 L 561.277344 552.375 L 561.277344 247.433594 L 599.175781 247.433594 L 599.175781 188.300781 L 316.929688 61.753906 C 313.289062 60.140625 309.382812 59.359375 305.425781 59.464844 L 305.425781 59.410156 " fill-opacity="1" fill-rule="nonzero"/></g><g clip-path="url(#6eb68c170c)"><path fill="#54565b" d="M 379.398438 552.375 L 459.925781 552.375 C 463.832031 552.375 467.007812 549.25 467.007812 545.347656 L 467.007812 464.503906 C 467.007812 460.601562 463.832031 457.476562 459.925781 457.476562 L 379.398438 457.476562 C 375.492188 457.476562 372.316406 460.601562 372.316406 464.503906 L 372.316406 545.347656 C 372.316406 549.25 375.492188 552.375 379.398438 552.375 " fill-opacity="1" fill-rule="nonzero"/></g><g clip-path="url(#2d8b5f8467)"><path fill="#54565b" d="M 232.601562 552.375 C 236.507812 552.375 239.679688 549.25 239.679688 545.347656 L 239.679688 464.503906 C 239.679688 460.601562 236.507812 457.476562 232.601562 457.476562 L 152.019531 457.476562 C 148.117188 457.476562 144.992188 460.601562 144.992188 464.503906 L 144.992188 545.347656 C 144.992188 549.25 148.117188 552.375 152.019531 552.375 L 232.601562 552.375 " fill-opacity="1" fill-rule="nonzero"/></g><g clip-path="url(#c294f9740c)"><path fill="#54565b" d="M 258.628906 464.503906 L 258.628906 545.347656 C 258.628906 549.25 261.804688 552.375 265.707031 552.375 L 346.289062 552.375 C 350.140625 552.375 353.316406 549.25 353.316406 545.347656 L 353.316406 464.503906 C 353.316406 460.601562 350.140625 457.476562 346.289062 457.476562 L 265.707031 457.476562 C 261.804688 457.476562 258.628906 460.601562 258.628906 464.503906 " fill-opacity="1" fill-rule="nonzero"/></g><path fill="#54565b" d="M 289.445312 436.289062 C 293.296875 436.289062 296.472656 433.167969 296.472656 429.261719 L 296.472656 348.421875 C 296.472656 344.515625 293.296875 341.394531 289.445312 341.394531 L 208.863281 341.394531 C 204.960938 341.394531 201.785156 344.515625 201.785156 348.421875 L 201.785156 429.261719 C 201.785156 433.167969 204.960938 436.289062 208.863281 436.289062 L 289.445312 436.289062 " fill-opacity="1" fill-rule="nonzero"/><path fill="#54565b" d="M 322.5 436.289062 L 403.082031 436.289062 C 406.988281 436.289062 410.160156 433.167969 410.160156 429.261719 L 410.160156 348.421875 C 410.160156 344.515625 406.988281 341.394531 403.082031 341.394531 L 322.5 341.394531 C 318.648438 341.394531 315.472656 344.515625 315.472656 348.421875 L 315.472656 429.261719 C 315.472656 433.167969 318.648438 436.289062 322.5 436.289062 " fill-opacity="1" fill-rule="nonzero"/></svg>