<svg xmlns="http://www.w3.org/2000/svg" xmlns:xlink="http://www.w3.org/1999/xlink" width="816" zoomAndPan="magnify" viewBox="0 0 612 611.999999" height="816" preserveAspectRatio="xMidYMid meet" version="1.0"><defs><clipPath id="0d5b72bb6a"><path d="M 24.574219 66 L 587 66 L 587 547 L 24.574219 547 Z M 24.574219 66 " clip-rule="nonzero"/></clipPath></defs><path fill="#000000" d="M 202.300781 215.683594 L 202.300781 188.707031 C 202.300781 188.046875 202.238281 187.394531 202.109375 186.746094 C 201.980469 186.097656 201.789062 185.46875 201.539062 184.859375 C 201.285156 184.25 200.976562 183.667969 200.609375 183.121094 C 200.242188 182.570312 199.828125 182.0625 199.359375 181.597656 C 198.894531 181.128906 198.386719 180.710938 197.839844 180.34375 C 197.289062 179.980469 196.710938 179.667969 196.101562 179.417969 C 195.492188 179.164062 194.863281 178.972656 194.21875 178.84375 C 193.570312 178.714844 192.917969 178.652344 192.257812 178.652344 C 191.597656 178.652344 190.945312 178.714844 190.296875 178.84375 C 189.652344 178.972656 189.023438 179.164062 188.414062 179.417969 C 187.804688 179.667969 187.226562 179.980469 186.675781 180.34375 C 186.128906 180.710938 185.621094 181.128906 185.15625 181.597656 C 184.6875 182.0625 184.273438 182.570312 183.90625 183.121094 C 183.539062 183.667969 183.230469 184.25 182.976562 184.859375 C 182.726562 185.46875 182.535156 186.097656 182.40625 186.746094 C 182.277344 187.394531 182.214844 188.046875 182.214844 188.707031 L 182.214844 215.683594 C 182.226562 216.335938 182.300781 216.980469 182.4375 217.617188 C 182.578125 218.253906 182.773438 218.871094 183.03125 219.472656 C 183.292969 220.070312 183.605469 220.640625 183.972656 221.175781 C 184.339844 221.714844 184.757812 222.210938 185.222656 222.667969 C 185.6875 223.125 186.191406 223.53125 186.738281 223.890625 C 187.28125 224.25 187.855469 224.550781 188.457031 224.800781 C 189.0625 225.046875 189.683594 225.230469 190.320312 225.359375 C 190.960938 225.484375 191.605469 225.546875 192.257812 225.546875 C 192.910156 225.546875 193.554688 225.484375 194.195312 225.359375 C 194.832031 225.230469 195.453125 225.046875 196.058594 224.800781 C 196.660156 224.550781 197.234375 224.25 197.777344 223.890625 C 198.320312 223.53125 198.828125 223.125 199.292969 222.667969 C 199.757812 222.210938 200.175781 221.714844 200.542969 221.175781 C 200.910156 220.640625 201.222656 220.070312 201.480469 219.472656 C 201.742188 218.871094 201.9375 218.253906 202.078125 217.617188 C 202.214844 216.980469 202.289062 216.335938 202.300781 215.683594 Z M 202.300781 215.683594 " fill-opacity="1" fill-rule="nonzero"/><path fill="#000000" d="M 239.683594 215.683594 L 239.683594 188.707031 C 239.683594 188.046875 239.621094 187.394531 239.492188 186.746094 C 239.363281 186.097656 239.171875 185.46875 238.921875 184.859375 C 238.667969 184.25 238.359375 183.667969 237.992188 183.121094 C 237.625 182.570312 237.210938 182.0625 236.742188 181.597656 C 236.277344 181.128906 235.769531 180.710938 235.222656 180.34375 C 234.671875 179.980469 234.09375 179.667969 233.484375 179.417969 C 232.875 179.164062 232.246094 178.972656 231.601562 178.84375 C 230.953125 178.714844 230.300781 178.652344 229.640625 178.652344 C 228.980469 178.652344 228.328125 178.714844 227.679688 178.84375 C 227.035156 178.972656 226.40625 179.164062 225.796875 179.417969 C 225.1875 179.667969 224.609375 179.980469 224.058594 180.34375 C 223.511719 180.710938 223.003906 181.128906 222.539062 181.597656 C 222.070312 182.0625 221.65625 182.570312 221.289062 183.121094 C 220.921875 183.667969 220.613281 184.25 220.359375 184.859375 C 220.109375 185.46875 219.917969 186.097656 219.789062 186.746094 C 219.660156 187.394531 219.597656 188.046875 219.597656 188.707031 L 219.597656 215.683594 C 219.609375 216.335938 219.683594 216.980469 219.820312 217.617188 C 219.960938 218.253906 220.15625 218.871094 220.414062 219.472656 C 220.675781 220.070312 220.988281 220.640625 221.355469 221.175781 C 221.722656 221.714844 222.140625 222.210938 222.605469 222.667969 C 223.070312 223.125 223.574219 223.535156 224.121094 223.890625 C 224.664062 224.25 225.238281 224.554688 225.839844 224.800781 C 226.445312 225.046875 227.066406 225.234375 227.703125 225.359375 C 228.34375 225.484375 228.988281 225.546875 229.640625 225.546875 C 230.292969 225.546875 230.9375 225.484375 231.578125 225.359375 C 232.214844 225.234375 232.835938 225.046875 233.441406 224.800781 C 234.042969 224.554688 234.617188 224.25 235.160156 223.890625 C 235.707031 223.535156 236.210938 223.125 236.675781 222.667969 C 237.140625 222.210938 237.558594 221.714844 237.925781 221.175781 C 238.292969 220.640625 238.605469 220.070312 238.867188 219.472656 C 239.125 218.871094 239.320312 218.253906 239.460938 217.617188 C 239.597656 216.980469 239.671875 216.335938 239.683594 215.683594 Z M 239.683594 215.683594 " fill-opacity="1" fill-rule="nonzero"/><path fill="#000000" d="M 353.191406 227.882812 C 352.53125 227.882812 351.878906 227.945312 351.234375 228.074219 C 350.585938 228.203125 349.957031 228.394531 349.347656 228.644531 C 348.738281 228.898438 348.160156 229.207031 347.609375 229.574219 C 347.0625 229.941406 346.554688 230.359375 346.089844 230.828125 C 345.621094 231.292969 345.207031 231.800781 344.839844 232.351562 C 344.472656 232.898438 344.164062 233.480469 343.910156 234.089844 C 343.660156 234.699219 343.46875 235.328125 343.339844 235.976562 C 343.210938 236.625 343.148438 237.28125 343.148438 237.941406 L 343.148438 264.902344 C 343.148438 265.5625 343.210938 266.21875 343.339844 266.867188 C 343.46875 267.515625 343.660156 268.144531 343.914062 268.753906 C 344.164062 269.363281 344.472656 269.941406 344.839844 270.492188 C 345.207031 271.042969 345.625 271.550781 346.089844 272.015625 C 346.554688 272.484375 347.0625 272.898438 347.613281 273.265625 C 348.160156 273.632812 348.738281 273.945312 349.347656 274.195312 C 349.957031 274.449219 350.585938 274.640625 351.234375 274.769531 C 351.878906 274.898438 352.53125 274.960938 353.191406 274.960938 C 353.851562 274.960938 354.503906 274.898438 355.152344 274.769531 C 355.800781 274.640625 356.425781 274.449219 357.035156 274.195312 C 357.644531 273.945312 358.226562 273.632812 358.773438 273.265625 C 359.320312 272.898438 359.828125 272.484375 360.296875 272.015625 C 360.761719 271.550781 361.179688 271.042969 361.542969 270.492188 C 361.910156 269.941406 362.21875 269.363281 362.472656 268.753906 C 362.726562 268.144531 362.914062 267.515625 363.042969 266.867188 C 363.171875 266.21875 363.238281 265.5625 363.238281 264.902344 L 363.238281 237.941406 C 363.238281 237.28125 363.171875 236.625 363.046875 235.976562 C 362.917969 235.328125 362.726562 234.699219 362.472656 234.089844 C 362.222656 233.480469 361.914062 232.898438 361.546875 232.351562 C 361.179688 231.800781 360.761719 231.292969 360.296875 230.828125 C 359.832031 230.359375 359.324219 229.941406 358.773438 229.574219 C 358.226562 229.207031 357.648438 228.898438 357.039062 228.644531 C 356.429688 228.394531 355.800781 228.203125 355.152344 228.074219 C 354.503906 227.945312 353.851562 227.882812 353.191406 227.882812 Z M 353.191406 227.882812 " fill-opacity="1" fill-rule="nonzero"/><path fill="#000000" d="M 390.574219 227.882812 C 389.914062 227.882812 389.261719 227.945312 388.617188 228.074219 C 387.96875 228.203125 387.339844 228.394531 386.730469 228.644531 C 386.121094 228.898438 385.542969 229.207031 384.992188 229.574219 C 384.445312 229.941406 383.9375 230.359375 383.472656 230.828125 C 383.003906 231.292969 382.589844 231.800781 382.222656 232.351562 C 381.855469 232.898438 381.546875 233.480469 381.292969 234.089844 C 381.042969 234.699219 380.851562 235.328125 380.722656 235.976562 C 380.59375 236.625 380.53125 237.28125 380.53125 237.941406 L 380.53125 264.902344 C 380.53125 265.5625 380.59375 266.21875 380.722656 266.867188 C 380.851562 267.515625 381.042969 268.144531 381.296875 268.753906 C 381.546875 269.363281 381.855469 269.941406 382.222656 270.492188 C 382.589844 271.042969 383.007812 271.550781 383.472656 272.015625 C 383.9375 272.484375 384.445312 272.898438 384.996094 273.265625 C 385.542969 273.632812 386.121094 273.945312 386.730469 274.195312 C 387.339844 274.449219 387.96875 274.640625 388.617188 274.769531 C 389.261719 274.898438 389.917969 274.960938 390.574219 274.960938 C 391.234375 274.960938 391.886719 274.898438 392.535156 274.769531 C 393.183594 274.640625 393.808594 274.449219 394.417969 274.195312 C 395.027344 273.945312 395.609375 273.632812 396.15625 273.265625 C 396.703125 272.898438 397.210938 272.484375 397.679688 272.015625 C 398.144531 271.550781 398.5625 271.042969 398.925781 270.492188 C 399.292969 269.941406 399.601562 269.363281 399.855469 268.753906 C 400.109375 268.144531 400.296875 267.515625 400.425781 266.867188 C 400.554688 266.21875 400.621094 265.5625 400.621094 264.902344 L 400.621094 237.941406 C 400.621094 237.28125 400.554688 236.625 400.429688 235.976562 C 400.300781 235.328125 400.109375 234.699219 399.855469 234.089844 C 399.605469 233.480469 399.296875 232.898438 398.929688 232.351562 C 398.5625 231.800781 398.144531 231.292969 397.679688 230.828125 C 397.214844 230.359375 396.707031 229.941406 396.15625 229.574219 C 395.609375 229.207031 395.03125 228.898438 394.421875 228.644531 C 393.8125 228.394531 393.183594 228.203125 392.535156 228.074219 C 391.886719 227.945312 391.234375 227.882812 390.574219 227.882812 Z M 390.574219 227.882812 " fill-opacity="1" fill-rule="nonzero"/><path fill="#000000" d="M 471.421875 302.261719 C 470.761719 302.257812 470.109375 302.324219 469.464844 302.453125 C 468.816406 302.582031 468.1875 302.769531 467.578125 303.023438 C 466.96875 303.277344 466.390625 303.585938 465.839844 303.953125 C 465.292969 304.320312 464.785156 304.738281 464.320312 305.203125 C 463.851562 305.671875 463.4375 306.179688 463.070312 306.730469 C 462.703125 307.277344 462.394531 307.859375 462.140625 308.46875 C 461.890625 309.078125 461.699219 309.707031 461.570312 310.355469 C 461.441406 311.003906 461.378906 311.65625 461.378906 312.320312 L 461.378906 339.28125 C 461.378906 339.941406 461.441406 340.597656 461.570312 341.242188 C 461.699219 341.890625 461.890625 342.519531 462.144531 343.132812 C 462.394531 343.742188 462.703125 344.320312 463.070312 344.871094 C 463.4375 345.417969 463.855469 345.925781 464.320312 346.394531 C 464.785156 346.859375 465.292969 347.277344 465.84375 347.644531 C 466.390625 348.011719 466.96875 348.320312 467.578125 348.574219 C 468.1875 348.828125 468.816406 349.019531 469.464844 349.148438 C 470.109375 349.277344 470.761719 349.339844 471.421875 349.339844 C 472.082031 349.339844 472.734375 349.277344 473.382812 349.148438 C 474.03125 349.019531 474.65625 348.828125 475.265625 348.574219 C 475.875 348.320312 476.457031 348.011719 477.003906 347.644531 C 477.550781 347.277344 478.058594 346.859375 478.527344 346.394531 C 478.992188 345.925781 479.410156 345.417969 479.773438 344.871094 C 480.140625 344.320312 480.449219 343.742188 480.703125 343.132812 C 480.957031 342.519531 481.144531 341.890625 481.273438 341.242188 C 481.402344 340.597656 481.46875 339.941406 481.46875 339.28125 L 481.46875 312.320312 C 481.46875 311.65625 481.402344 311.003906 481.277344 310.355469 C 481.148438 309.707031 480.957031 309.078125 480.703125 308.46875 C 480.453125 307.859375 480.144531 307.277344 479.777344 306.730469 C 479.410156 306.179688 478.992188 305.671875 478.527344 305.203125 C 478.0625 304.738281 477.554688 304.320312 477.003906 303.953125 C 476.457031 303.585938 475.878906 303.277344 475.269531 303.023438 C 474.660156 302.769531 474.03125 302.582031 473.382812 302.453125 C 472.734375 302.324219 472.082031 302.257812 471.421875 302.261719 Z M 471.421875 302.261719 " fill-opacity="1" fill-rule="nonzero"/><path fill="#000000" d="M 508.804688 302.261719 C 508.144531 302.257812 507.492188 302.324219 506.847656 302.453125 C 506.199219 302.582031 505.570312 302.769531 504.960938 303.023438 C 504.351562 303.277344 503.773438 303.585938 503.222656 303.953125 C 502.675781 304.320312 502.167969 304.738281 501.703125 305.203125 C 501.234375 305.671875 500.820312 306.179688 500.453125 306.730469 C 500.085938 307.277344 499.777344 307.859375 499.523438 308.46875 C 499.273438 309.078125 499.082031 309.707031 498.953125 310.355469 C 498.824219 311.003906 498.761719 311.65625 498.761719 312.320312 L 498.761719 339.28125 C 498.761719 339.941406 498.824219 340.597656 498.953125 341.242188 C 499.082031 341.890625 499.273438 342.519531 499.527344 343.132812 C 499.777344 343.742188 500.085938 344.320312 500.453125 344.871094 C 500.820312 345.417969 501.238281 345.925781 501.703125 346.394531 C 502.167969 346.859375 502.675781 347.277344 503.226562 347.644531 C 503.773438 348.011719 504.351562 348.320312 504.960938 348.574219 C 505.570312 348.828125 506.199219 349.019531 506.847656 349.148438 C 507.492188 349.277344 508.148438 349.339844 508.804688 349.339844 C 509.464844 349.339844 510.117188 349.277344 510.765625 349.148438 C 511.414062 349.019531 512.039062 348.828125 512.648438 348.574219 C 513.257812 348.320312 513.839844 348.011719 514.386719 347.644531 C 514.933594 347.277344 515.441406 346.859375 515.910156 346.394531 C 516.375 345.925781 516.792969 345.417969 517.15625 344.871094 C 517.523438 344.320312 517.832031 343.742188 518.085938 343.132812 C 518.339844 342.519531 518.527344 341.890625 518.65625 341.242188 C 518.785156 340.597656 518.851562 339.941406 518.851562 339.28125 L 518.851562 312.320312 C 518.851562 311.65625 518.789062 311.003906 518.660156 310.355469 C 518.53125 309.707031 518.339844 309.078125 518.085938 308.46875 C 517.835938 307.859375 517.527344 307.277344 517.160156 306.730469 C 516.792969 306.179688 516.375 305.671875 515.910156 305.203125 C 515.445312 304.738281 514.9375 304.320312 514.386719 303.953125 C 513.839844 303.585938 513.261719 303.277344 512.652344 303.023438 C 512.042969 302.769531 511.414062 302.582031 510.765625 302.453125 C 510.117188 302.324219 509.464844 302.257812 508.804688 302.261719 Z M 508.804688 302.261719 " fill-opacity="1" fill-rule="nonzero"/><g clip-path="url(#0d5b72bb6a)"><path fill="#000000" d="M 577.027344 526.609375 L 553.171875 526.609375 L 553.171875 287.289062 C 553.175781 286.257812 553.019531 285.25 552.710938 284.265625 C 552.398438 283.28125 551.949219 282.363281 551.359375 281.519531 C 550.765625 280.675781 550.0625 279.9375 549.242188 279.308594 C 548.425781 278.683594 547.53125 278.191406 546.5625 277.839844 C 537.753906 274.640625 528.753906 272.136719 519.558594 270.335938 C 510.363281 268.535156 501.082031 267.453125 491.722656 267.09375 C 482.359375 266.730469 473.023438 267.097656 463.71875 268.1875 C 454.410156 269.277344 445.246094 271.078125 436.21875 273.589844 L 436.21875 210.683594 C 436.21875 209.640625 436.058594 208.621094 435.742188 207.625 C 435.425781 206.632812 434.96875 205.710938 434.363281 204.859375 C 433.761719 204.007812 433.042969 203.269531 432.210938 202.640625 C 431.378906 202.015625 430.472656 201.527344 429.488281 201.183594 C 423.378906 199.0625 417.199219 197.183594 410.945312 195.539062 C 404.691406 193.894531 398.382812 192.496094 392.023438 191.335938 C 385.664062 190.179688 379.265625 189.265625 372.835938 188.601562 C 366.402344 187.9375 359.957031 187.519531 353.492188 187.351562 C 347.03125 187.179688 340.570312 187.261719 334.113281 187.589844 C 327.65625 187.917969 321.222656 188.496094 314.808594 189.320312 C 308.394531 190.144531 302.023438 191.214844 295.695312 192.527344 C 289.363281 193.84375 283.09375 195.398438 276.882812 197.199219 L 276.882812 139.488281 C 276.996094 130.328125 266.742188 128.929688 259.929688 126.722656 L 259.929688 76.691406 C 259.929688 76.03125 259.867188 75.375 259.738281 74.726562 C 259.609375 74.082031 259.417969 73.449219 259.167969 72.839844 C 258.914062 72.230469 258.605469 71.652344 258.238281 71.101562 C 257.871094 70.550781 257.457031 70.042969 256.988281 69.578125 C 256.523438 69.109375 256.015625 68.691406 255.46875 68.328125 C 254.917969 67.960938 254.339844 67.648438 253.730469 67.398438 C 253.121094 67.144531 252.492188 66.953125 251.847656 66.824219 C 251.199219 66.695312 250.546875 66.632812 249.886719 66.632812 L 222.769531 66.632812 C 222.109375 66.632812 221.457031 66.695312 220.808594 66.824219 C 220.164062 66.953125 219.535156 67.144531 218.925781 67.398438 C 218.316406 67.648438 217.738281 67.960938 217.1875 68.328125 C 216.640625 68.691406 216.132812 69.109375 215.664062 69.578125 C 215.199219 70.042969 214.78125 70.550781 214.417969 71.101562 C 214.050781 71.652344 213.742188 72.230469 213.488281 72.839844 C 213.234375 73.449219 213.046875 74.082031 212.917969 74.726562 C 212.789062 75.375 212.722656 76.03125 212.722656 76.691406 L 212.722656 115.847656 C 201.605469 114.289062 190.433594 113.414062 179.210938 113.230469 C 167.984375 113.050781 156.789062 113.554688 145.628906 114.753906 C 134.464844 115.953125 123.417969 117.832031 112.484375 120.390625 C 101.554688 122.949219 90.820312 126.171875 80.285156 130.058594 C 79.324219 130.414062 78.4375 130.90625 77.625 131.535156 C 76.8125 132.164062 76.117188 132.898438 75.53125 133.742188 C 74.941406 134.585938 74.496094 135.496094 74.1875 136.476562 C 73.882812 137.457031 73.726562 138.460938 73.726562 139.488281 L 73.726562 184.042969 C 73.726562 184.703125 73.792969 185.359375 73.921875 186.003906 C 74.050781 186.652344 74.238281 187.28125 74.492188 187.890625 C 74.746094 188.503906 75.054688 189.082031 75.421875 189.632812 C 75.785156 190.179688 76.203125 190.6875 76.667969 191.15625 C 77.136719 191.621094 77.644531 192.039062 78.191406 192.40625 C 78.742188 192.773438 79.320312 193.082031 79.929688 193.335938 C 80.539062 193.589844 81.164062 193.78125 81.8125 193.910156 C 82.460938 194.039062 83.113281 194.101562 83.773438 194.101562 C 84.433594 194.101562 85.085938 194.039062 85.730469 193.910156 C 86.378906 193.78125 87.007812 193.589844 87.617188 193.335938 C 88.226562 193.082031 88.804688 192.773438 89.351562 192.40625 C 89.902344 192.039062 90.410156 191.621094 90.875 191.15625 C 91.339844 190.6875 91.757812 190.179688 92.125 189.632812 C 92.492188 189.082031 92.800781 188.503906 93.050781 187.890625 C 93.304688 187.28125 93.496094 186.652344 93.625 186.003906 C 93.753906 185.359375 93.816406 184.703125 93.816406 184.042969 L 93.816406 146.589844 C 100.367188 144.363281 106.996094 142.410156 113.707031 140.726562 C 120.417969 139.042969 127.183594 137.640625 134.007812 136.511719 C 140.835938 135.382812 147.695312 134.535156 154.589844 133.972656 C 161.480469 133.40625 168.386719 133.121094 175.304688 133.121094 C 182.222656 133.121094 189.128906 133.40625 196.019531 133.972656 C 202.914062 134.535156 209.773438 135.382812 216.601562 136.511719 C 223.425781 137.640625 230.191406 139.042969 236.902344 140.726562 C 243.613281 142.410156 250.242188 144.363281 256.792969 146.589844 L 256.792969 526.609375 L 120.941406 526.609375 L 120.941406 197.195312 C 120.941406 196.535156 120.875 195.882812 120.746094 195.234375 C 120.617188 194.585938 120.425781 193.957031 120.175781 193.347656 C 119.921875 192.738281 119.613281 192.15625 119.246094 191.609375 C 118.878906 191.058594 118.464844 190.550781 117.996094 190.082031 C 117.53125 189.617188 117.023438 189.199219 116.476562 188.832031 C 115.925781 188.464844 115.347656 188.15625 114.738281 187.902344 C 114.128906 187.648438 113.5 187.460938 112.855469 187.332031 C 112.207031 187.203125 111.554688 187.136719 110.894531 187.136719 C 110.234375 187.136719 109.582031 187.203125 108.933594 187.332031 C 108.289062 187.460938 107.660156 187.648438 107.050781 187.902344 C 106.441406 188.15625 105.863281 188.464844 105.316406 188.832031 C 104.765625 189.199219 104.257812 189.617188 103.792969 190.082031 C 103.324219 190.550781 102.910156 191.058594 102.542969 191.609375 C 102.175781 192.15625 101.867188 192.738281 101.613281 193.347656 C 101.363281 193.957031 101.171875 194.585938 101.042969 195.234375 C 100.914062 195.882812 100.851562 196.535156 100.851562 197.195312 L 100.851562 217.695312 L 63.875 217.695312 L 63.875 197.195312 C 63.875 196.535156 63.808594 195.882812 63.679688 195.234375 C 63.554688 194.585938 63.363281 193.957031 63.109375 193.347656 C 62.859375 192.738281 62.546875 192.15625 62.183594 191.609375 C 61.816406 191.058594 61.398438 190.550781 60.933594 190.082031 C 60.464844 189.617188 59.957031 189.199219 59.410156 188.832031 C 58.863281 188.464844 58.285156 188.15625 57.675781 187.902344 C 57.066406 187.648438 56.4375 187.460938 55.789062 187.332031 C 55.144531 187.203125 54.488281 187.136719 53.828125 187.136719 C 53.171875 187.136719 52.515625 187.203125 51.871094 187.332031 C 51.222656 187.460938 50.59375 187.648438 49.984375 187.902344 C 49.375 188.15625 48.796875 188.464844 48.25 188.832031 C 47.699219 189.199219 47.195312 189.617188 46.726562 190.082031 C 46.261719 190.550781 45.84375 191.058594 45.476562 191.609375 C 45.113281 192.15625 44.800781 192.738281 44.550781 193.347656 C 44.296875 193.957031 44.105469 194.585938 43.976562 195.234375 C 43.851562 195.882812 43.785156 196.535156 43.785156 197.195312 L 43.785156 526.609375 L 34.617188 526.609375 C 33.964844 526.621094 33.320312 526.695312 32.683594 526.832031 C 32.042969 526.96875 31.425781 527.167969 30.824219 527.425781 C 30.226562 527.683594 29.65625 527.996094 29.117188 528.363281 C 28.578125 528.734375 28.082031 529.148438 27.625 529.617188 C 27.167969 530.082031 26.757812 530.585938 26.398438 531.132812 C 26.039062 531.679688 25.734375 532.253906 25.488281 532.859375 C 25.242188 533.464844 25.054688 534.085938 24.929688 534.726562 C 24.804688 535.371094 24.742188 536.015625 24.742188 536.671875 C 24.742188 537.324219 24.804688 537.972656 24.929688 538.613281 C 25.054688 539.253906 25.242188 539.875 25.488281 540.480469 C 25.738281 541.085938 26.039062 541.660156 26.398438 542.207031 C 26.757812 542.753906 27.167969 543.257812 27.625 543.722656 C 28.082031 544.191406 28.578125 544.605469 29.117188 544.976562 C 29.65625 545.34375 30.226562 545.65625 30.828125 545.914062 C 31.425781 546.171875 32.046875 546.371094 32.683594 546.507812 C 33.320312 546.644531 33.964844 546.71875 34.621094 546.726562 L 577.027344 546.726562 C 577.679688 546.714844 578.324219 546.640625 578.960938 546.5 C 579.597656 546.363281 580.214844 546.164062 580.8125 545.90625 C 581.410156 545.648438 581.976562 545.332031 582.515625 544.964844 C 583.050781 544.59375 583.546875 544.175781 584.003906 543.710938 C 584.457031 543.246094 584.867188 542.742188 585.222656 542.195312 C 585.582031 541.652344 585.882812 541.078125 586.128906 540.472656 C 586.375 539.871094 586.5625 539.246094 586.6875 538.609375 C 586.8125 537.96875 586.875 537.320312 586.875 536.667969 C 586.875 536.019531 586.8125 535.371094 586.6875 534.730469 C 586.5625 534.089844 586.375 533.46875 586.128906 532.867188 C 585.882812 532.261719 585.582031 531.6875 585.222656 531.144531 C 584.867188 530.597656 584.457031 530.09375 584.003906 529.628906 C 583.546875 529.160156 583.050781 528.746094 582.515625 528.375 C 581.976562 528.007812 581.410156 527.691406 580.8125 527.433594 C 580.214844 527.175781 579.597656 526.976562 578.960938 526.839844 C 578.324219 526.699219 577.679688 526.625 577.027344 526.609375 Z M 232.8125 86.75 L 239.84375 86.75 L 239.84375 120.972656 C 237.503906 120.402344 235.160156 119.894531 232.8125 119.390625 Z M 100.851562 363.417969 L 100.851562 385.164062 L 63.875 385.164062 L 63.875 363.417969 Z M 63.875 343.300781 L 63.875 321.550781 L 100.851562 321.550781 L 100.851562 343.300781 Z M 100.851562 405.28125 L 100.851562 427.039062 L 63.875 427.039062 L 63.875 405.28125 Z M 100.851562 301.433594 L 63.875 301.433594 L 63.875 279.675781 L 100.851562 279.675781 Z M 63.875 447.15625 L 100.851562 447.15625 L 100.851562 468.902344 L 63.875 468.902344 Z M 100.851562 237.8125 L 100.851562 259.558594 L 63.875 259.558594 L 63.875 237.8125 Z M 63.875 489.019531 L 100.851562 489.019531 L 100.851562 526.609375 L 63.875 526.609375 Z M 277.074219 217.941406 C 282.691406 216.175781 288.363281 214.621094 294.101562 213.289062 C 299.835938 211.953125 305.609375 210.839844 311.429688 209.945312 C 317.25 209.050781 323.09375 208.378906 328.964844 207.933594 C 334.835938 207.484375 340.714844 207.257812 346.601562 207.257812 C 352.488281 207.257812 358.367188 207.484375 364.238281 207.933594 C 370.109375 208.378906 375.953125 209.050781 381.773438 209.945312 C 387.589844 210.839844 393.367188 211.953125 399.101562 213.289062 C 404.835938 214.621094 410.511719 216.175781 416.128906 217.941406 L 416.128906 526.609375 L 277.074219 526.609375 Z M 436.21875 526.609375 L 436.21875 294.5 C 444.054688 292.027344 452.03125 290.167969 460.148438 288.917969 C 468.269531 287.667969 476.4375 287.042969 484.652344 287.042969 C 492.867188 287.042969 501.03125 287.667969 509.152344 288.917969 C 517.269531 290.167969 525.25 292.027344 533.082031 294.5 L 533.082031 526.609375 Z M 436.21875 526.609375 " fill-opacity="1" fill-rule="nonzero"/></g></svg>