<svg xmlns="http://www.w3.org/2000/svg" xmlns:xlink="http://www.w3.org/1999/xlink" width="816" zoomAndPan="magnify" viewBox="0 0 612 611.999999" height="816" preserveAspectRatio="xMidYMid meet" version="1.0"><defs><clipPath id="4272183f78"><path d="M 24.574219 66 L 587.074219 66 L 587.074219 547 L 24.574219 547 Z M 24.574219 66 " clip-rule="nonzero"/></clipPath></defs><path fill="#ffffff" d="M 202.414062 215.570312 L 202.414062 188.617188 C 202.414062 187.957031 202.347656 187.300781 202.21875 186.65625 C 202.089844 186.007812 201.902344 185.378906 201.648438 184.769531 C 201.394531 184.160156 201.085938 183.582031 200.71875 183.03125 C 200.351562 182.484375 199.9375 181.976562 199.46875 181.507812 C 199.003906 181.042969 198.496094 180.625 197.945312 180.257812 C 197.398438 179.890625 196.820312 179.582031 196.207031 179.328125 C 195.597656 179.078125 194.96875 178.886719 194.324219 178.757812 C 193.675781 178.628906 193.023438 178.566406 192.363281 178.566406 C 191.703125 178.566406 191.050781 178.628906 190.402344 178.757812 C 189.753906 178.886719 189.125 179.078125 188.515625 179.328125 C 187.90625 179.582031 187.328125 179.890625 186.777344 180.257812 C 186.230469 180.625 185.722656 181.042969 185.253906 181.507812 C 184.789062 181.976562 184.371094 182.484375 184.003906 183.03125 C 183.640625 183.582031 183.328125 184.160156 183.078125 184.769531 C 182.824219 185.378906 182.632812 186.007812 182.503906 186.65625 C 182.375 187.300781 182.3125 187.957031 182.3125 188.617188 L 182.3125 215.570312 C 182.324219 216.21875 182.398438 216.863281 182.539062 217.5 C 182.675781 218.140625 182.875 218.757812 183.132812 219.355469 C 183.390625 219.953125 183.703125 220.523438 184.074219 221.058594 C 184.441406 221.597656 184.859375 222.09375 185.324219 222.550781 C 185.789062 223.007812 186.292969 223.414062 186.839844 223.773438 C 187.382812 224.128906 187.957031 224.433594 188.5625 224.679688 C 189.164062 224.925781 189.785156 225.109375 190.425781 225.238281 C 191.066406 225.363281 191.710938 225.425781 192.363281 225.425781 C 193.015625 225.425781 193.660156 225.363281 194.300781 225.238281 C 194.9375 225.109375 195.5625 224.925781 196.164062 224.679688 C 196.769531 224.433594 197.339844 224.128906 197.886719 223.773438 C 198.429688 223.414062 198.9375 223.007812 199.402344 222.550781 C 199.867188 222.09375 200.285156 221.597656 200.652344 221.058594 C 201.019531 220.523438 201.335938 219.953125 201.59375 219.355469 C 201.851562 218.757812 202.050781 218.140625 202.1875 217.5 C 202.324219 216.863281 202.402344 216.21875 202.414062 215.570312 Z M 202.414062 215.570312 " fill-opacity="1" fill-rule="nonzero"/><path fill="#ffffff" d="M 239.820312 215.570312 L 239.820312 188.617188 C 239.820312 187.957031 239.753906 187.300781 239.625 186.65625 C 239.496094 186.007812 239.308594 185.378906 239.054688 184.769531 C 238.800781 184.160156 238.492188 183.582031 238.125 183.03125 C 237.757812 182.484375 237.34375 181.976562 236.875 181.507812 C 236.410156 181.042969 235.902344 180.625 235.351562 180.257812 C 234.804688 179.890625 234.226562 179.582031 233.613281 179.328125 C 233.003906 179.078125 232.375 178.886719 231.730469 178.757812 C 231.082031 178.628906 230.429688 178.566406 229.769531 178.566406 C 229.109375 178.566406 228.457031 178.628906 227.808594 178.757812 C 227.160156 178.886719 226.53125 179.078125 225.921875 179.328125 C 225.3125 179.582031 224.734375 179.890625 224.183594 180.257812 C 223.636719 180.625 223.128906 181.042969 222.660156 181.507812 C 222.195312 181.976562 221.777344 182.484375 221.410156 183.03125 C 221.046875 183.582031 220.734375 184.160156 220.484375 184.769531 C 220.230469 185.378906 220.039062 186.007812 219.910156 186.65625 C 219.78125 187.300781 219.71875 187.957031 219.71875 188.617188 L 219.71875 215.570312 C 219.730469 216.21875 219.804688 216.863281 219.945312 217.5 C 220.082031 218.140625 220.28125 218.757812 220.539062 219.355469 C 220.796875 219.953125 221.109375 220.523438 221.480469 221.058594 C 221.847656 221.597656 222.265625 222.09375 222.730469 222.550781 C 223.195312 223.007812 223.699219 223.414062 224.246094 223.773438 C 224.789062 224.128906 225.363281 224.433594 225.96875 224.679688 C 226.570312 224.925781 227.191406 225.113281 227.832031 225.238281 C 228.472656 225.363281 229.117188 225.425781 229.769531 225.425781 C 230.421875 225.425781 231.066406 225.363281 231.707031 225.238281 C 232.34375 225.113281 232.96875 224.925781 233.570312 224.679688 C 234.175781 224.433594 234.746094 224.128906 235.292969 223.773438 C 235.835938 223.414062 236.34375 223.007812 236.808594 222.550781 C 237.273438 222.09375 237.691406 221.597656 238.058594 221.058594 C 238.425781 220.523438 238.742188 219.953125 239 219.355469 C 239.257812 218.757812 239.457031 218.140625 239.59375 217.5 C 239.730469 216.863281 239.808594 216.21875 239.820312 215.570312 Z M 239.820312 215.570312 " fill-opacity="1" fill-rule="nonzero"/><path fill="#ffffff" d="M 353.398438 227.757812 C 352.738281 227.757812 352.085938 227.824219 351.4375 227.953125 C 350.789062 228.078125 350.160156 228.269531 349.550781 228.523438 C 348.941406 228.773438 348.363281 229.085938 347.8125 229.453125 C 347.265625 229.816406 346.757812 230.234375 346.289062 230.703125 C 345.824219 231.167969 345.40625 231.675781 345.039062 232.226562 C 344.671875 232.773438 344.363281 233.351562 344.109375 233.960938 C 343.859375 234.574219 343.667969 235.203125 343.539062 235.847656 C 343.410156 236.496094 343.347656 237.148438 343.347656 237.808594 L 343.347656 264.753906 C 343.347656 265.414062 343.410156 266.066406 343.539062 266.714844 C 343.667969 267.359375 343.859375 267.988281 344.113281 268.597656 C 344.363281 269.210938 344.675781 269.789062 345.039062 270.335938 C 345.40625 270.886719 345.824219 271.394531 346.289062 271.859375 C 346.757812 272.328125 347.265625 272.742188 347.8125 273.109375 C 348.363281 273.476562 348.941406 273.785156 349.550781 274.039062 C 350.160156 274.292969 350.789062 274.480469 351.4375 274.609375 C 352.085938 274.738281 352.738281 274.804688 353.398438 274.804688 C 354.058594 274.804688 354.710938 274.738281 355.359375 274.609375 C 356.007812 274.480469 356.632812 274.292969 357.246094 274.039062 C 357.855469 273.785156 358.433594 273.476562 358.980469 273.109375 C 359.53125 272.742188 360.039062 272.328125 360.503906 271.859375 C 360.972656 271.394531 361.386719 270.886719 361.753906 270.335938 C 362.121094 269.789062 362.429688 269.210938 362.683594 268.597656 C 362.9375 267.988281 363.128906 267.359375 363.253906 266.714844 C 363.382812 266.066406 363.449219 265.414062 363.449219 264.753906 L 363.449219 237.808594 C 363.449219 237.148438 363.386719 236.496094 363.257812 235.847656 C 363.128906 235.203125 362.9375 234.574219 362.683594 233.960938 C 362.433594 233.351562 362.125 232.773438 361.757812 232.226562 C 361.390625 231.675781 360.972656 231.167969 360.507812 230.703125 C 360.039062 230.234375 359.53125 229.816406 358.984375 229.453125 C 358.433594 229.085938 357.855469 228.773438 357.246094 228.523438 C 356.636719 228.269531 356.007812 228.078125 355.359375 227.953125 C 354.710938 227.824219 354.058594 227.757812 353.398438 227.757812 Z M 353.398438 227.757812 " fill-opacity="1" fill-rule="nonzero"/><path fill="#ffffff" d="M 390.804688 227.757812 C 390.144531 227.757812 389.492188 227.824219 388.84375 227.953125 C 388.195312 228.078125 387.566406 228.269531 386.957031 228.523438 C 386.347656 228.773438 385.769531 229.085938 385.21875 229.453125 C 384.671875 229.816406 384.164062 230.234375 383.695312 230.703125 C 383.230469 231.167969 382.8125 231.675781 382.445312 232.226562 C 382.078125 232.773438 381.769531 233.351562 381.515625 233.960938 C 381.265625 234.574219 381.074219 235.203125 380.945312 235.847656 C 380.816406 236.496094 380.753906 237.148438 380.753906 237.808594 L 380.753906 264.753906 C 380.753906 265.414062 380.816406 266.066406 380.945312 266.714844 C 381.074219 267.359375 381.265625 267.988281 381.519531 268.597656 C 381.769531 269.210938 382.082031 269.789062 382.449219 270.335938 C 382.8125 270.886719 383.230469 271.394531 383.695312 271.859375 C 384.164062 272.328125 384.671875 272.742188 385.21875 273.109375 C 385.769531 273.476562 386.347656 273.785156 386.957031 274.039062 C 387.566406 274.292969 388.195312 274.480469 388.84375 274.609375 C 389.492188 274.738281 390.144531 274.804688 390.804688 274.804688 C 391.464844 274.804688 392.117188 274.738281 392.765625 274.609375 C 393.414062 274.480469 394.039062 274.292969 394.652344 274.039062 C 395.261719 273.785156 395.839844 273.476562 396.386719 273.109375 C 396.9375 272.742188 397.445312 272.328125 397.910156 271.859375 C 398.378906 271.394531 398.792969 270.886719 399.160156 270.335938 C 399.527344 269.789062 399.835938 269.210938 400.089844 268.597656 C 400.34375 267.988281 400.535156 267.359375 400.664062 266.714844 C 400.789062 266.066406 400.855469 265.414062 400.855469 264.753906 L 400.855469 237.808594 C 400.855469 237.148438 400.792969 236.496094 400.664062 235.847656 C 400.535156 235.203125 400.34375 234.574219 400.089844 233.960938 C 399.839844 233.351562 399.53125 232.773438 399.164062 232.226562 C 398.796875 231.675781 398.378906 231.167969 397.914062 230.703125 C 397.445312 230.234375 396.9375 229.816406 396.390625 229.453125 C 395.839844 229.085938 395.261719 228.773438 394.652344 228.523438 C 394.042969 228.269531 393.414062 228.078125 392.765625 227.953125 C 392.117188 227.824219 391.464844 227.757812 390.804688 227.757812 Z M 390.804688 227.757812 " fill-opacity="1" fill-rule="nonzero"/><path fill="#ffffff" d="M 471.703125 302.082031 C 471.042969 302.082031 470.390625 302.144531 469.742188 302.273438 C 469.09375 302.402344 468.464844 302.59375 467.855469 302.84375 C 467.246094 303.097656 466.664062 303.40625 466.117188 303.773438 C 465.566406 304.140625 465.058594 304.554688 464.59375 305.023438 C 464.128906 305.488281 463.710938 305.996094 463.34375 306.546875 C 462.976562 307.09375 462.667969 307.675781 462.414062 308.285156 C 462.164062 308.894531 461.972656 309.523438 461.84375 310.171875 C 461.714844 310.816406 461.652344 311.472656 461.652344 312.132812 L 461.652344 339.074219 C 461.652344 339.734375 461.714844 340.390625 461.84375 341.035156 C 461.972656 341.683594 462.164062 342.3125 462.417969 342.921875 C 462.667969 343.53125 462.980469 344.109375 463.34375 344.660156 C 463.710938 345.207031 464.128906 345.714844 464.59375 346.183594 C 465.0625 346.648438 465.570312 347.066406 466.117188 347.433594 C 466.667969 347.800781 467.246094 348.109375 467.855469 348.359375 C 468.464844 348.613281 469.09375 348.804688 469.742188 348.933594 C 470.390625 349.0625 471.042969 349.125 471.703125 349.125 C 472.363281 349.125 473.015625 349.0625 473.664062 348.933594 C 474.3125 348.804688 474.9375 348.613281 475.546875 348.359375 C 476.160156 348.109375 476.738281 347.800781 477.285156 347.433594 C 477.835938 347.066406 478.34375 346.648438 478.808594 346.183594 C 479.277344 345.714844 479.691406 345.207031 480.058594 344.660156 C 480.425781 344.109375 480.734375 343.53125 480.988281 342.921875 C 481.242188 342.3125 481.429688 341.683594 481.558594 341.035156 C 481.6875 340.390625 481.753906 339.734375 481.753906 339.074219 L 481.753906 312.132812 C 481.753906 311.472656 481.691406 310.816406 481.5625 310.171875 C 481.433594 309.523438 481.242188 308.894531 480.988281 308.285156 C 480.738281 307.675781 480.429688 307.09375 480.0625 306.546875 C 479.695312 305.996094 479.277344 305.488281 478.8125 305.023438 C 478.34375 304.554688 477.835938 304.140625 477.289062 303.773438 C 476.738281 303.40625 476.160156 303.097656 475.550781 302.84375 C 474.941406 302.59375 474.3125 302.402344 473.664062 302.273438 C 473.015625 302.144531 472.363281 302.082031 471.703125 302.082031 Z M 471.703125 302.082031 " fill-opacity="1" fill-rule="nonzero"/><path fill="#ffffff" d="M 509.109375 302.082031 C 508.449219 302.082031 507.796875 302.144531 507.148438 302.273438 C 506.5 302.402344 505.871094 302.59375 505.261719 302.84375 C 504.652344 303.097656 504.070312 303.40625 503.523438 303.773438 C 502.972656 304.140625 502.464844 304.554688 502 305.023438 C 501.53125 305.488281 501.117188 305.996094 500.75 306.546875 C 500.382812 307.09375 500.074219 307.675781 499.820312 308.285156 C 499.570312 308.894531 499.378906 309.523438 499.25 310.171875 C 499.121094 310.816406 499.058594 311.472656 499.058594 312.132812 L 499.058594 339.074219 C 499.058594 339.734375 499.121094 340.390625 499.25 341.035156 C 499.378906 341.683594 499.570312 342.3125 499.824219 342.921875 C 500.074219 343.53125 500.386719 344.109375 500.75 344.660156 C 501.117188 345.207031 501.535156 345.714844 502 346.183594 C 502.46875 346.648438 502.976562 347.066406 503.523438 347.433594 C 504.074219 347.800781 504.652344 348.109375 505.261719 348.359375 C 505.871094 348.613281 506.5 348.804688 507.148438 348.933594 C 507.796875 349.0625 508.449219 349.125 509.109375 349.125 C 509.769531 349.125 510.421875 349.0625 511.070312 348.933594 C 511.714844 348.804688 512.34375 348.613281 512.953125 348.359375 C 513.566406 348.109375 514.144531 347.800781 514.691406 347.433594 C 515.242188 347.066406 515.75 346.648438 516.214844 346.183594 C 516.683594 345.714844 517.097656 345.207031 517.464844 344.660156 C 517.832031 344.109375 518.140625 343.53125 518.394531 342.921875 C 518.648438 342.3125 518.835938 341.683594 518.964844 341.035156 C 519.09375 340.390625 519.160156 339.734375 519.160156 339.074219 L 519.160156 312.132812 C 519.160156 311.472656 519.097656 310.816406 518.96875 310.171875 C 518.839844 309.523438 518.648438 308.894531 518.394531 308.285156 C 518.144531 307.675781 517.835938 307.09375 517.46875 306.546875 C 517.101562 305.996094 516.683594 305.488281 516.21875 305.023438 C 515.75 304.554688 515.242188 304.140625 514.695312 303.773438 C 514.144531 303.40625 513.566406 303.097656 512.957031 302.84375 C 512.347656 302.59375 511.71875 302.402344 511.070312 302.273438 C 510.421875 302.144531 509.769531 302.082031 509.109375 302.082031 Z M 509.109375 302.082031 " fill-opacity="1" fill-rule="nonzero"/><g clip-path="url(#4272183f78)"><path fill="#ffffff" d="M 577.375 526.265625 L 553.503906 526.265625 L 553.503906 287.121094 C 553.503906 286.089844 553.351562 285.082031 553.039062 284.097656 C 552.730469 283.117188 552.277344 282.199219 551.6875 281.355469 C 551.09375 280.511719 550.390625 279.777344 549.570312 279.148438 C 548.753906 278.519531 547.859375 278.03125 546.886719 277.679688 C 538.074219 274.480469 529.066406 271.980469 519.867188 270.183594 C 510.667969 268.382812 501.382812 267.300781 492.011719 266.941406 C 482.644531 266.578125 473.304688 266.945312 463.992188 268.03125 C 454.679688 269.121094 445.507812 270.921875 436.476562 273.433594 L 436.476562 210.574219 C 436.476562 209.53125 436.316406 208.511719 436 207.519531 C 435.683594 206.527344 435.222656 205.605469 434.621094 204.753906 C 434.015625 203.902344 433.300781 203.164062 432.464844 202.539062 C 431.632812 201.910156 430.726562 201.425781 429.742188 201.082031 C 423.628906 198.964844 417.445312 197.082031 411.1875 195.441406 C 404.929688 193.796875 398.617188 192.398438 392.253906 191.242188 C 385.886719 190.082031 379.488281 189.171875 373.050781 188.507812 C 366.617188 187.84375 360.167969 187.425781 353.699219 187.257812 C 347.230469 187.089844 340.769531 187.167969 334.308594 187.496094 C 327.847656 187.824219 321.40625 188.402344 314.992188 189.226562 C 308.574219 190.050781 302.199219 191.117188 295.863281 192.433594 C 289.527344 193.746094 283.253906 195.300781 277.039062 197.097656 L 277.039062 139.429688 C 277.15625 130.277344 266.894531 128.878906 260.078125 126.675781 L 260.078125 76.679688 C 260.078125 76.019531 260.015625 75.367188 259.886719 74.71875 C 259.757812 74.074219 259.566406 73.445312 259.3125 72.835938 C 259.0625 72.226562 258.753906 71.644531 258.386719 71.097656 C 258.019531 70.546875 257.601562 70.039062 257.136719 69.574219 C 256.667969 69.105469 256.160156 68.691406 255.613281 68.324219 C 255.0625 67.957031 254.484375 67.648438 253.875 67.394531 C 253.265625 67.140625 252.636719 66.953125 251.988281 66.824219 C 251.339844 66.695312 250.6875 66.628906 250.027344 66.628906 L 222.894531 66.628906 C 222.234375 66.628906 221.578125 66.695312 220.933594 66.824219 C 220.285156 66.953125 219.65625 67.140625 219.046875 67.394531 C 218.4375 67.648438 217.855469 67.957031 217.308594 68.324219 C 216.757812 68.691406 216.25 69.105469 215.785156 69.574219 C 215.320312 70.039062 214.902344 70.546875 214.535156 71.097656 C 214.167969 71.644531 213.859375 72.226562 213.605469 72.835938 C 213.355469 73.445312 213.164062 74.074219 213.035156 74.71875 C 212.90625 75.367188 212.84375 76.019531 212.84375 76.679688 L 212.84375 115.808594 C 201.71875 114.25 190.539062 113.378906 179.304688 113.195312 C 168.074219 113.011719 156.875 113.519531 145.703125 114.714844 C 134.535156 115.914062 123.480469 117.789062 112.539062 120.347656 C 101.601562 122.90625 90.863281 126.125 80.320312 130.007812 C 79.359375 130.363281 78.46875 130.855469 77.660156 131.484375 C 76.847656 132.113281 76.148438 132.847656 75.5625 133.691406 C 74.976562 134.53125 74.527344 135.441406 74.21875 136.421875 C 73.914062 137.402344 73.757812 138.40625 73.757812 139.429688 L 73.757812 183.953125 C 73.757812 184.613281 73.824219 185.265625 73.953125 185.914062 C 74.082031 186.5625 74.269531 187.191406 74.523438 187.800781 C 74.777344 188.410156 75.085938 188.988281 75.453125 189.539062 C 75.820312 190.085938 76.234375 190.59375 76.703125 191.058594 C 77.167969 191.527344 77.675781 191.945312 78.226562 192.308594 C 78.773438 192.675781 79.351562 192.988281 79.964844 193.238281 C 80.574219 193.492188 81.203125 193.683594 81.847656 193.8125 C 82.496094 193.941406 83.148438 194.003906 83.808594 194.003906 C 84.46875 194.003906 85.121094 193.941406 85.769531 193.8125 C 86.417969 193.683594 87.046875 193.492188 87.65625 193.238281 C 88.265625 192.988281 88.84375 192.675781 89.394531 192.308594 C 89.941406 191.945312 90.449219 191.527344 90.917969 191.058594 C 91.382812 190.59375 91.800781 190.085938 92.167969 189.539062 C 92.53125 188.988281 92.84375 188.410156 93.09375 187.800781 C 93.347656 187.191406 93.539062 186.5625 93.667969 185.914062 C 93.796875 185.265625 93.859375 184.613281 93.859375 183.953125 L 93.859375 146.527344 C 100.414062 144.304688 107.050781 142.351562 113.761719 140.667969 C 120.476562 138.988281 127.25 137.585938 134.078125 136.457031 C 140.90625 135.332031 147.769531 134.484375 154.667969 133.917969 C 161.566406 133.351562 168.476562 133.070312 175.398438 133.070312 C 182.320312 133.070312 189.230469 133.351562 196.128906 133.917969 C 203.027344 134.484375 209.890625 135.332031 216.71875 136.457031 C 223.546875 137.585938 230.320312 138.988281 237.035156 140.667969 C 243.75 142.351562 250.382812 144.304688 256.9375 146.527344 L 256.9375 526.265625 L 121 526.265625 L 121 197.097656 C 121 196.4375 120.9375 195.78125 120.808594 195.136719 C 120.679688 194.488281 120.488281 193.859375 120.234375 193.25 C 119.980469 192.640625 119.671875 192.0625 119.304688 191.511719 C 118.9375 190.964844 118.523438 190.457031 118.054688 189.988281 C 117.589844 189.523438 117.082031 189.105469 116.53125 188.738281 C 115.984375 188.371094 115.40625 188.0625 114.796875 187.808594 C 114.1875 187.558594 113.558594 187.367188 112.910156 187.238281 C 112.261719 187.109375 111.609375 187.046875 110.949219 187.046875 C 110.289062 187.046875 109.636719 187.109375 108.988281 187.238281 C 108.339844 187.367188 107.710938 187.558594 107.101562 187.808594 C 106.492188 188.0625 105.914062 188.371094 105.363281 188.738281 C 104.816406 189.105469 104.308594 189.523438 103.84375 189.988281 C 103.375 190.457031 102.957031 190.964844 102.59375 191.511719 C 102.226562 192.0625 101.914062 192.640625 101.664062 193.25 C 101.410156 193.859375 101.21875 194.488281 101.089844 195.136719 C 100.960938 195.78125 100.898438 196.4375 100.898438 197.097656 L 100.898438 217.582031 L 63.898438 217.582031 L 63.898438 197.097656 C 63.898438 196.4375 63.835938 195.78125 63.707031 195.136719 C 63.578125 194.488281 63.386719 193.859375 63.132812 193.25 C 62.882812 192.640625 62.570312 192.0625 62.207031 191.511719 C 61.839844 190.964844 61.421875 190.457031 60.957031 189.988281 C 60.488281 189.523438 59.980469 189.105469 59.433594 188.738281 C 58.882812 188.371094 58.304688 188.0625 57.695312 187.808594 C 57.085938 187.558594 56.457031 187.367188 55.808594 187.238281 C 55.160156 187.109375 54.507812 187.046875 53.847656 187.046875 C 53.1875 187.046875 52.535156 187.109375 51.886719 187.238281 C 51.238281 187.367188 50.613281 187.558594 50 187.808594 C 49.390625 188.0625 48.8125 188.371094 48.265625 188.738281 C 47.714844 189.105469 47.207031 189.523438 46.742188 189.988281 C 46.273438 190.457031 45.859375 190.964844 45.492188 191.511719 C 45.125 192.0625 44.816406 192.640625 44.5625 193.25 C 44.308594 193.859375 44.121094 194.488281 43.992188 195.136719 C 43.863281 195.78125 43.796875 196.4375 43.796875 197.097656 L 43.796875 526.265625 L 34.625 526.265625 C 33.972656 526.273438 33.328125 526.347656 32.6875 526.484375 C 32.050781 526.621094 31.429688 526.820312 30.828125 527.078125 C 30.230469 527.335938 29.660156 527.648438 29.121094 528.015625 C 28.582031 528.382812 28.082031 528.800781 27.625 529.265625 C 27.167969 529.730469 26.757812 530.238281 26.398438 530.78125 C 26.039062 531.328125 25.738281 531.902344 25.488281 532.507812 C 25.242188 533.109375 25.054688 533.734375 24.929688 534.375 C 24.804688 535.015625 24.742188 535.660156 24.742188 536.316406 C 24.742188 536.96875 24.804688 537.613281 24.929688 538.253906 C 25.054688 538.894531 25.242188 539.519531 25.488281 540.125 C 25.738281 540.726562 26.039062 541.300781 26.398438 541.847656 C 26.757812 542.390625 27.167969 542.898438 27.625 543.363281 C 28.082031 543.828125 28.582031 544.246094 29.121094 544.613281 C 29.660156 544.984375 30.230469 545.296875 30.832031 545.554688 C 31.429688 545.808594 32.050781 546.007812 32.6875 546.144531 C 33.328125 546.28125 33.972656 546.355469 34.625 546.367188 L 577.375 546.367188 C 578.027344 546.351562 578.671875 546.277344 579.308594 546.136719 C 579.945312 546 580.5625 545.800781 581.160156 545.542969 C 581.757812 545.285156 582.324219 544.972656 582.863281 544.601562 C 583.398438 544.234375 583.898438 543.816406 584.351562 543.351562 C 584.808594 542.886719 585.214844 542.382812 585.574219 541.835938 C 585.933594 541.292969 586.234375 540.71875 586.480469 540.117188 C 586.726562 539.511719 586.914062 538.890625 587.039062 538.25 C 587.164062 537.613281 587.226562 536.964844 587.226562 536.316406 C 587.226562 535.664062 587.164062 535.015625 587.039062 534.378906 C 586.914062 533.738281 586.726562 533.117188 586.480469 532.515625 C 586.234375 531.910156 585.933594 531.335938 585.574219 530.792969 C 585.214844 530.246094 584.808594 529.742188 584.351562 529.277344 C 583.898438 528.8125 583.398438 528.394531 582.863281 528.027344 C 582.324219 527.65625 581.757812 527.34375 581.160156 527.085938 C 580.5625 526.828125 579.945312 526.628906 579.308594 526.492188 C 578.671875 526.351562 578.027344 526.277344 577.375 526.265625 Z M 232.945312 86.730469 L 239.976562 86.730469 L 239.976562 120.929688 C 237.640625 120.363281 235.292969 119.855469 232.945312 119.347656 Z M 100.898438 363.191406 L 100.898438 384.921875 L 63.898438 384.921875 L 63.898438 363.191406 Z M 63.898438 343.089844 L 63.898438 321.359375 L 100.898438 321.359375 L 100.898438 343.089844 Z M 100.898438 405.023438 L 100.898438 426.765625 L 63.898438 426.765625 L 63.898438 405.023438 Z M 100.898438 301.257812 L 63.898438 301.257812 L 63.898438 279.515625 L 100.898438 279.515625 Z M 63.898438 446.867188 L 100.898438 446.867188 L 100.898438 468.597656 L 63.898438 468.597656 Z M 100.898438 237.683594 L 100.898438 259.414062 L 63.898438 259.414062 L 63.898438 237.683594 Z M 63.898438 488.699219 L 100.898438 488.699219 L 100.898438 526.265625 L 63.898438 526.265625 Z M 277.230469 217.824219 C 282.851562 216.058594 288.53125 214.511719 294.269531 213.175781 C 300.007812 211.84375 305.785156 210.730469 311.609375 209.835938 C 317.433594 208.941406 323.28125 208.273438 329.15625 207.824219 C 335.027344 207.375 340.910156 207.152344 346.800781 207.152344 C 352.691406 207.152344 358.574219 207.375 364.449219 207.824219 C 370.324219 208.273438 376.171875 208.941406 381.996094 209.835938 C 387.816406 210.730469 393.597656 211.84375 399.335938 213.175781 C 405.074219 214.511719 410.753906 216.058594 416.375 217.824219 L 416.375 526.265625 L 277.230469 526.265625 Z M 436.476562 526.265625 L 436.476562 294.328125 C 444.316406 291.859375 452.296875 290 460.421875 288.75 C 468.546875 287.5 476.71875 286.878906 484.9375 286.878906 C 493.160156 286.878906 501.332031 287.5 509.453125 288.75 C 517.578125 290 525.5625 291.859375 533.402344 294.328125 L 533.402344 526.265625 Z M 436.476562 526.265625 " fill-opacity="1" fill-rule="nonzero"/></g></svg>