<svg xmlns="http://www.w3.org/2000/svg" xmlns:xlink="http://www.w3.org/1999/xlink" width="816" zoomAndPan="magnify" viewBox="0 0 612 611.999999" height="816" preserveAspectRatio="xMidYMid meet" version="1.0"><path fill="#6c0633" d="M 76.941406 373.085938 C 76.941406 371.078125 75.265625 369.570312 73.421875 369.570312 C 71.414062 369.570312 69.90625 371.242188 69.90625 373.085938 C 69.90625 376.269531 67.394531 378.78125 64.210938 378.78125 C 62.199219 378.78125 60.691406 380.457031 60.691406 382.300781 C 60.691406 384.308594 62.367188 385.816406 64.210938 385.816406 C 71.078125 385.816406 76.773438 380.121094 76.941406 373.085938 Z M 76.941406 373.085938 " fill-opacity="1" fill-rule="nonzero"/><path fill="#6c0633" d="M 176.777344 373.085938 C 176.777344 371.078125 175.101562 369.570312 173.257812 369.570312 C 171.25 369.570312 169.742188 371.242188 169.742188 373.085938 C 169.742188 376.269531 167.226562 378.78125 164.046875 378.78125 C 162.035156 378.78125 160.527344 380.457031 160.527344 382.300781 C 160.527344 384.308594 162.203125 385.816406 164.046875 385.816406 C 170.914062 385.816406 176.609375 380.121094 176.777344 373.085938 Z M 176.777344 373.085938 " fill-opacity="1" fill-rule="nonzero"/><path fill="#6c0633" d="M 397.21875 371.914062 C 397.21875 369.902344 395.542969 368.394531 393.53125 368.394531 C 391.523438 368.394531 390.015625 370.070312 390.015625 372.082031 C 390.015625 375.433594 387.335938 378.113281 383.984375 378.113281 C 381.972656 378.113281 380.46875 379.785156 380.46875 381.796875 C 380.46875 383.808594 382.140625 385.316406 384.152344 385.316406 C 391.523438 385.316406 397.386719 379.453125 397.21875 371.914062 Z M 397.21875 371.914062 " fill-opacity="1" fill-rule="nonzero"/><path fill="#6c0633" d="M 557.859375 371.914062 C 557.859375 369.902344 556.183594 368.394531 554.171875 368.394531 C 552.164062 368.394531 550.65625 370.070312 550.65625 372.082031 C 550.65625 375.433594 547.976562 378.113281 544.625 378.113281 C 542.617188 378.113281 541.109375 379.785156 541.109375 381.796875 C 541.109375 383.808594 542.78125 385.316406 544.792969 385.316406 C 552.164062 385.316406 558.027344 379.453125 557.859375 371.914062 Z M 557.859375 371.914062 " fill-opacity="1" fill-rule="nonzero"/><path fill="#6c0633" d="M 354.503906 340.253906 L 441.941406 340.253906 L 442.277344 275.929688 L 448.308594 241.257812 C 448.308594 241.089844 448.308594 241.089844 448.308594 241.089844 C 448.640625 239.75 449.816406 238.910156 451.15625 239.246094 C 461.207031 241.257812 500.402344 250.636719 516.652344 274.757812 L 534.742188 306.25 L 554.339844 314.960938 C 556.015625 316.132812 557.1875 317.808594 557.523438 319.816406 L 565.394531 339.917969 C 578.964844 349.46875 573.9375 372.582031 573.9375 372.582031 L 566.902344 372.582031 C 566.902344 384.8125 557.019531 394.695312 544.792969 394.695312 C 532.398438 394.695312 522.515625 384.8125 522.515625 372.582031 L 406.261719 372.582031 C 406.261719 384.8125 396.378906 394.695312 384.152344 394.695312 C 371.757812 394.695312 361.875 384.8125 361.875 372.582031 L 354.503906 372.582031 Z M 398.890625 372.582031 C 398.890625 364.375 392.191406 357.675781 383.984375 357.675781 C 375.777344 357.675781 369.074219 364.375 369.074219 372.582031 C 369.074219 380.792969 375.777344 387.492188 383.984375 387.492188 C 392.191406 387.492188 398.890625 380.792969 398.890625 372.582031 Z M 524.691406 306.417969 L 514.976562 286.988281 C 514.808594 286.148438 514.304688 285.480469 513.804688 284.808594 C 513.46875 284.308594 512.964844 284.140625 512.296875 284.140625 L 494.371094 283.972656 C 493.367188 284.140625 492.53125 284.976562 492.53125 286.148438 L 492.53125 303.402344 C 492.53125 304.742188 493.535156 306.082031 494.875 306.25 Z M 559.535156 372.582031 C 559.535156 364.375 552.832031 357.675781 544.625 357.675781 C 536.417969 357.675781 529.714844 364.375 529.714844 372.582031 C 529.714844 380.792969 536.417969 387.492188 544.625 387.492188 C 552.832031 387.492188 559.535156 380.792969 559.535156 372.582031 Z M 559.535156 372.582031 " fill-opacity="1" fill-rule="nonzero"/><path fill="#6c0633" d="M 294.199219 373.085938 C 294.199219 371.078125 292.523438 369.570312 290.683594 369.570312 C 288.671875 369.570312 287.164062 371.242188 287.164062 373.085938 C 287.164062 376.269531 284.652344 378.78125 281.46875 378.78125 C 279.460938 378.78125 277.953125 380.457031 277.953125 382.300781 C 277.953125 384.308594 279.625 385.816406 281.46875 385.816406 C 288.335938 385.816406 294.03125 380.121094 294.199219 373.085938 Z M 294.199219 373.085938 " fill-opacity="1" fill-rule="nonzero"/><path fill="#6c0633" d="M 245.789062 283.46875 L 228.199219 233.550781 L 427.035156 233.550781 L 370.582031 312.113281 C 356.679688 320.488281 342.609375 313.453125 340.265625 312.113281 L 324.015625 291.175781 C 323.179688 290 321.671875 289.164062 319.996094 289.164062 C 318.488281 289.164062 316.980469 289.835938 315.976562 291.175781 L 300.734375 311.109375 Z M 245.789062 283.46875 " fill-opacity="1" fill-rule="nonzero"/><path fill="#6c0633" d="M 433.0625 234.390625 C 433.230469 234.390625 433.230469 234.558594 433.230469 234.722656 L 427.203125 263.035156 L 382.644531 328.363281 L 317.820312 328.363281 L 317.820312 341.425781 L 309.945312 341.425781 L 309.945312 376.773438 L 302.074219 376.773438 C 300.734375 385.984375 293.53125 393.1875 284.316406 394.527344 C 272.757812 396.371094 261.871094 388.332031 260.195312 376.773438 L 252.15625 376.773438 L 251.988281 341.425781 L 192.355469 341.425781 L 192.355469 376.773438 L 184.648438 376.773438 C 183.308594 385.984375 176.105469 393.1875 166.894531 394.527344 C 155.335938 396.371094 144.449219 388.332031 142.773438 376.773438 L 134.898438 376.773438 L 134.898438 348.964844 L 92.6875 348.964844 L 92.6875 376.773438 L 84.648438 376.773438 C 83.308594 385.984375 76.101562 393.1875 66.890625 394.527344 C 55.332031 396.371094 44.445312 388.332031 42.769531 376.773438 L 35.0625 376.773438 L 35.0625 341.425781 L 27.359375 341.425781 L 27.359375 327.019531 L 27.527344 327.019531 L 38.917969 232.042969 C 39.417969 229.699219 40.757812 228.191406 42.097656 228.191406 L 71.414062 228.191406 L 71.414062 233.382812 L 219.492188 233.382812 L 165.886719 311.945312 C 152.152344 320.320312 138.082031 313.285156 135.734375 311.945312 L 119.65625 291.007812 C 118.816406 289.835938 117.308594 288.996094 115.636719 288.996094 C 114.128906 288.996094 112.621094 289.667969 111.617188 291.007812 L 96.539062 310.941406 L 53.324219 293.855469 L 46.285156 274.089844 L 33.558594 326.855469 L 85.316406 326.855469 L 61.695312 317.808594 L 55.5 302.898438 L 98.714844 319.652344 L 115.632812 297.875 C 115.632812 297.707031 115.800781 297.539062 115.800781 297.539062 C 115.96875 297.707031 115.96875 297.707031 116.136719 297.875 L 132.554688 318.644531 L 132.886719 318.8125 C 133.222656 318.980469 151.480469 329.535156 169.070312 318.8125 L 169.40625 318.644531 L 222.171875 241.59375 L 227.195312 256.667969 L 181.464844 326.855469 L 192.355469 326.855469 L 192.355469 332.882812 L 244.28125 332.882812 L 244.28125 326.855469 L 260.863281 326.855469 L 249.472656 294.191406 L 302.910156 319.652344 L 319.996094 297.875 C 319.996094 297.707031 320.164062 297.539062 320.164062 297.539062 C 320.332031 297.707031 320.332031 297.707031 320.496094 297.875 L 337.082031 318.8125 L 337.417969 318.980469 C 337.585938 319.148438 356.007812 329.703125 373.765625 318.980469 L 374.101562 318.8125 L 432.730469 234.558594 C 432.730469 234.390625 432.898438 234.390625 433.0625 234.390625 Z M 78.28125 373.589844 C 78.28125 365.546875 71.914062 359.183594 63.875 359.183594 C 55.835938 359.183594 49.46875 365.714844 49.46875 373.589844 C 49.46875 381.628906 56.003906 387.996094 63.875 387.996094 C 71.914062 387.996094 78.28125 381.460938 78.28125 373.589844 Z M 178.117188 373.589844 C 178.117188 365.546875 171.582031 359.183594 163.710938 359.183594 C 155.667969 359.183594 149.304688 365.714844 149.304688 373.589844 C 149.304688 381.628906 155.835938 387.996094 163.710938 387.996094 C 171.582031 387.996094 178.117188 381.460938 178.117188 373.589844 Z M 281.132812 387.996094 C 289.175781 387.996094 295.539062 381.460938 295.539062 373.589844 C 295.539062 365.546875 289.007812 359.183594 281.132812 359.183594 C 273.09375 359.183594 266.726562 365.714844 266.726562 373.589844 C 266.726562 381.628906 273.261719 387.996094 281.132812 387.996094 Z M 281.132812 387.996094 " fill-opacity="1" fill-rule="nonzero"/><path fill="#54565b" d="M 76.941406 373.085938 C 76.941406 371.078125 75.265625 369.570312 73.421875 369.570312 C 71.414062 369.570312 69.90625 371.242188 69.90625 373.085938 C 69.90625 376.269531 67.394531 378.78125 64.210938 378.78125 C 62.199219 378.78125 60.691406 380.457031 60.691406 382.300781 C 60.691406 384.308594 62.367188 385.816406 64.210938 385.816406 C 71.078125 385.816406 76.773438 380.121094 76.941406 373.085938 Z M 76.941406 373.085938 " fill-opacity="1" fill-rule="nonzero"/><path fill="#54565b" d="M 176.777344 373.085938 C 176.777344 371.078125 175.101562 369.570312 173.257812 369.570312 C 171.25 369.570312 169.742188 371.242188 169.742188 373.085938 C 169.742188 376.269531 167.226562 378.78125 164.046875 378.78125 C 162.035156 378.78125 160.527344 380.457031 160.527344 382.300781 C 160.527344 384.308594 162.203125 385.816406 164.046875 385.816406 C 170.914062 385.816406 176.609375 380.121094 176.777344 373.085938 Z M 176.777344 373.085938 " fill-opacity="1" fill-rule="nonzero"/><path fill="#54565b" d="M 294.199219 373.085938 C 294.199219 371.078125 292.523438 369.570312 290.683594 369.570312 C 288.671875 369.570312 287.164062 371.242188 287.164062 373.085938 C 287.164062 376.269531 284.652344 378.78125 281.46875 378.78125 C 279.460938 378.78125 277.953125 380.457031 277.953125 382.300781 C 277.953125 384.308594 279.625 385.816406 281.46875 385.816406 C 288.335938 385.816406 294.03125 380.121094 294.199219 373.085938 Z M 294.199219 373.085938 " fill-opacity="1" fill-rule="nonzero"/><path fill="#54565b" d="M 245.789062 283.46875 L 228.199219 233.550781 L 427.035156 233.550781 L 370.582031 312.113281 C 356.679688 320.488281 342.609375 313.453125 340.265625 312.113281 L 324.015625 291.175781 C 323.179688 290 321.671875 289.164062 319.996094 289.164062 C 318.488281 289.164062 316.980469 289.835938 315.976562 291.175781 L 300.734375 311.109375 Z M 245.789062 283.46875 " fill-opacity="1" fill-rule="nonzero"/><path fill="#54565b" d="M 433.0625 234.390625 C 433.230469 234.390625 433.230469 234.558594 433.230469 234.722656 L 427.203125 263.035156 L 382.644531 328.363281 L 317.820312 328.363281 L 317.820312 341.425781 L 309.945312 341.425781 L 309.945312 376.773438 L 302.074219 376.773438 C 300.734375 385.984375 293.53125 393.1875 284.316406 394.527344 C 272.757812 396.371094 261.871094 388.332031 260.195312 376.773438 L 252.15625 376.773438 L 251.988281 341.425781 L 192.355469 341.425781 L 192.355469 376.773438 L 184.648438 376.773438 C 183.308594 385.984375 176.105469 393.1875 166.894531 394.527344 C 155.335938 396.371094 144.449219 388.332031 142.773438 376.773438 L 134.898438 376.773438 L 134.898438 348.964844 L 92.6875 348.964844 L 92.6875 376.773438 L 84.648438 376.773438 C 83.308594 385.984375 76.101562 393.1875 66.890625 394.527344 C 55.332031 396.371094 44.445312 388.332031 42.769531 376.773438 L 35.0625 376.773438 L 35.0625 341.425781 L 27.359375 341.425781 L 27.359375 327.019531 L 27.527344 327.019531 L 38.917969 232.042969 C 39.417969 229.699219 40.757812 228.191406 42.097656 228.191406 L 71.414062 228.191406 L 71.414062 233.382812 L 219.492188 233.382812 L 165.886719 311.945312 C 152.152344 320.320312 138.082031 313.285156 135.734375 311.945312 L 119.65625 291.007812 C 118.816406 289.835938 117.308594 288.996094 115.636719 288.996094 C 114.128906 288.996094 112.621094 289.667969 111.617188 291.007812 L 96.539062 310.941406 L 53.324219 293.855469 L 46.285156 274.089844 L 33.558594 326.855469 L 85.316406 326.855469 L 61.695312 317.808594 L 55.5 302.898438 L 98.714844 319.652344 L 115.632812 297.875 C 115.632812 297.707031 115.800781 297.539062 115.800781 297.539062 C 115.96875 297.707031 115.96875 297.707031 116.136719 297.875 L 132.554688 318.644531 L 132.886719 318.8125 C 133.222656 318.980469 151.480469 329.535156 169.070312 318.8125 L 169.40625 318.644531 L 222.171875 241.59375 L 227.195312 256.667969 L 181.464844 326.855469 L 192.355469 326.855469 L 192.355469 332.882812 L 244.28125 332.882812 L 244.28125 326.855469 L 260.863281 326.855469 L 249.472656 294.191406 L 302.910156 319.652344 L 319.996094 297.875 C 319.996094 297.707031 320.164062 297.539062 320.164062 297.539062 C 320.332031 297.707031 320.332031 297.707031 320.496094 297.875 L 337.082031 318.8125 L 337.417969 318.980469 C 337.585938 319.148438 356.007812 329.703125 373.765625 318.980469 L 374.101562 318.8125 L 432.730469 234.558594 C 432.730469 234.390625 432.898438 234.390625 433.0625 234.390625 Z M 78.28125 373.589844 C 78.28125 365.546875 71.914062 359.183594 63.875 359.183594 C 55.835938 359.183594 49.46875 365.714844 49.46875 373.589844 C 49.46875 381.628906 56.003906 387.996094 63.875 387.996094 C 71.914062 387.996094 78.28125 381.460938 78.28125 373.589844 Z M 178.117188 373.589844 C 178.117188 365.546875 171.582031 359.183594 163.710938 359.183594 C 155.667969 359.183594 149.304688 365.714844 149.304688 373.589844 C 149.304688 381.628906 155.835938 387.996094 163.710938 387.996094 C 171.582031 387.996094 178.117188 381.460938 178.117188 373.589844 Z M 281.132812 387.996094 C 289.175781 387.996094 295.539062 381.460938 295.539062 373.589844 C 295.539062 365.546875 289.007812 359.183594 281.132812 359.183594 C 273.09375 359.183594 266.726562 365.714844 266.726562 373.589844 C 266.726562 381.628906 273.261719 387.996094 281.132812 387.996094 Z M 281.132812 387.996094 " fill-opacity="1" fill-rule="nonzero"/></svg>