<svg xmlns="http://www.w3.org/2000/svg" xmlns:xlink="http://www.w3.org/1999/xlink" width="816" zoomAndPan="magnify" viewBox="0 0 612 611.999999" height="816" preserveAspectRatio="xMidYMid meet" version="1.0"><defs><clipPath id="561ad9b849"><path d="M 20.628906 62.71875 L 477 62.71875 L 477 276 L 20.628906 276 Z M 20.628906 62.71875 " clip-rule="nonzero"/></clipPath><clipPath id="f213018efa"><path d="M 20.628906 260 L 251.503906 260 L 251.503906 549.292969 L 20.628906 549.292969 Z M 20.628906 260 " clip-rule="nonzero"/></clipPath><clipPath id="428beacb2b"><path d="M 251 210.421875 L 591.378906 210.421875 L 591.378906 549.292969 L 251 549.292969 Z M 251 210.421875 " clip-rule="nonzero"/></clipPath><clipPath id="c40086477d"><path d="M 136 62.734375 L 591.378906 62.734375 L 591.378906 408.582031 L 136 408.582031 Z M 136 62.734375 " clip-rule="nonzero"/></clipPath></defs><path fill="#dfdede" d="M 205.609375 513.070312 L 205.609375 407.066406 L 83.101562 336.332031 L 83.101562 442.34375 L 205.609375 513.070312 " fill-opacity="1" fill-rule="nonzero"/><g clip-path="url(#561ad9b849)"><path fill="#ffffff" d="M 20.628906 275.300781 L 360.625 77.714844 L 476.253906 62.734375 L 136.253906 260.320312 L 20.628906 275.300781 " fill-opacity="1" fill-rule="nonzero"/></g><g clip-path="url(#f213018efa)"><path fill="#ffffff" d="M 136.253906 260.320312 L 20.628906 275.300781 L 20.628906 416.054688 L 74.660156 447.25 L 74.660156 341.242188 L 197.167969 411.976562 L 197.167969 517.980469 L 251.402344 549.292969 L 251.402344 408.542969 L 136.253906 260.320312 " fill-opacity="1" fill-rule="nonzero"/></g><g clip-path="url(#428beacb2b)"><path fill="#ffffff" d="M 251.402344 408.542969 L 591.402344 210.953125 L 591.003906 351.703125 L 251.402344 549.292969 L 251.402344 408.542969 " fill-opacity="1" fill-rule="nonzero"/></g><g clip-path="url(#c40086477d)"><path fill="#ffffff" d="M 136.253906 260.320312 L 476.253906 62.734375 L 591.402344 210.953125 L 251.402344 408.542969 L 136.253906 260.320312 " fill-opacity="1" fill-rule="nonzero"/></g><path fill="#ffffff" d="M 83.101562 346.117188 L 74.660156 341.242188 L 74.660156 447.25 L 83.101562 442.34375 L 83.101562 346.117188 " fill-opacity="1" fill-rule="nonzero"/><path fill="#dfdede" d="M 553.011719 269.660156 L 553.011719 323.296875 L 520.703125 342.085938 L 520.703125 288.453125 L 553.011719 269.660156 " fill-opacity="1" fill-rule="nonzero"/><path fill="#dfdede" d="M 399.746094 358.816406 L 399.746094 412.449219 L 367.441406 431.242188 L 367.441406 377.605469 L 399.746094 358.816406 " fill-opacity="1" fill-rule="nonzero"/><path fill="#dfdede" d="M 323.113281 403.390625 L 323.113281 457.023438 L 290.808594 475.816406 L 290.808594 422.183594 L 323.113281 403.390625 " fill-opacity="1" fill-rule="nonzero"/><path fill="#dfdede" d="M 476.378906 314.238281 L 476.378906 367.871094 L 444.070312 386.664062 L 444.070312 333.03125 L 476.378906 314.238281 " fill-opacity="1" fill-rule="nonzero"/></svg>